<?xml version="1.0" encoding="utf-8"?>
<!-- Generator: Adobe Illustrator 26.2.1, SVG Export Plug-In . SVG Version: 6.00 Build 0)  -->
<svg version="1.1" id="Layer_1" xmlns="http://www.w3.org/2000/svg" xmlns:xlink="http://www.w3.org/1999/xlink" x="0px" y="0px"
	 viewBox="0 0 595 842" style="enable-background:new 0 0 595 842;" xml:space="preserve">
<style type="text/css">
	.st0{display:none;clip-path:url(#SVGID_00000109722077128803747480000014684518876208367020_);}
	.st1{display:inline;fill:url(#rect4233_00000000929471039384926680000014517799677088574633_);}
	.st2{clip-path:url(#SVGID_00000109722077128803747480000014684518876208367020_);}
	.st3{fill:url(#SVGID_00000150090228369664352200000016016537780409812366_);}
	.st4{fill:url(#SVGID_00000105414506416301047300000007767876786297610409_);}
	.st5{opacity:0.5;}
	.st6{fill:#FFFFFF;fill-opacity:0;}
	.st7{opacity:0.2;fill:#FFFFFF;enable-background:new    ;}
	.st8{opacity:0.1;fill:#FFFFFF;enable-background:new    ;}
	.st9{opacity:0.3;fill:#FFFFFF;enable-background:new    ;}
	.st10{fill:#FFFFFF;}
	.st11{opacity:0.7;fill:#FFFFFF;enable-background:new    ;}
	.st12{opacity:0.5;fill:#FFFFFF;enable-background:new    ;}
	.st13{opacity:0.8;fill:#FFFFFF;enable-background:new    ;}
	.st14{opacity:0.9;fill:#FFFFFF;enable-background:new    ;}
	.st15{opacity:0.6;fill:#FFFFFF;enable-background:new    ;}
	.st16{opacity:0.4;fill:#FFFFFF;enable-background:new    ;}
	.st17{fill:#152259;}
</style>
<g>
	<defs>
		<rect id="SVGID_1_" width="595" height="842"/>
	</defs>
	<clipPath id="SVGID_00000137093196103411055940000008471693480510866605_">
		<use xlink:href="#SVGID_1_"  style="overflow:visible;"/>
	</clipPath>
	
		<g id="Layer_2_00000173868564508883914280000005446047804590160550_" style="display:none;clip-path:url(#SVGID_00000137093196103411055940000008471693480510866605_);">
		
			<linearGradient id="rect4233_00000127744545697765670400000013911488756646773634_" gradientUnits="userSpaceOnUse" x1="-59.9703" y1="7.0011" x2="678.1881" y2="860.3665" gradientTransform="matrix(1 0 0 -1 0 842)">
			<stop  offset="0" style="stop-color:#1C1A4E"/>
			<stop  offset="0.3914" style="stop-color:#144172;stop-opacity:0.69"/>
			<stop  offset="0.9951" style="stop-color:#0685AF;stop-opacity:0.212"/>
		</linearGradient>
		
			<rect id="rect4233" style="display:inline;fill:url(#rect4233_00000127744545697765670400000013911488756646773634_);" width="596.3" height="842"/>
	</g>
	<g id="Layer_3" style="clip-path:url(#SVGID_00000137093196103411055940000008471693480510866605_);">
		
			<linearGradient id="SVGID_00000138537773821795059100000007888218537811308687_" gradientUnits="userSpaceOnUse" x1="362.5001" y1="-251.3781" x2="1000.1059" y2="470.9486" gradientTransform="matrix(1 0 0 -1 0 842)">
			<stop  offset="0" style="stop-color:#1C1A4E"/>
			<stop  offset="0.3914" style="stop-color:#144172;stop-opacity:0.69"/>
			<stop  offset="0.9951" style="stop-color:#0685AF;stop-opacity:0.212"/>
		</linearGradient>
		<path style="fill:url(#SVGID_00000138537773821795059100000007888218537811308687_);" d="M643.5,409.5c-0.1,0.4-0.6,0.5-1.2,0.5
			c-1,0-2.4-0.3-4-0.3c-2.7,0-5.8,0.8-7,6.2c-3.6,6.3-7.9,13.6-7.6,13.6h0.1c0,0.5,0.2,0.7,0.3,0.7c0.7,0,3.2-7.3,4-7.3
			c0,0,0.1,0.1,0.1,0.4c-6,12-3.1,13.6-10.8,25.2c0.7-2.1,0.5-2.8,0-2.8c-0.8,0-2.4,1.6-3,1.6c-0.3,0-0.4-0.2-0.3-0.7
			c-3.7,5.1,1.1,2.8-4.1,10.1l-0.5-1.3c-4.1,7.6-2.9,6.1-6.6,6.4c-1.8-0.2-4.5-0.3-7.5-0.3c-7.1,0-15.7,0.5-16.9,0.8
			c-0.2,0.3-0.5,0.4-0.8,0.4c-3.6,0-13.9-20.8-21.9-29.5c0-2-2.7-8-6.5-15.8c-1.3-1.6-1.7-5-3.7-5.6l-6.9,0.7l-16.7,1.5
			c1.3-0.1,2.3-0.2,3-0.2c5,0-3.8,2.3-6.5,3l-8.4-0.7c-5.2,0.1-10.7,1.9-16.1,3.6l-19.8,7c-0.5,0-1,0-1.4,0c-1.6,0-2.6-0.3-3.5-0.4
			c-6.2,9.9-1.3,14.4-2.2,18.6c-0.8,3.3-1.6,4.2-2.3,6.4l1.4,1.3c0,8.2-1.4,18.8-3.7,18.8c-0.2,0-0.3,0-0.4-0.1
			c0.1,2.4,0.1,4.6,0.5,4.6c0.2,0,0.5-0.5,0.8-1.7c0,0,0-0.1,0.1-0.2c-0.1,0.1-0.1,0.2-0.1,0.2c-0.6,2.1-1.2,5.4-1.7,8.4
			c-0.7,1.3,0,3.3-1.3,4.3c-0.6,0.3-12.7,4.5-19.4,8.3c3.2-1.1,4.9-1.6,5.9-1.6c1.3,0,1.5,0.7,2.1,1.3c-1,3.3-3.5,1.1-8.6,5
			c-0.2-0.2-0.8-0.3-1.4-0.3c-0.3,0-0.5,0-0.8,0c-1.5,0-2.6-0.1,1.4-2.4c-3.3,0.8-5,1.3-6.3,1.3c-2.5,0-3.5-2.2-12.7-9.3l-15.8-12.2
			l-10.4-8.2l-6.1-4.9c-1.1-0.8-2.1-1.9-3.1-2.4l-3.1,1.9c-6.7,4.3-4.5,3.6-7.5,6.3c-22.5,10.3-28.9,18-54.3,35.9
			c1.1-0.6,1.8-0.8,2.3-0.8c1,0,1,0.8,0.1,2.3c1.8,3.2,4.2,8.4,6.1,14.6c5.4,10.8-1.8,5.2-0.1,15.2c2.3,4.3,5.1,13,6,16.8l-0.4-0.2
			l3.5,7.7l1,3.2c-0.8,0.8-1.8,1.3-2.7,1.9l0.2-0.5c-1.3,1-7.9,5.2-12.2,9.8c-0.1,1.6-3.4,5.4-6.1,8.5c-1.5,1.8-3.1,3.7-3.5,5.4
			c-0.5-0.4,0.1-0.4-0.8-1.1l0.1,1.9l-8-3.3c0.4,0,0.6,0,0.8,0c2.2,0,2.7-0.6,4.1-0.7c-2.4-1-3.7-1.4-4.4-1.4
			c-1.5,0-0.9,1.5-3.6,1.5c-0.5,0-0.7,0-1.3-0.1c-8.9-1.3-8-2.8-12-4.7c3.9,0.1,6.2,2.3,8.5,2.5c0.1,0,0.4,0,0.4,0
			c4.2,0-5.4-2-5.4-3.1c-0.4-0.2-0.6-0.2-0.8-0.2c-0.8,0-1.7,0.4-3.1,0.4c-1.3,0-3.1-0.3-5.5-1.2l-11.9-3.7
			c-5.3-1.7-9.5-3.2-8.5-3.9c-1.4-0.7-2.5-1.1-3.7-1.1c-5.6,0-7.8,8.3-10.4,11.4l7.2-8.2c0.6-0.4,1.2-0.6,1.8-0.6
			c1.4,0,3,0.9,4.1,1.7c0.4,0.2,0.7,0.4,1.2,0.8c-0.1,0-0.6-0.4-1.2-0.8c-0.7-0.4-1.4-0.5-1.9-0.5c-4.9,0-7.9,9.1-9.6,9.1
			c-0.1,0-0.1,0-0.1,0l2.4-4c-2.3,3.4-8.9,11.8-7.7,11.8c0.2,0,0.8-0.4,1.9-1.1l-7.3,5.9c-0.8,3.6-5.9,10.9-9.4,17.1
			c-1.1-0.1-1.1-2.5-2.1-2.5c-0.9,0-2.7,1.8-7,8.2l-6.2,14.4c2.1,6,4.9,8.2,3.8,8.2c-0.2,0-0.5,0-0.8-0.1l6.6,8.4l3.7,3.9
			c2.5,2.4,4.5,3.9,6.5,5.2c4.1,3,7.6,5.5,12,12.5c-1.7-1.1-2.5-1.5-3-1.5c-1.4,0,1.6,4,4.1,7.7c0,0,0.2,0,0.4,0
			c0.5,0,1.1,0.2,1.9,1.1c-0.1-1.8-2.1-0.1-4.8-5.9c0.1-0.3,0.1-0.5,0.2-0.5c1.2,0,5,5.2,6,5.8c0,1.1,0.7,2.2,0.5,3.3l-2.7,3.8
			c-1.4,2.4-5.4,10.2-7.3,16c-3.5,7.5-2.3,10-5.6,11.1l-15.1,0.8c2,2.6-10.3,2.1-15.1,3.6c0.4-0.7-0.2-1-1.5-1
			c-1.3,0-3.3,0.3-5.5,0.7c-3.9,0.7-11.6,2-16.6,2c-0.6,0-1.1,0-1.5-0.1l6.7,2.1l-7.2,0.6c-1.2,1.3-1.2,3.8-1.8,5.6l-1.5,10.9
			c-0.9,6.8-0.8,10.4-3.7,14.8c-0.7,2-1.1,2.8-1.3,2.8c-0.7,0-0.1-6.9,0.1-9.5c-5.9,10.9-3,28.5-8.5,43.4c0.1,0.1,0.3,0.1,0.3,0.1
			c0.5,0,1-0.4,1.6-0.4c0.1,0,0.1,0,0.2,0.1c0.5,0.3,0.8,0.7,0.9,1.9l0.2,2.4l4,1.6c9.1,6.6,21.2,14.8,19.9,14.8l0,0
			c5.9,2.5,7.9,2.5,13.6,6.9c-0.2,0.1-0.2,0.1-0.5,0.1c-1.1,0-3.5-1.2-5.4-1.9c4.4,2.7,10.2,5.8,12.9,7c2,1,6.4,1,5.7,4.3
			c-0.8,0.9-1.3,2.3-1.4,3.8l-0.8,10.5l0.3,11.8c0,1.5-0.1,3.5-0.4,4.8c0.5,2-2.4,2.8-4.9,4c-3.9,2-7,3.7-6.8,5.4
			c0.1,0.1,0.1,0.1,0.1,0.1c0,0,0-0.1-0.1-0.1c0-0.1-0.2-0.1-0.5-0.1c-0.6,0-1.3,0.1-1.9,0.2c-3.8,3.2-6,7-11.3,10.1l0.6-2.9
			c0-0.5-0.3-0.6-0.8-0.6c-1.3,0-4.1,1.5-7.3,3.2c-3.4,1.9-9.6,5.6-12.3,6.5c0.7-0.1,1-0.3,1.2-0.3c1.4,0-11.7,5.4-5.7,8.5l2,9.6
			c2.7,14.4,1.4,2.5,4.3,17c0.6,3.2,0.4,4.4-0.1,4.4c-0.8,0-2.2-2.3-2.3-3.9c0.2,7.6,2.1,12.9,4.3,20.3c-0.4-1.5-0.6-2.4-0.4-2.4
			c0.1,0,0.3,0.4,0.8,1.3c-0.4,0-0.2,0.9-0.1,2c0.9,2.7,1.8,5.9,2.7,9.5v-0.1c-0.1,0,0,0.3-0.1,0.3l0,0c-1.1-3.8-2.1-7.3-2.6-9.5
			c0.3,2.5,1.3,6.4,2.4,10.7c0.1,0.1,0.1,0.4,0.1,0.7c0.8,3.4,1.6,6.8,1.9,8.9l-2.1-1.2c-1.1,4.5,4.3,5.2,9.6,5.2
			c1.4,0,2.6,0,3.9-0.1c1,0.1,1.9,0.1,2.9,0.1c4.8,0,7.1-0.3,6.7-0.6c9.6,1.9,27.6,3.9,36.1,4.4c0.5-0.1,0.9-0.1,1.3-0.1
			c3.5,0,3.3,4.2,5.2,6.8c1.2,2.6,2.2,5.1,3.2,7c0.5,1,1.1,2.1,1.8,3.7c-0.5-0.8-1-2.1-1.8-3.7c-0.6-1-1.1-1.6-1.2-1.6
			c-0.1,0,0.1,0.6,0.8,1.6c2.7,6.1,7.7,12.9,6.6,13c1.1,2,1.2,2.9,1.3,4c0.5,1.2-0.1,2.3-2.5,4.4l0,0c-0.2,0,0.4,0.7,1,0.7
			c0,0,0,0,0,0c0.4-0.3,0.7-0.5,1-0.7c-0.3,0.5-0.6,0.6-1,0.7c-3.5,2.9-9.7,11-14.2,17.6c-5.2,7.1-10.9,15.4-20.1,26.1l2.5,4.4
			c0.4,0.5,0.6,0.9,0.6,1.2l-0.6-1.2c-0.9-1.2-2.5-3-4.1-4.5c0.2-0.8,0.5-1.4,0.7-1.9l-1.3,1.9c12.2,18.9,19.2,28.8,29.2,38.9
			c-1.5-0.8-1.9,0-4.4-2.7c4.2,4.9,10.8,15.8,16.3,20c-1.2-2.2-1.4-3.2-0.8-3.2c0.4,0,1.5,0.8,2.6,1.9c0.6,0.8,1.3,1.2,2.3,1.2
			c2.9,0,7.3-3.1,9.9-3.1c0.1,0,0.2,0,0.4,0l0.2,0.2l21.2-7.2c0.6-0.1,1.1-0.2,1.5-0.2c2.7,0-6.5,2.3-4,2.6c0.5,0.3,1.2,0.4,2.1,0.4
			c6.1,0,21.2-5.1,21.9-5.1c0.1,0,0.1,0.1,0.1,0.1c1.1-1.1,2-1.3,2.9-1.3c0.4,0,0.8,0,0.9,0c0.2,0,0.4,0,0.4-0.2
			c5.2,4.4,1,3.6,4.3,6.8c6.5,4.6,13.1,8.4,20,12.4c0.2,0.3,0.4,0.5,0.6,0.6c0,0,0,0,0,0c-0.8,0,1.1,3.3-0.3,3.3
			c-0.1,0-0.5-0.1-0.8-0.2c5.9,4,2.9,9.5,2.6,15.1l-0.4,4.7l-10.7,36.7c-0.1-0.3-0.3-0.5-0.4-0.5c-0.8,0-2.2,2.4-2.9,2.4
			c-0.3,0-0.4-0.5-0.4-1.7l-1,4.5l4.6,3.4l10.7,8.2l19.9,14.7c-1.4-1.7-1.6-2.3-0.9-2.3c2.3,0,14.6,8,17.6,8c0.4,0,0.5-0.1,0.6-0.1
			c1.4,0.8,2.7,1.7,4.1,2.5l3.8-3c0.6-0.3,1.3-0.5,1.6-0.5h0.1c0.6,0.1,0.7,0.7,1.3,0.7c0.4,0,1.1-0.3,2.3-1
			c12.9-11.8,26.8-22,37.1-30.7c0,0,0.2,0.4-0.3,1.2c0.2-0.1,0.5-0.1,0.6-0.1c5,0,12.9,5.1,21.5,7.8l12.7,4.3c1.8,0.7,4.2,1,5.8,1.8
			l1.1,4.2l0.2,1c-0.1,0-0.2,0-0.2,0c-0.1,0-0.2,0-0.4,0c-0.3,0-0.7-0.2-1.3-2.1c0.2,7.6,1.4,7.6,2.4,8.7l1.1,9.1l-1.2-2.4
			c2.5,10.6,1.2,20.8,4.5,32.8l0.1,0.7c-0.1,0.1-0.1,0.1-0.2,0.1c-0.6,0-1.1-2.3-1.7-3.9l1.4,9.3c0.4,3,5.4,1.9,7.9,3.2
			c3.7,0.8,6.7,1,10,1.5c2.2,0.4,4.3,1,6.5,1.5c-0.1,0.5-0.8,0.9-2.7,0.9c-0.6,0-1.3-0.1-2.1-0.2c4.6,1.5,7.6,1.8,10.2,1.8
			c1.3,0,2.5,0,3.8,0c2.3,0,4.8,0.2,8.4,1.2c2.7,0.6,7.1,2.3,6.8,2.5c0.7-0.1,1.5-0.1,2.4-0.1c2.9,0,6.7,0.3,10.5,0.8
			c0.2,0,0.3-0.3,0.5-0.3c0.6,0.1,1.2,0.3,1.8,0.4l2-3.8c0.2-0.4,0.6-0.8,0.7-1.2l3.5-6.3c1.4-1.4,3.5-4,6.6-8.2l10.3-18.7
			c3.5-4.4,4.3-12.2,9.6-12.2c0.8,0,1.8,0.1,2.8,0.5c4.3,0.2,9.7,0.6,14.9,0.6c2.1,0,4.2-0.1,6.2-0.2l10.1-0.5l4.9-0.3l2.4,4.1
			l20.6,36.6l5.5,9.8c0.4,0,0.7,0,1,0c3,0,6.6-0.9,9.8-1.5c5.7-0.9,11.1-2.1,16.5-3.4c1.7-0.3,3.4-0.5,4.9-0.7
			c7.9,1.1-13,4.1-6.9,4.9c-0.8-2.4,9.1-2.2,26.1-7.2l1,0.3c6.6-3.2,16.1,0.2,14.2-11.5l-0.6,0.1c-0.7-9.8,5.4-18.5,2.5-23.5
			l2.6-6.2c-1.8-8.7,1.8-12.5,1.1-20.8c-0.1-0.4-0.3-0.7-0.1-0.8c0.1,0.3,0.1,0.5,0.1,0.8c0.1,0.2,0.1,0.2,0.1,0.4
			c9-3.4,23.8-12.9,28.8-13.2c2.6-2.7,5.1-3.6,7.6-3.6c4.9,0,9.5,4.1,12.5,5.6l2.5,2c-0.4,0.3-0.8,0.5-1.5,0.5
			c-0.4,0-0.8-0.1-1.1-0.2c9.4,6,19.6,17.4,30.3,22.1l5.2,4.2c1.3-0.7,2.4-1.6,3.7-2.2c5.5-0.1,11-2.5,16.6-9.2
			c8.2-5.4,16.1-11.4,23.6-17.4c3-2.3,6.1-4.4,9.2-6.7l-16.6-56.4c1-1.3,2.1-2.5,3.1-3.8c9.8-8.8,19.3-18,28-27.9l56.8,16.6
			c13.2-16.7,25.1-34.4,35.5-53l-1.3-1.6l-13.3-17.5l-13.9-17.8l-6.6-8.2c-2.1-2.6,1.6-6.1,2.3-9.2c2.6-6.3,5.4-12.6,7.1-18.7
			l0.4-1.2c1.7-4.4,3.9-8.4,5.4-12.8l11.5-1.3c0.1,0.4,0.4,0.7,1.3,0.7c0.4,0,0.8-0.1,1.1-0.2c6.8-1.3,14-2.1,21.2-3.1l23.6-2.6
			c3.7-13.2,6.6-26.9,9-40.7c0.8-4.3,1.6-8.4,2-12.4c0.4-3.2,1.1-6.3,1.5-9.6l-52-28.4c0.4-7.4,1-14.5,1-22c0-7.6-0.6-14.8-1-22.2
			l17.6-9.6l-2.3,1.9c2.7-1.9,6.1-3.3,7.6-3.3c0.7,0,0.9,0.3,0.6,0.9l8.2-5.6l0.4,1.8c6.7-4,13.2-7.3,21-11.4
			c2.6-0.7,3.1-2.3,2.3-4.5l-1-6.2c-0.6-4.2-1.2-8.9-2.4-12.8l-0.7,6.7c-1.7-10-5.9-19.2-5.9-28.5c0.6,1.5,1,2,1.3,2
			c0.5,0,0.7-1.2,1.3-1.5c-0.8-2.2-2-4.3-2.3-7.3l3.1,3c-2.1-2.4-4-8.9-5.7-15.5c0.3-5-4.6-4.4-7.9-4.9c-3.1-0.5-5.8-0.8-7.3-0.8
			l2-0.4c-3.7-0.7-5.5-1-6.2-1c-2,0,4,2.1,0.4,2.1c-0.5,0-1.1-0.1-2.1-0.1c-8.5-1.4-2.9-3.6-10.5-5.7l-25.1-1.8
			c-4.2-2.8-6.3-14.9-9.4-23l-4.1-7.8c-0.8-2-3.4-4.2-1.1-6.1l9.4-14.5c2.4-3.2,3.5-3.9,4-3.9c0.5,0,0.6,0.6,0.9,0.6
			c0.4,0,1.1-0.8,3.4-4.5c0.1,1,0.6,1.2,1.4,1.2c0.6,0,1.4-0.1,2.1-0.3c-0.1-0.7,2.4-3.9,4.6-6.9c2.4-3.1,5.6-7.4,4.9-7.4
			c-0.4,0-1.2,0.7-3,2.2l5.6-6.9c2.2-2.4,4.6-4.5,1.9-7.2l-8.8-15.3c-4.8-7.8-10.1-15.6-15.6-22.7c-0.2-0.2-0.4-0.4-0.5-0.6
			c0.1,0.1,0.2,0.4,0.5,0.6c1.7,2.1,3.1,3.2,3.8,3.2c0.8,0,0.8-1.1-0.2-3.5c-2.7-2.4-8.1-8.3-13.8-15l-4.2-5.1l-7.3,2.2l-13.4,3.8
			c0.7,1.8,5.6,0.5,4.5,2.7c-2,1-5.4,2.9-9,3.8c-1.8-0.8-2.5-2.5-6.5-2.5c-2.2,0-5.2,0.5-9.8,1.8c2.6-4.2,22.7-6.3,15.8-7.5
			c1.2-1,3.7-2.3,6.8-3.6l16.8-5.6c1-0.1,2.5-1,3.6-1c0.4,0,0.5,0.1,0.8,0.2l2.6,3.6l4.8,6.5c2.9,4.1,5.1,7.4,5.9,9.3
			c2,1.9,3,2.6,3.3,2.6c0.4,0-0.7-1.5-2-3.5c-3.2-4.5-7.8-10.5-6.1-10.5h0.1l-7.5-9.2c-0.6-0.3-1-0.5-1.8-0.5
			c-2.7,0-6.3,2.4-9.3,3.1l-22.4,7.5c0.2,1.5,5.8,0-1.5,3.3c-7,3.7-12.2,4.5-15.8,4.5c-3.1,0-4.9-0.6-5.4-0.6l0,0
			c-0.2-0.3,3.8-1.5,5.6-2.4c-6.1,1.2-6.1,1.6-7.2,2.2c-0.4,0.5-0.8,0.7-1.3,0.7c-0.8,0-1.6-0.5-2.3-1.5c0.4-0.8,0.7-1.1,1.2-1.1
			c0.5,0,1,0.4,1.4,1c1.8-0.4,1.4-0.1,4.4-2.2c-0.3,0-0.5,0-0.8,0c-2.7,0-1.6-1.2-2.4-1.9c-0.5,0.2-0.7,0.4-1.1,1.1
			c-0.3,0.1-0.5,0.4-0.7,0.4H869c0,0,0,0-0.1,0c0,0-0.6-0.6-3.7-4.1l2.4,0.6c-2.8-2.4-5.4-5-8.3-7.3c-1,0.9-0.8,3.7,5.9,10.6
			c-6.2-1.5-7.7-7.5-16.2-14.3c-0.1,0-0.4,0-0.5,0c-2,0,2.7,2,2.7,4.5c-0.1,0.1-0.4,0.2-0.6,0.2c-1.9,0-6.9-3.8-8.3-6.4
			c2.1-7.2,3-3,5.3-5.8c-0.2,2.1-0.8,4.8-2,4.9c1,0.8,1.8,1.1,2.4,1.1c1.5,0,1.8-2.2,3.1-2.2c0.2,0,0.5,0.1,0.8,0.3
			c1.4-2-1.4,0.1-0.6-5.2c-0.4,0.6-0.5,0.7-0.7,0.7c-0.6,0-0.8-1.5-1.5-1.5c-0.2,0-0.4,0.2-0.6,0.6c0.2-20.2,7.3-10.9,11.7-28.9
			c-0.2,0.1-0.5,0.2-0.6,0.2c-0.7,0-1.1-1.1-1.1-2.9l1.3-11.1c0.4-4.3,0.4-7.3-0.6-7.3c-0.7,0-1.7,1.5-3.7,5.2c0-1.2,1-2.7,0.5-3.9
			l-4.2-2.6c-2.6-1.8-5.1-3.5-7.1-5.1c0.7,0.1,1.2,0.3,1.5,0.3c2.1,0-3.4-4.4-1.9-4.4c0.6,0,1.7,0.5,4,1.6l-7-5.2
			c3.4,1.1,8.6,3.9,13.3,6.3c-9.5-9.4-17.7-16.8-20.7-20.3c-2.3-1.2-3.2-1.5-3.8-1.5c-0.9,0,0.3,1.4-0.5,1.4c-0.4,0-1.7-0.5-4.6-2.1
			c0.4,0.1,0.8,0.1,1,0.1c2,0-2.9-4.1-6.9-6.6c3.2,2.6,3.8,3.7,2.5,3.7c-1.7,0-6.8-2.1-12.6-5c-4.5-4.8-8.6-6.3-12.1-6.3
			c-5.5,0-9.3,3.5-9.9,3.5c-0.2,0-0.1-0.1,0-0.5c3.1-2,6.3-7.9,9.7-8.7c-2.2,0.1-3,2-4,2c0,0,0,0-0.1-0.1c-1.3,0.7-2.7,1.1-8,5.8
			l-5.1,7.2c-1.1,2-1.6,3.7-2.2,5.2c-4.5,4.5-9.2,5.9-10.7,7.4l7-7.3c-3.9,3.5-5.5,4-6.5,4c-0.6,0-1-0.2-1.4-0.2
			c-1,0-2.6,0.6-6.7,4.4l-1.6,3.6c-1.1,0.7-1.9,1.1-2.5,1.1c-0.3,0-0.4-0.2-0.4-0.6c-0.7,1-2,2.3-3.5,3.6c-0.9,0.9-0.9,1-1.2,1.6
			l-0.6-1.1c-0.2,0.8-0.6,1.6-1.4,1.8c0,0.1-0.1,0.1-0.2,0.1c-0.6,0-2.2-0.8-5.2-3.3c5,5.5,4.4,2.3,7,4.5c1.1,1.3,0.5,1.8-0.8,1.8
			c-1.1,0-2.7-0.4-3.2-0.8c2.1-2.5-13.6-6.5-20.3-8.9c-1.5-1.7-1.8-2.3-1.9-3c-0.8,0.4-1.7,0.8-2.3,1c1.8-2,1.4-2.5,0.7-3.7
			c-0.7-2.2-2.4-8.1-2.1-11.7c0.7,1.6,1.4,2.4,1.9,2.4c0.8,0,1.3-1.7,1.3-4.8c-0.4,1.3-0.8,1.9-1.1,1.9c-1.9,0-3.9-11.1-5.4-11.1
			c-0.1,0-0.2,0-0.3,0.1c-0.1-4.3,0.2-5.7,0.7-5.7c1.1,0,3.1,4.9,4.4,4.9c0.2,0,0.5-0.3,0.7-0.8c-1.5-3.2-1.5-7.2-1.6-10.8
			c-0.3-5.8-0.9-12.6-2.7-15.5c0.3,5.4,0.2,7.4-0.1,7.4c-0.6,0-2.4-10-3.5-11.2c-8.3-2.5-7.9-2.6-6.3-2.6c0.3,0,0.8,0,1.1,0
			c1.5,0,2.5-0.2-2.8-2.1c-3.8-0.8-7.8-1.3-10.2-1.3c-3.3,0-3.9,0.8,2.3,3c-11-3.7-17.1-1.9-25.8-5.5c-0.7-0.5-0.2-0.7,0.6-0.7
			c2.5,0,9,1.5,10.7,1.5c0.6,0,0.7-0.2-0.3-0.7c-4.2-1-6.9-1.3-8.9-1.3c-5,0-5,2.2-11.2,2.2c-1.6,0-3.7-0.1-6.4-0.6
			c7.8,2.4-0.6,4.2-8.1,4.4c-18.8-3.6,7.8-0.1,0.3-3.6l-8.2-0.7c-2.8-0.3-2.6,0.4-2.4-2.5c1-1.1,4.4-0.9,7.7-1.2
			c6.8-0.4,15.1-0.4,8.1-2.7l-11.2-0.5C645.1,412.4,648.7,411.1,643.5,409.5L643.5,409.5z M596.1,1064.5
			c-122,0-221.2-99.2-221.2-221.1c0-122,99.2-221.3,221.2-221.3c122,0,221.3,99.3,221.3,221.3
			C817.4,965.3,718.1,1064.5,596.1,1064.5L596.1,1064.5z M992.5,727.6l-3.2-0.4c0.3-0.1,0.6-0.1,0.8-0.2
			C991.3,727.1,991.7,727.4,992.5,727.6L992.5,727.6z M1006.7,791.9c-1.2,2.5-14.6,10.3-18,10.6c-0.1,0-0.2,0-0.2,0
			c-0.5,0-0.2-0.3-0.4-0.5l9.8-5.3c0.1,0.2-0.1,0.6,0.2,0.8c2.1-1.7,3.4-2.5,4.7-3.5L1006.7,791.9L1006.7,791.9z M185.7,961.3
			c-0.9,0-1.8-0.2-2.8-0.4c0.6,0,1.1,0.1,1.6,0.2C185,961.2,185.2,961.2,185.7,961.3L185.7,961.3z M755.6,488.2
			c-0.3,0.4-0.6,0.8-0.6,1C755.3,488.9,755.4,488.6,755.6,488.2L755.6,488.2z M852.8,552.1c-0.7,2.2-1.1,3.8-1.3,5.1
			C851.8,556.3,852.3,554.8,852.8,552.1L852.8,552.1z M249.4,582.7l-0.2,0.1C249.3,582.8,249.4,582.7,249.4,582.7L249.4,582.7z
			 M1005.8,744.8c0.3,0.4,0.6,0.7,0.8,0.8L1005.8,744.8L1005.8,744.8z M972.2,811.4c-1,0.6-2,1.4-2.7,2.1L972.2,811.4L972.2,811.4z
			 M170.2,883.2c-0.3,0.1-0.7,0.2-1.1,0.4l0,0C169.3,883.5,169.8,883.4,170.2,883.2L170.2,883.2z M339.3,1111.5
			c0.8,0.5,1.3,0.7,1.7,0.9C340.5,1112.2,340,1111.8,339.3,1111.5L339.3,1111.5z M525.6,1258.4c0,0-0.2,0-0.3,0c0.1,0,0.1,0,0.1,0
			C525.6,1258.4,525.6,1258.4,525.6,1258.4L525.6,1258.4z"/>
		
			<linearGradient id="SVGID_00000061445155559991637550000017278777484539939753_" gradientUnits="userSpaceOnUse" x1="-139.9764" y1="652.3453" x2="167.37" y2="1083.772" gradientTransform="matrix(1 0 0 -1 0 842)">
			<stop  offset="0" style="stop-color:#1C1A4E"/>
			<stop  offset="0.3914" style="stop-color:#144172;stop-opacity:0.69"/>
			<stop  offset="0.9951" style="stop-color:#0685AF;stop-opacity:0.212"/>
		</linearGradient>
		<path style="fill:url(#SVGID_00000061445155559991637550000017278777484539939753_);" d="M24.3-233.7c-0.1,0.2-0.3,0.3-0.6,0.3
			c-0.5,0-1.3-0.2-2.2-0.2c-1.5,0-3.2,0.5-3.9,3.4c-2,3.5-4.4,7.5-4.2,7.5h0c0,0.3,0.1,0.4,0.2,0.4c0.4,0,1.8-4,2.2-4
			c0,0,0.1,0.1,0.1,0.2c-3.3,6.6-1.7,7.5-6,13.8c0.4-1.2,0.3-1.5,0-1.5c-0.4,0-1.3,0.9-1.6,0.9c-0.2,0-0.2-0.1-0.2-0.4
			c-2,2.8,0.6,1.5-2.2,5.5l-0.3-0.7C3.4-204.4,4-205.2,2-205c-1-0.1-2.5-0.2-4.1-0.2c-3.9,0-8.6,0.3-9.3,0.5
			c-0.1,0.2-0.3,0.2-0.4,0.2c-2,0-7.7-11.5-12-16.2c0-1.1-1.5-4.4-3.6-8.7c-0.7-0.9-0.9-2.8-2-3.1l-3.8,0.4l-9.2,0.9
			c0.7-0.1,1.2-0.1,1.7-0.1c2.7,0-2.1,1.3-3.6,1.6L-49-230c-2.8,0.1-5.9,1.1-8.9,2l-10.9,3.9c-0.3,0-0.5,0-0.8,0
			c-0.9,0-1.4-0.1-1.9-0.2c-3.4,5.4-0.7,7.9-1.2,10.2c-0.5,1.8-0.9,2.3-1.2,3.5l0.8,0.7c0,4.5-0.8,10.3-2,10.3c-0.1,0-0.2,0-0.2-0.1
			c0,1.3,0.1,2.5,0.3,2.5c0.1,0,0.3-0.3,0.5-0.9c0,0,0-0.1,0-0.1c0,0,0,0.1,0,0.1c-0.3,1.2-0.7,2.9-0.9,4.6c-0.4,0.7,0,1.8-0.7,2.3
			c-0.3,0.2-7,2.5-10.7,4.6c1.8-0.6,2.7-0.9,3.2-0.9c0.7,0,0.8,0.4,1.2,0.7c-0.5,1.8-1.9,0.6-4.7,2.7c-0.1-0.1-0.4-0.2-0.8-0.2
			c-0.2,0-0.3,0-0.4,0c-0.9,0-1.4-0.1,0.8-1.3c-1.8,0.4-2.7,0.7-3.5,0.7c-1.4,0-1.9-1.2-7-5.1l-8.7-6.7l-5.7-4.5l-3.4-2.7
			c-0.6-0.4-1.2-1-1.7-1.3l-1.7,1c-3.7,2.4-2.5,2-4.1,3.5c-12.4,5.7-15.9,9.9-29.8,19.7c0.6-0.3,1-0.4,1.2-0.4c0.5,0,0.5,0.4,0,1.2
			c1,1.8,2.3,4.6,3.3,8.1c3,5.9-1,2.9-0.1,8.4c1.2,2.4,2.8,7.2,3.3,9.2l-0.2-0.1l1.9,4.2l0.5,1.7c-0.4,0.5-1,0.7-1.5,1l0.1-0.3
			c-0.7,0.5-4.3,2.8-6.7,5.4c-0.1,0.9-1.9,2.9-3.3,4.6c-0.8,1-1.7,2-1.9,3c-0.3-0.2,0-0.2-0.5-0.6l0.1,1.1l-4.4-1.8
			c0.2,0,0.3,0,0.5,0c1.2,0,1.5-0.3,2.2-0.4c-1.3-0.6-2-0.8-2.4-0.8c-0.8,0-0.5,0.8-2,0.8c-0.3,0-0.4,0-0.7,0
			c-4.9-0.7-4.4-1.5-6.6-2.6c2.1,0.1,3.4,1.3,4.7,1.4c0.1,0,0.2,0,0.2,0c2.3,0-3-1.1-2.9-1.7c-0.2-0.1-0.3-0.1-0.4-0.1
			c-0.4,0-0.9,0.2-1.7,0.2c-0.7,0-1.7-0.2-3-0.7l-6.5-2c-2.9-0.9-5.2-1.8-4.6-2.2c-0.8-0.4-1.4-0.6-2-0.6c-3.1,0-4.3,4.6-5.7,6.3
			l3.9-4.5c0.3-0.2,0.6-0.3,1-0.3c0.8,0,1.6,0.5,2.2,0.9c0.2,0.1,0.4,0.2,0.7,0.4c-0.1,0-0.3-0.2-0.7-0.4c-0.4-0.2-0.8-0.3-1.1-0.3
			c-2.7,0-4.3,5-5.3,5c0,0-0.1,0-0.1,0l1.3-2.2c-1.3,1.9-4.9,6.5-4.3,6.5c0.1,0,0.4-0.2,1-0.6l-4,3.3c-0.4,2-3.2,6-5.1,9.4
			c-0.6,0-0.6-1.4-1.2-1.4c-0.5,0-1.5,1-3.8,4.5l-3.4,7.9c1.2,3.3,2.7,4.5,2.1,4.5c-0.1,0-0.3,0-0.4-0.1l3.6,4.6l2.1,2.2
			c1.4,1.3,2.5,2.1,3.6,2.9c2.2,1.7,4.2,3,6.6,6.9c-0.9-0.6-1.4-0.8-1.7-0.8c-0.8,0,0.9,2.2,2.2,4.3c0,0,0.1,0,0.2,0
			c0.3,0,0.6,0.1,1.1,0.6c0-1-1.2,0-2.6-3.2c0-0.2,0-0.3,0.1-0.3c0.6,0,2.8,2.9,3.3,3.2c0,0.6,0.4,1.2,0.3,1.8l-1.5,2.1
			c-0.8,1.3-3,5.6-4,8.8c-1.9,4.1-1.3,5.5-3.1,6.1l-8.3,0.4c1.1,1.4-5.7,1.1-8.3,2c0.2-0.4-0.1-0.5-0.8-0.5c-0.7,0-1.8,0.2-3,0.4
			c-2.2,0.4-6.4,1.1-9.1,1.1c-0.3,0-0.6,0-0.9,0l3.7,1.2l-3.9,0.3c-0.7,0.7-0.6,2.1-1,3.1l-0.8,6c-0.5,3.7-0.4,5.7-2,8.1
			c-0.4,1.1-0.6,1.5-0.7,1.5c-0.4,0,0-3.8,0.1-5.2c-3.3,6-1.6,15.7-4.7,23.8c0,0,0.2,0,0.2,0c0.3,0,0.5-0.2,0.9-0.2c0,0,0.1,0,0.1,0
			c0.3,0.2,0.5,0.4,0.5,1.1l0.1,1.3l2.2,0.9c5,3.6,11.7,8.1,11,8.1l0,0c3.2,1.4,4.3,1.4,7.5,3.8c-0.1,0-0.1,0-0.3,0
			c-0.6,0-1.9-0.7-3-1c2.4,1.5,5.6,3.2,7.1,3.8c1.1,0.5,3.5,0.5,3.1,2.4c-0.4,0.5-0.7,1.3-0.8,2.1l-0.5,5.8l0.2,6.5
			c0,0.9-0.1,1.9-0.2,2.6c0.3,1.1-1.3,1.5-2.7,2.2c-2.1,1.1-3.9,2-3.7,3c0.1,0,0.1,0,0.1,0.1c0,0,0,0-0.1-0.1c0,0-0.1,0-0.3,0
			c-0.3,0-0.7,0.1-1,0.1c-2.1,1.8-3.3,3.9-6.2,5.6l0.3-1.6c0-0.3-0.2-0.3-0.4-0.3c-0.7,0-2.3,0.8-4,1.8c-1.9,1.1-5.3,3.1-6.7,3.6
			c0.4-0.1,0.5-0.2,0.6-0.2c0.8,0-6.4,2.9-3.1,4.7l1.1,5.3c1.5,7.9,0.8,1.4,2.4,9.3c0.3,1.8,0.2,2.4-0.1,2.4c-0.4,0-1.2-1.3-1.3-2.1
			c0.1,4.2,1.1,7.1,2.4,11.2c-0.2-0.9-0.3-1.3-0.2-1.3c0,0,0.2,0.2,0.4,0.7c-0.2,0-0.1,0.5-0.1,1.1c0.5,1.5,1,3.3,1.5,5.2v0
			c0,0,0,0.2,0,0.2l0,0c-0.6-2.1-1.1-4-1.5-5.2c0.2,1.4,0.7,3.5,1.3,5.9c0.1,0.1,0.1,0.2,0.1,0.4c0.5,1.9,0.9,3.7,1,4.9l-1.2-0.7
			c-0.6,2.5,2.3,2.9,5.3,2.9c0.8,0,1.5,0,2.1-0.1c0.5,0.1,1.1,0.1,1.6,0.1c2.6,0,3.9-0.2,3.7-0.3c5.3,1,15.2,2.1,19.8,2.4
			c0.3,0,0.5-0.1,0.7-0.1c1.9,0,1.8,2.3,2.9,3.8c0.7,1.4,1.2,2.8,1.7,3.8c0.3,0.5,0.6,1.2,1,2c-0.3-0.5-0.6-1.2-1-2
			c-0.3-0.5-0.6-0.9-0.7-0.9c-0.1,0,0,0.3,0.5,0.9c1.5,3.3,4.3,7.1,3.6,7.2c0.6,1.1,0.7,1.6,0.7,2.2c0.3,0.7-0.1,1.3-1.4,2.4l0,0
			c-0.1,0,0.2,0.4,0.6,0.4c0,0,0,0,0,0c0.2-0.2,0.4-0.3,0.5-0.4c-0.2,0.3-0.3,0.3-0.5,0.4c-1.9,1.6-5.3,6.1-7.8,9.7
			c-2.9,3.9-6,8.4-11.1,14.3l1.4,2.4c0.2,0.3,0.3,0.5,0.3,0.7l-0.3-0.7c-0.5-0.7-1.4-1.7-2.2-2.5c0.1-0.4,0.3-0.8,0.4-1l-0.7,1
			c6.7,10.4,10.5,15.9,16,21.4c-0.9-0.4-1,0-2.4-1.5c2.3,2.7,5.9,8.7,8.9,11c-0.7-1.2-0.8-1.8-0.5-1.8c0.2,0,0.8,0.4,1.4,1.1
			c0.3,0.5,0.7,0.7,1.2,0.7c1.6,0,4-1.7,5.5-1.7c0.1,0,0.1,0,0.2,0l0.1,0.1l11.7-3.9c0.3-0.1,0.6-0.1,0.8-0.1c1.5,0-3.6,1.3-2.2,1.4
			c0.3,0.2,0.6,0.2,1.2,0.2c3.4,0,11.7-2.8,12-2.8c0.1,0,0.1,0,0.1,0c0.6-0.6,1.1-0.7,1.6-0.7c0.2,0,0.4,0,0.5,0
			c0.1,0,0.2,0,0.2-0.1c2.8,2.4,0.5,2,2.4,3.8c3.6,2.5,7.2,4.6,11,6.8c0.1,0.2,0.2,0.3,0.3,0.3c0,0,0,0,0,0c-0.4,0,0.6,1.8-0.2,1.8
			c-0.1,0-0.3,0-0.4-0.1c3.2,2.2,1.6,5.2,1.5,8.3l-0.2,2.6l-5.9,20.2c-0.1-0.2-0.2-0.3-0.2-0.3c-0.4,0-1.2,1.3-1.6,1.3
			c-0.2,0-0.2-0.3-0.2-0.9l-0.5,2.5l2.5,1.9l5.9,4.5l10.9,8.1c-0.8-0.9-0.9-1.3-0.5-1.3c1.3,0,8.1,4.4,9.7,4.4c0.2,0,0.3,0,0.3-0.1
			c0.8,0.4,1.5,0.9,2.2,1.4l2.1-1.6c0.3-0.2,0.7-0.3,0.9-0.3h0.1c0.3,0.1,0.4,0.4,0.7,0.4c0.2,0,0.6-0.2,1.3-0.5
			c7.1-6.5,14.7-12.1,20.4-16.9c0,0,0.1,0.2-0.2,0.6c0.1,0,0.3,0,0.3,0c2.8,0,7.1,2.8,11.8,4.3l7,2.4c1,0.4,2.3,0.6,3.2,1l0.6,2.3
			l0.1,0.5c-0.1,0-0.1,0-0.1,0c-0.1,0-0.1,0-0.2,0c-0.2,0-0.4-0.1-0.7-1.2c0.1,4.2,0.8,4.2,1.3,4.8l0.6,5l-0.7-1.3
			c1.4,5.8,0.7,11.5,2.5,18l0,0.4c0,0.1-0.1,0.1-0.1,0.1c-0.3,0-0.6-1.3-0.9-2.2l0.8,5.1c0.2,1.6,3,1,4.3,1.8c2,0.5,3.7,0.6,5.5,0.8
			c1.2,0.2,2.3,0.6,3.6,0.8c-0.1,0.3-0.4,0.5-1.5,0.5c-0.3,0-0.7-0.1-1.2-0.1c2.6,0.9,4.2,1,5.6,1c0.7,0,1.4,0,2.1,0
			c1.3,0,2.7,0.1,4.6,0.7c1.5,0.3,3.9,1.3,3.7,1.4c0.4,0,0.8,0,1.3,0c1.6,0,3.7,0.2,5.7,0.4c0.1,0,0.2-0.2,0.3-0.2
			c0.3,0,0.7,0.2,1,0.2l1.1-2.1c0.1-0.2,0.3-0.4,0.4-0.7l1.9-3.4c0.8-0.8,1.9-2.2,3.6-4.5l5.7-10.3c1.9-2.4,2.3-6.7,5.3-6.7
			c0.4,0,1,0.1,1.5,0.3c2.3,0.1,5.3,0.3,8.2,0.3c1.2,0,2.3,0,3.4-0.1l5.6-0.3l2.7-0.2l1.3,2.3l11.3,20.1l3,5.4c0.2,0,0.4,0,0.6,0
			c1.7,0,3.6-0.5,5.4-0.8c3.1-0.5,6.1-1.2,9.1-1.9c0.9-0.2,1.9-0.3,2.7-0.4c4.3,0.6-7.1,2.3-3.8,2.7c-0.4-1.3,5-1.2,14.4-4l0.5,0.2
			c3.6-1.8,8.9,0.1,7.8-6.3l-0.3,0.1c-0.4-5.4,2.9-10.2,1.4-12.9l1.4-3.4c-1-4.8,1-6.9,0.6-11.4c0-0.2-0.2-0.4,0-0.4
			c0,0.2,0,0.3,0,0.4c0,0.1,0,0.1,0.1,0.2c5-1.9,13.1-7.1,15.8-7.3c1.4-1.5,2.8-2,4.2-2c2.7,0,5.2,2.2,6.9,3.1l1.4,1.1
			c-0.2,0.2-0.5,0.3-0.8,0.3c-0.2,0-0.4-0.1-0.6-0.1c5.2,3.3,10.8,9.5,16.7,12.1l2.9,2.3c0.7-0.4,1.3-0.9,2-1.2c3,0,6-1.4,9.1-5.1
			c4.5-3,8.9-6.3,13-9.6c1.6-1.3,3.4-2.4,5.1-3.7l-9.1-31c0.5-0.7,1.1-1.4,1.7-2.1c5.4-4.8,10.6-9.9,15.4-15.4l31.2,9.1
			c7.3-9.2,13.8-18.9,19.5-29.1l-0.7-0.9l-7.3-9.6l-7.7-9.8l-3.6-4.5c-1.2-1.5,0.9-3.3,1.2-5c1.4-3.4,3-6.9,3.9-10.3l0.2-0.7
			c0.9-2.4,2.1-4.6,2.9-7l6.4-0.7c0.1,0.2,0.2,0.4,0.7,0.4c0.2,0,0.4-0.1,0.6-0.1c3.7-0.7,7.7-1.2,11.6-1.7l13-1.4
			c2.1-7.3,3.6-14.8,5-22.4c0.5-2.4,0.9-4.6,1.1-6.8c0.2-1.8,0.6-3.5,0.8-5.3l-28.6-15.6c0.2-4,0.6-8,0.6-12.1
			c0-4.2-0.3-8.1-0.6-12.2l9.7-5.3l-1.3,1c1.5-1,3.4-1.8,4.2-1.8c0.4,0,0.5,0.2,0.3,0.5l4.5-3.1l0.2,1c3.7-2.2,7.2-4,11.5-6.3
			c1.4-0.4,1.7-1.2,1.3-2.5l-0.5-3.4c-0.3-2.3-0.7-4.9-1.3-7l-0.4,3.7c-0.9-5.5-3.2-10.5-3.2-15.7c0.3,0.9,0.6,1.1,0.7,1.1
			c0.3,0,0.4-0.7,0.7-0.8c-0.4-1.2-1.1-2.4-1.3-4l1.7,1.6c-1.1-1.3-2.2-4.9-3.1-8.5c0.2-2.7-2.6-2.4-4.4-2.7c-1.7-0.3-3.2-0.4-4-0.4
			l1.1-0.2c-2.1-0.4-3-0.5-3.4-0.5c-1.1,0,2.2,1.2,0.2,1.2c-0.3,0-0.6,0-1.2-0.1c-4.7-0.8-1.6-2-5.8-3.1l-13.8-1
			c-2.3-1.5-3.5-8.2-5.1-12.6l-2.2-4.3c-0.5-1.1-1.9-2.3-0.6-3.3l5.2-8c1.3-1.8,1.9-2.2,2.2-2.2c0.3,0,0.3,0.3,0.5,0.3
			c0.2,0,0.6-0.4,1.9-2.5c0,0.5,0.3,0.7,0.8,0.7c0.3,0,0.8-0.1,1.1-0.2c-0.1-0.4,1.3-2.1,2.6-3.8c1.3-1.7,3.1-4.1,2.7-4.1
			c-0.2,0-0.7,0.4-1.6,1.2l3.1-3.8c1.2-1.3,2.5-2.5,1-4l-4.8-8.4c-2.7-4.3-5.5-8.6-8.6-12.5c-0.1-0.1-0.2-0.2-0.3-0.3
			c0.1,0.1,0.1,0.2,0.3,0.3c0.9,1.2,1.7,1.7,2.1,1.7c0.4,0,0.4-0.6-0.1-1.9c-1.5-1.3-4.5-4.5-7.6-8.3l-2.3-2.8l-4,1.2l-7.4,2.1
			c0.4,1,3.1,0.3,2.5,1.5c-1.1,0.6-3,1.6-4.9,2.1c-1-0.5-1.4-1.4-3.6-1.4c-1.2,0-2.8,0.3-5.4,1c1.4-2.3,12.5-3.5,8.7-4.1
			c0.7-0.5,2.1-1.2,3.7-2l9.2-3.1c0.5-0.1,1.4-0.5,2-0.5c0.2,0,0.3,0,0.4,0.1l1.4,2l2.6,3.6c1.6,2.2,2.8,4.1,3.3,5.1
			c1.1,1,1.6,1.4,1.8,1.4c0.2,0-0.4-0.9-1.1-1.9c-1.8-2.5-4.3-5.8-3.4-5.8h0l-4.1-5.1c-0.3-0.2-0.6-0.3-1-0.3
			c-1.5,0-3.5,1.3-5.1,1.7l-12.3,4.1c0.1,0.8,3.2,0-0.8,1.8c-3.9,2-6.7,2.5-8.7,2.5c-1.7,0-2.7-0.4-3-0.4l0,0
			c-0.1-0.2,2.1-0.9,3.1-1.3c-3.3,0.6-3.4,0.9-3.9,1.2c-0.2,0.3-0.5,0.4-0.7,0.4c-0.4,0-0.9-0.3-1.3-0.8c0.2-0.4,0.4-0.6,0.7-0.6
			s0.5,0.2,0.8,0.5c1-0.2,0.8-0.1,2.4-1.2c-0.2,0-0.3,0-0.4,0c-1.5,0-0.9-0.7-1.3-1c-0.3,0.1-0.4,0.2-0.6,0.6
			c-0.2,0.1-0.3,0.2-0.4,0.2h-0.1c0,0,0,0,0,0c0,0-0.3-0.3-2-2.3l1.3,0.3c-1.5-1.3-2.9-2.8-4.5-4c-0.5,0.5-0.4,2,3.2,5.8
			c-3.4-0.8-4.2-4.1-8.9-7.9c-0.1,0-0.2,0-0.3,0c-1.1,0,1.5,1.1,1.5,2.5c-0.1,0.1-0.2,0.1-0.3,0.1c-1,0-3.8-2.1-4.6-3.5
			c1.1-4,1.6-1.6,2.9-3.2c-0.1,1.2-0.4,2.6-1.1,2.7c0.5,0.4,1,0.6,1.3,0.6c0.8,0,1-1.2,1.7-1.2c0.1,0,0.3,0,0.4,0.2
			c0.8-1.1-0.8,0.1-0.3-2.9c-0.2,0.3-0.3,0.4-0.4,0.4c-0.3,0-0.4-0.8-0.8-0.8c-0.1,0-0.2,0.1-0.3,0.3c0.1-11.1,4-6,6.4-15.9
			c-0.1,0-0.3,0.1-0.3,0.1c-0.4,0-0.6-0.6-0.6-1.6l0.7-6.1c0.2-2.4,0.2-4-0.3-4c-0.4,0-0.9,0.8-2,2.8c0-0.7,0.5-1.5,0.3-2.1
			l-2.3-1.4c-1.4-1-2.8-1.9-3.9-2.8c0.4,0.1,0.7,0.2,0.8,0.2c1.2,0-1.9-2.4-1-2.4c0.3,0,0.9,0.3,2.2,0.9l-3.9-2.9
			c1.9,0.6,4.7,2.2,7.3,3.5c-5.2-5.1-9.7-9.2-11.4-11.2c-1.3-0.6-1.8-0.8-2.1-0.8c-0.5,0,0.2,0.8-0.3,0.8c-0.2,0-0.9-0.3-2.5-1.2
			c0.2,0.1,0.4,0.1,0.6,0.1c1.1,0-1.6-2.2-3.8-3.6c1.8,1.4,2.1,2,1.4,2c-0.9,0-3.7-1.2-6.9-2.7c-2.5-2.7-4.7-3.5-6.7-3.5
			c-3,0-5.1,1.9-5.4,1.9c-0.1,0-0.1-0.1,0-0.3c1.7-1.1,3.4-4.4,5.3-4.8c-1.2,0-1.7,1.1-2.2,1.1c0,0,0,0-0.1,0
			c-0.7,0.4-1.5,0.6-4.4,3.2l-2.8,3.9c-0.6,1.1-0.9,2-1.2,2.9c-2.5,2.5-5.1,3.3-5.9,4.1l3.9-4c-2.1,1.9-3,2.2-3.6,2.2
			c-0.3,0-0.5-0.1-0.8-0.1c-0.5,0-1.4,0.3-3.7,2.4l-0.9,2c-0.6,0.4-1.1,0.6-1.4,0.6c-0.2,0-0.2-0.1-0.2-0.3c-0.4,0.6-1.1,1.2-1.9,2
			c-0.5,0.5-0.5,0.5-0.6,0.9l-0.3-0.6c-0.1,0.5-0.3,0.9-0.8,1c0,0-0.1,0-0.1,0c-0.3,0-1.2-0.5-2.8-1.8c2.7,3,2.4,1.3,3.8,2.5
			c0.6,0.7,0.3,1-0.5,1c-0.6,0-1.5-0.2-1.8-0.4c1.1-1.4-7.5-3.6-11.1-4.9c-0.8-0.9-1-1.3-1.1-1.7c-0.4,0.2-0.9,0.5-1.2,0.5
			c1-1.1,0.8-1.4,0.4-2c-0.4-1.2-1.3-4.5-1.2-6.4c0.4,0.9,0.8,1.3,1.1,1.3c0.4,0,0.7-0.9,0.7-2.7c-0.2,0.7-0.4,1-0.6,1
			c-1,0-2.2-6.1-3-6.1c-0.1,0-0.1,0-0.2,0.1c-0.1-2.4,0.1-3.1,0.4-3.1c0.6,0,1.7,2.7,2.4,2.7c0.1,0,0.3-0.2,0.4-0.4
			c-0.8-1.8-0.8-4-0.9-6c-0.2-3.2-0.5-6.9-1.5-8.5c0.2,3,0.1,4-0.1,4c-0.3,0-1.3-5.5-1.9-6.2c-4.6-1.4-4.3-1.5-3.5-1.5
			c0.2,0,0.4,0,0.6,0c0.8,0,1.4-0.1-1.5-1.2c-2.1-0.4-4.3-0.7-5.6-0.7c-1.8,0-2.1,0.5,1.3,1.7c-6-2-9.4-1-14.2-3
			c-0.4-0.3-0.1-0.4,0.3-0.4c1.4,0,4.9,0.8,5.9,0.8c0.3,0,0.4-0.1-0.2-0.4c-2.3-0.5-3.8-0.7-4.9-0.7c-2.7,0-2.7,1.2-6.2,1.2
			c-0.9,0-2.1-0.1-3.5-0.3c4.3,1.3-0.3,2.3-4.5,2.4c-10.4-2,4.3-0.1,0.2-2l-4.5-0.4c-1.5-0.2-1.4,0.2-1.3-1.4
			c0.5-0.6,2.4-0.5,4.2-0.7c3.8-0.2,8.3-0.2,4.5-1.5l-6.2-0.3C25.2-232.1,27.2-232.9,24.3-233.7L24.3-233.7z M-1.7,126.4
			c-67.1,0-121.6-54.5-121.6-121.5c0-67.1,54.5-121.7,121.6-121.7c67.1,0,121.6,54.6,121.6,121.7C119.9,71.9,65.4,126.4-1.7,126.4
			L-1.7,126.4z M216.2-58.8l-1.8-0.2c0.2-0.1,0.3-0.1,0.4-0.1C215.5-59.1,215.8-58.9,216.2-58.8L216.2-58.8z M224-23.5
			c-0.7,1.4-8,5.7-9.9,5.8c0,0-0.1,0-0.1,0c-0.3,0-0.1-0.2-0.2-0.3l5.4-2.9c0,0.1-0.1,0.3,0.1,0.4c1.2-0.9,1.9-1.4,2.6-1.9L224-23.5
			L224-23.5z M-227.3,69.7c-0.5,0-1-0.1-1.5-0.2c0.3,0,0.6,0,0.9,0.1C-227.7,69.6-227.6,69.6-227.3,69.7L-227.3,69.7z M85.9-190.4
			c-0.2,0.2-0.3,0.4-0.3,0.5C85.8-190.1,85.9-190.2,85.9-190.4L85.9-190.4z M139.4-155.3c-0.4,1.2-0.6,2.1-0.7,2.8
			C138.9-153,139.1-153.9,139.4-155.3L139.4-155.3z M-192.4-138.5l-0.1,0.1C-192.4-138.4-192.4-138.5-192.4-138.5L-192.4-138.5z
			 M223.5-49.4c0.2,0.2,0.3,0.4,0.5,0.4L223.5-49.4L223.5-49.4z M205.1-12.8c-0.5,0.3-1.1,0.8-1.5,1.2L205.1-12.8L205.1-12.8z
			 M-235.9,26.7c-0.2,0-0.4,0.1-0.6,0.2l0,0C-236.4,26.9-236.1,26.8-235.9,26.7L-235.9,26.7z M-142.9,152.2c0.4,0.3,0.7,0.4,0.9,0.5
			C-142.2,152.6-142.5,152.4-142.9,152.2L-142.9,152.2z M-40.5,233c0,0-0.1,0-0.2,0C-40.6,233-40.6,233-40.5,233
			C-40.5,233-40.5,233-40.5,233L-40.5,233z"/>
	</g>
	<g id="Layer_5" style="clip-path:url(#SVGID_00000137093196103411055940000008471693480510866605_);">
		<g class="st5">
			<polygon class="st6" points="-23.8,270.6 31.9,202.7 87.7,270.6 			"/>
			<polygon class="st7" points="87.7,77.6 31.9,202.7 -23.8,77.6 			"/>
			<polygon class="st8" points="87.7,270.6 31.9,202.7 152.5,186 			"/>
			<polygon class="st6" points="-23.8,77.6 31.9,202.7 -79.5,174.1 			"/>
			<polygon class="st9" points="152.5,186 31.9,202.7 87.7,77.6 			"/>
			<polygon class="st8" points="-79.5,174.1 31.9,202.7 -23.8,270.6 			"/>
			<polygon class="st10" points="254.8,-18.9 231.3,85.3 143.4,-18.9 			"/>
			<polygon class="st11" points="143.4,-18.9 231.3,85.3 87.7,77.6 			"/>
			<polygon class="st12" points="87.7,77.6 231.3,85.3 152.5,186 			"/>
			<polygon class="st13" points="87.7,77.6 31.9,-18.9 143.4,-18.9 			"/>
		</g>
		<g class="st5">
			<polygon class="st13" points="476,665.3 518,518 589.9,649.3 			"/>
			<polygon class="st14" points="605.3,392.7 518,518 457.3,421.5 			"/>
			<polygon class="st14" points="589.9,649.3 518,518 651.1,543.3 			"/>
			<polygon class="st13" points="457.3,421.5 518,518 414,578.7 			"/>
			<polygon class="st10" points="651.1,543.3 518,518 605.3,392.7 			"/>
			<polygon class="st15" points="414,578.7 518,518 476,665.3 			"/>
			<polygon class="st8" points="272,787 341.9,671.3 406.3,755.3 			"/>
			<polygon class="st12" points="414,578.7 341.9,671.3 269.9,543.3 			"/>
			<polygon class="st7" points="406.3,755.3 341.9,671.3 476,665.3 			"/>
			<polygon class="st16" points="269.9,543.3 341.9,671.3 194.7,632 			"/>
			<polygon class="st9" points="476,665.3 341.9,671.3 414,578.7 			"/>
			<polygon class="st9" points="194.7,632 341.9,671.3 272,787 			"/>
			<polygon class="st15" points="269.9,543.3 345.1,460 414,578.7 			"/>
			<polygon class="st11" points="414,578.7 345.1,460 457.3,421.5 			"/>
			<polygon class="st6" points="406.3,755.3 381.5,858.2 272,787 			"/>
			<polygon class="st8" points="272,787 381.5,858.2 222.7,861.3 			"/>
			<polygon class="st6" points="222.7,861.3 134.7,767.8 272,787 			"/>
			<polygon class="st7" points="272,787 134.7,767.8 194.7,632 			"/>
		</g>
	</g>
	<g id="text" style="clip-path:url(#SVGID_00000137093196103411055940000008471693480510866605_);">
		<g>
			<path class="st17" d="M56.6,303.9v-25.6h8.3c3.1,0,5.2,0.1,6.2,0.4c1.5,0.4,2.7,1.2,3.7,2.5s1.5,3,1.5,5c0,1.6-0.3,2.9-0.9,4
				c-0.6,1.1-1.3,1.9-2.2,2.5s-1.8,1-2.7,1.2c-1.2,0.2-3,0.4-5.4,0.4h-3.4v9.7L56.6,303.9L56.6,303.9z M61.8,282.6v7.3h2.8
				c2,0,3.4-0.1,4.1-0.4c0.7-0.3,1.2-0.7,1.6-1.3c0.4-0.6,0.6-1.2,0.6-2c0-0.9-0.3-1.7-0.8-2.3c-0.5-0.6-1.2-1-2.1-1.1
				c-0.6-0.1-1.9-0.2-3.7-0.2H61.8z"/>
			<path class="st17" d="M80.5,303.9v-25.6h10.9c2.7,0,4.7,0.2,6,0.7c1.2,0.5,2.2,1.3,3,2.5s1.1,2.5,1.1,4c0,1.9-0.6,3.5-1.7,4.8
				s-2.8,2-5.1,2.4c1.1,0.7,2,1.4,2.8,2.1c0.7,0.8,1.7,2.2,2.9,4.2l3.1,5h-6.2l-3.7-5.6c-1.3-2-2.2-3.2-2.7-3.8
				c-0.5-0.5-1-0.9-1.6-1.1c-0.5-0.2-1.4-0.3-2.6-0.3h-1v10.7L80.5,303.9L80.5,303.9z M85.7,289.1h3.8c2.5,0,4-0.1,4.6-0.3
				s1.1-0.6,1.5-1.1s0.5-1.2,0.5-1.9c0-0.9-0.2-1.6-0.7-2.1c-0.5-0.5-1.1-0.9-1.9-1c-0.4-0.1-1.7-0.1-3.8-0.1h-4L85.7,289.1
				L85.7,289.1z"/>
			<path class="st17" d="M129.4,303.9h-5.6l-2.2-5.8h-10.2l-2.1,5.8h-5.5l10-25.6h5.5L129.4,303.9z M119.9,293.8l-3.5-9.5l-3.5,9.5
				H119.9z"/>
			<path class="st17" d="M148.6,294.5l5,1.6c-0.8,2.8-2,4.9-3.8,6.2c-1.8,1.4-4.1,2-6.8,2c-3.4,0-6.2-1.2-8.4-3.5
				c-2.2-2.3-3.3-5.5-3.3-9.5c0-4.3,1.1-7.6,3.3-9.9c2.2-2.4,5.1-3.5,8.7-3.5c3.1,0,5.7,0.9,7.6,2.8c1.2,1.1,2,2.7,2.6,4.7l-5.1,1.2
				c-0.3-1.3-0.9-2.4-1.9-3.1c-1-0.8-2.1-1.2-3.5-1.2c-1.9,0-3.4,0.7-4.6,2s-1.8,3.6-1.8,6.6c0,3.2,0.6,5.5,1.7,6.9
				c1.2,1.4,2.7,2.1,4.5,2.1c1.4,0,2.6-0.4,3.5-1.3S148.1,296.4,148.6,294.5z"/>
			<path class="st17" d="M163.8,303.9v-21.3h-7.6v-4.3h20.4v4.3H169v21.3H163.8z"/>
			<path class="st17" d="M179.7,303.9v-25.6h5.2v25.6H179.7z"/>
			<path class="st17" d="M206.2,294.5l5,1.6c-0.8,2.8-2,4.9-3.8,6.2c-1.8,1.4-4.1,2-6.8,2c-3.4,0-6.2-1.2-8.4-3.5
				c-2.2-2.3-3.3-5.5-3.3-9.5c0-4.3,1.1-7.6,3.3-9.9c2.2-2.4,5.1-3.5,8.7-3.5c3.1,0,5.7,0.9,7.6,2.8c1.2,1.1,2,2.7,2.6,4.7l-5.1,1.2
				c-0.3-1.3-0.9-2.4-1.9-3.1c-1-0.8-2.1-1.2-3.5-1.2c-1.9,0-3.4,0.7-4.6,2s-1.8,3.6-1.8,6.6c0,3.2,0.6,5.5,1.7,6.9
				c1.2,1.4,2.7,2.1,4.5,2.1c1.4,0,2.6-0.4,3.5-1.3S205.8,296.4,206.2,294.5z"/>
			<path class="st17" d="M238.8,303.9h-5.6l-2.2-5.8h-10.2l-2.1,5.8h-5.5l10-25.6h5.5L238.8,303.9z M229.3,293.8l-3.5-9.5l-3.5,9.5
				H229.3z"/>
			<path class="st17" d="M241.7,303.9v-25.4h5.2v21.1h12.9v4.3H241.7z"/>
			<path class="st17" d="M56.4,346.9v-25.6h5.2v25.6H56.4z"/>
			<path class="st17" d="M66.5,321.3H76c2.1,0,3.8,0.2,4.9,0.5c1.5,0.4,2.8,1.2,3.9,2.4s1.9,2.5,2.4,4.2c0.6,1.6,0.8,3.7,0.8,6.1
				c0,2.1-0.3,3.9-0.8,5.5c-0.6,1.9-1.6,3.4-2.7,4.5c-0.9,0.9-2.1,1.6-3.6,2c-1.1,0.4-2.7,0.5-4.6,0.5h-9.7L66.5,321.3L66.5,321.3z
				 M71.7,325.6v17h3.9c1.4,0,2.5-0.1,3.1-0.2c0.8-0.2,1.5-0.6,2.1-1.1c0.6-0.5,1-1.3,1.4-2.5c0.3-1.1,0.5-2.7,0.5-4.7
				s-0.2-3.5-0.5-4.6c-0.3-1.1-0.8-1.9-1.5-2.5s-1.4-1-2.4-1.2c-0.7-0.2-2.1-0.2-4.2-0.2L71.7,325.6L71.7,325.6z"/>
			<path class="st17" d="M92.4,346.9v-25.6h19v4.3H97.6v5.7h12.9v4.3H97.6v7h14.3v4.3L92.4,346.9L92.4,346.9z"/>
			<path class="st17" d="M116.3,346.9v-25.6h5l10.5,17.1v-17.1h4.8v25.6h-5.2l-10.3-16.7v16.7L116.3,346.9L116.3,346.9z"/>
			<path class="st17" d="M147.9,346.9v-21.3h-7.6v-4.3h20.4v4.3h-7.6v21.3H147.9z"/>
			<path class="st17" d="M163.8,346.9v-25.6h5.2v25.6H163.8z"/>
			<path class="st17" d="M179.7,346.9v-21.3h-7.6v-4.3h20.4v4.3h-7.6v21.3H179.7z"/>
			<path class="st17" d="M202.5,346.9v-10.8l-9.4-14.8h6.1l6,10.1l5.9-10.1h6l-9.4,14.9v10.8L202.5,346.9L202.5,346.9z"/>
			<path class="st17" d="M228.9,346.9v-25.6h7.7l4.6,17.5l4.6-17.5h7.8v25.6h-4.8v-20.2l-5.1,20.2h-5l-5.1-20.2v20.2H228.9z"/>
			<path class="st17" d="M281.9,346.9h-5.6l-2.2-5.8h-10.2l-2.1,5.8h-5.5l10-25.6h5.5L281.9,346.9z M272.4,336.7l-3.5-9.5l-3.5,9.5
				H272.4z"/>
			<path class="st17" d="M284.7,346.9v-25.6h5l10.5,17.1v-17.1h4.8v25.6h-5.2l-10.3-16.7v16.7L284.7,346.9L284.7,346.9z"/>
			<path class="st17" d="M333.6,346.9H328l-2.2-5.8h-10.2l-2.1,5.8h-5.5l10-25.6h5.5L333.6,346.9z M324.1,336.7l-3.5-9.5l-3.5,9.5
				H324.1z"/>
			<path class="st17" d="M348.3,337.5v-4.3h11.2v10.2c-1.1,1-2.7,2-4.7,2.8s-4.1,1.2-6.2,1.2c-2.7,0-5-0.6-7-1.7s-3.5-2.7-4.5-4.8
				c-1-2.1-1.5-4.4-1.5-6.8c0-2.7,0.6-5,1.7-7.1c1.1-2.1,2.8-3.7,4.9-4.8c1.6-0.9,3.7-1.3,6.1-1.3c3.2,0,5.7,0.7,7.5,2
				c1.8,1.3,2.9,3.2,3.5,5.5l-5.1,1c-0.4-1.3-1-2.3-2-3s-2.2-1.1-3.7-1.1c-2.3,0-4.1,0.7-5.4,2.1s-2,3.6-2,6.4c0,3,0.7,5.3,2,6.8
				s3.1,2.3,5.3,2.3c1.1,0,2.2-0.2,3.3-0.6s2-0.9,2.8-1.5v-3.3L348.3,337.5L348.3,337.5z"/>
			<path class="st17" d="M364.2,346.9v-25.6h19v4.3h-13.8v5.7h12.9v4.3h-12.9v7h14.3v4.3L364.2,346.9L364.2,346.9z"/>
			<path class="st17" d="M388,346.9v-25.6h7.7l4.6,17.5l4.6-17.5h7.8v25.6h-4.8v-20.2l-5.1,20.2h-5l-5.1-20.2v20.2H388z"/>
			<path class="st17" d="M417.9,346.9v-25.6h19v4.3h-13.8v5.7h12.9v4.3h-12.9v7h14.3v4.3L417.9,346.9L417.9,346.9z"/>
			<path class="st17" d="M441.8,346.9v-25.6h5l10.5,17.1v-17.1h4.8v25.6H457l-10.3-16.7v16.7L441.8,346.9L441.8,346.9z"/>
			<path class="st17" d="M473.4,346.9v-21.3h-7.6v-4.3h20.4v4.3h-7.6v21.3H473.4z"/>
			<path class="st17" d="M60.2,389.8l-6.1-25.6h5.3l3.9,17.6l4.7-17.6h6.2l4.5,17.9l3.9-17.9h5.2l-6.2,25.6H76l-5.1-19.2l-5.1,19.2
				H60.2z"/>
			<path class="st17" d="M90.2,389.8v-25.6h5.2v25.6H90.2z"/>
			<path class="st17" d="M106.1,389.8v-21.3h-7.6v-4.3h20.4v4.3h-7.6v21.3H106.1z"/>
			<path class="st17" d="M122.2,389.8v-25.6h5.2v10.1h10.1v-10.1h5.2v25.6h-5.2v-11.2h-10.1v11.2H122.2z"/>
			<path class="st17" d="M157.9,389.8v-25.6h7.7l4.6,17.5l4.6-17.5h7.8v25.6h-4.8v-20.2l-5.1,20.2h-5l-5.1-20.2v20.2H157.9z"/>
			<path class="st17" d="M187.7,389.8v-25.6h5.2v25.6H187.7z"/>
			<path class="st17" d="M197.7,364.2h9.5c2.1,0,3.8,0.2,4.9,0.5c1.5,0.4,2.8,1.2,3.9,2.4s1.9,2.5,2.4,4.2c0.6,1.6,0.8,3.7,0.8,6.1
				c0,2.1-0.3,3.9-0.8,5.5c-0.6,1.9-1.6,3.4-2.7,4.5c-0.9,0.9-2.1,1.6-3.6,2c-1.1,0.4-2.7,0.5-4.6,0.5h-9.7L197.7,364.2L197.7,364.2
				z M202.9,368.5v17h3.9c1.4,0,2.5-0.1,3.1-0.2c0.8-0.2,1.5-0.6,2.1-1.1c0.6-0.5,1-1.3,1.4-2.5c0.4-1.1,0.5-2.7,0.5-4.7
				s-0.2-3.5-0.5-4.6c-0.4-1.1-0.8-1.9-1.5-2.5s-1.4-1-2.4-1.2c-0.7-0.2-2.1-0.2-4.2-0.2L202.9,368.5L202.9,368.5z"/>
			<path class="st17" d="M223.6,389.8v-25.6h8.3c3.1,0,5.2,0.1,6.2,0.4c1.5,0.4,2.7,1.2,3.7,2.5s1.5,3,1.5,5c0,1.6-0.3,2.9-0.9,4
				c-0.6,1.1-1.3,1.9-2.2,2.5s-1.8,1-2.7,1.2c-1.2,0.2-3,0.4-5.4,0.4h-3.4v9.7L223.6,389.8L223.6,389.8z M228.8,368.5v7.3h2.8
				c2,0,3.4-0.1,4.1-0.4c0.7-0.3,1.2-0.7,1.6-1.3c0.4-0.6,0.6-1.2,0.6-2c0-0.9-0.3-1.7-0.8-2.3c-0.5-0.6-1.2-1-2.1-1.1
				c-0.6-0.1-1.9-0.2-3.7-0.2H228.8z"/>
			<path class="st17" d="M246.4,377.2c0-2.6,0.4-4.8,1.2-6.6c0.6-1.3,1.4-2.5,2.4-3.5s2.1-1.8,3.3-2.3c1.6-0.7,3.4-1,5.5-1
				c3.8,0,6.8,1.2,9.1,3.5c2.3,2.3,3.4,5.6,3.4,9.8c0,4.1-1.1,7.4-3.4,9.7s-5.3,3.5-9,3.5c-3.8,0-6.8-1.2-9.1-3.5
				C247.6,384.5,246.4,381.3,246.4,377.2z M251.8,377c0,2.9,0.7,5.1,2,6.6c1.3,1.5,3,2.2,5.1,2.2s3.8-0.7,5.1-2.2
				c1.3-1.5,2-3.7,2-6.7c0-2.9-0.6-5.1-1.9-6.6s-3-2.2-5.1-2.2s-3.9,0.7-5.2,2.2C252.4,371.8,251.8,374.1,251.8,377z"/>
			<path class="st17" d="M275.2,389.8v-25.6h5.2v25.6H275.2z"/>
			<path class="st17" d="M285.3,389.8v-25.6h5l10.5,17.1v-17.1h4.8v25.6h-5.2l-10.3-16.7v16.7L285.3,389.8L285.3,389.8z"/>
			<path class="st17" d="M316.9,389.8v-21.3h-7.6v-4.3h20.4v4.3h-7.6v21.3H316.9z"/>
		</g>
		<g>
			<g>
				<path class="st17" d="M55,418.2v-12.4h4.6c0.9,0,1.7,0.1,2.3,0.4c0.6,0.3,1,0.6,1.3,1.2c0.3,0.5,0.5,1.1,0.5,1.6
					c0,0.5-0.1,1-0.4,1.5c-0.3,0.5-0.7,0.8-1.3,1.1c0.7,0.2,1.3,0.6,1.7,1.1c0.4,0.5,0.6,1.2,0.6,1.9c0,0.6-0.1,1.1-0.4,1.6
					c-0.2,0.5-0.5,0.9-0.9,1.2c-0.4,0.3-0.8,0.5-1.4,0.6c-0.5,0.1-1.2,0.2-2,0.2L55,418.2L55,418.2z M56.6,411h2.7
					c0.7,0,1.2,0,1.6-0.1c0.4-0.1,0.7-0.3,0.9-0.6c0.2-0.3,0.3-0.6,0.3-1.1c0-0.4-0.1-0.8-0.3-1.1s-0.5-0.5-0.8-0.6
					c-0.4-0.1-1-0.2-1.9-0.2h-2.5V411z M56.6,416.8h3.1c0.5,0,0.9,0,1.1-0.1c0.4-0.1,0.7-0.2,0.9-0.3c0.3-0.2,0.5-0.4,0.6-0.7
					s0.2-0.6,0.2-1c0-0.5-0.1-0.9-0.4-1.2c-0.2-0.3-0.6-0.6-1-0.7c-0.4-0.1-1-0.2-1.8-0.2h-2.9L56.6,416.8L56.6,416.8z"/>
				<path class="st17" d="M70.1,418.2V413l-4.8-7.1h2l2.4,3.7c0.5,0.7,0.9,1.4,1.3,2.1c0.4-0.6,0.8-1.4,1.4-2.2l2.4-3.6h1.9
					l-4.9,7.1v5.2H70.1z"/>
				<path class="st17" d="M82.7,418.2v-12.4h5.5c1.1,0,1.9,0.1,2.5,0.3s1,0.6,1.4,1.2c0.3,0.6,0.5,1.2,0.5,1.9
					c0,0.9-0.3,1.6-0.9,2.2s-1.4,1-2.6,1.1c0.4,0.2,0.8,0.4,1,0.6c0.5,0.4,0.9,1,1.4,1.6l2.2,3.4h-2.1l-1.6-2.6
					c-0.5-0.7-0.9-1.3-1.2-1.7c-0.3-0.4-0.6-0.7-0.8-0.8c-0.2-0.2-0.5-0.3-0.7-0.3c-0.2,0-0.5-0.1-0.9-0.1h-1.9v5.5L82.7,418.2
					L82.7,418.2z M84.3,411.3h3.5c0.7,0,1.3-0.1,1.8-0.2c0.4-0.2,0.7-0.4,1-0.7s0.3-0.7,0.3-1.1c0-0.6-0.2-1.1-0.6-1.4
					c-0.4-0.4-1.1-0.6-2-0.6h-3.9L84.3,411.3L84.3,411.3z"/>
				<path class="st17" d="M93.8,418.2l4.8-12.4h1.8l5.1,12.4h-1.9l-1.4-3.8h-5.2l-1.4,3.8H93.8z M97.3,413.1h4.2l-1.3-3.4
					c-0.4-1-0.7-1.9-0.9-2.6c-0.2,0.8-0.4,1.6-0.7,2.4L97.3,413.1z"/>
				<path class="st17" d="M106.7,418.2v-12.4h4.3c1,0,1.7,0.1,2.2,0.2c0.7,0.2,1.3,0.5,1.8,0.9c0.7,0.6,1.1,1.3,1.5,2.1
					c0.3,0.9,0.5,1.8,0.5,2.9c0,0.9-0.1,1.8-0.3,2.5c-0.2,0.7-0.5,1.3-0.8,1.8c-0.3,0.5-0.7,0.9-1.1,1.1c-0.4,0.3-0.9,0.5-1.5,0.6
					c-0.6,0.1-1.2,0.2-2,0.2H106.7z M108.3,416.8h2.6c0.8,0,1.5-0.1,1.9-0.2c0.5-0.2,0.8-0.4,1.1-0.6c0.4-0.4,0.7-0.9,0.9-1.6
					s0.3-1.5,0.3-2.4c0-1.3-0.2-2.3-0.6-3c-0.4-0.7-0.9-1.2-1.6-1.4c-0.4-0.2-1.1-0.3-2.1-0.3h-2.6L108.3,416.8L108.3,416.8z"/>
				<path class="st17" d="M118.7,412.2c0-2.1,0.6-3.7,1.7-4.8s2.5-1.7,4.3-1.7c1.1,0,2.2,0.3,3.1,0.8c0.9,0.5,1.6,1.3,2.1,2.3
					c0.5,1,0.7,2.1,0.7,3.3c0,1.3-0.3,2.4-0.8,3.4c-0.5,1-1.2,1.7-2.2,2.3c-0.9,0.5-1.9,0.8-3,0.8c-1.2,0-2.2-0.3-3.1-0.8
					c-0.9-0.6-1.6-1.3-2.1-2.3S118.7,413.3,118.7,412.2z M120.4,412.2c0,1.5,0.4,2.7,1.2,3.5c0.8,0.9,1.8,1.3,3,1.3
					c1.2,0,2.2-0.4,3-1.3c0.8-0.9,1.2-2.1,1.2-3.7c0-1-0.2-1.9-0.5-2.6s-0.8-1.3-1.5-1.7s-1.4-0.6-2.2-0.6c-1.2,0-2.2,0.4-3,1.2
					C120.8,409,120.4,410.4,120.4,412.2z"/>
				<path class="st17" d="M136.2,418.2l-4.8-12.4h1.8l3.2,9c0.3,0.7,0.5,1.4,0.7,2c0.2-0.7,0.4-1.4,0.7-2l3.3-9h1.7l-4.9,12.4H136.2
					z"/>
				<path class="st17" d="M141.5,418.2l4.8-12.4h1.8l5.1,12.4h-1.9l-1.4-3.8h-5.2l-1.4,3.8H141.5z M145.1,413.1h4.2l-1.3-3.4
					c-0.4-1-0.7-1.9-0.9-2.6c-0.2,0.8-0.4,1.6-0.7,2.4L145.1,413.1z"/>
				<path class="st17" d="M154.4,418.2v-12.4h1.7l6.5,9.7v-9.7h1.6v12.4h-1.7l-6.5-9.7v9.7H154.4z"/>
				<path class="st17" d="M171.2,414.2l1.5-0.1c0.1,0.6,0.2,1.1,0.5,1.5s0.7,0.7,1.2,1c0.6,0.2,1.2,0.4,1.9,0.4
					c0.6,0,1.2-0.1,1.7-0.3s0.8-0.4,1.1-0.8s0.4-0.7,0.4-1.1c0-0.4-0.1-0.7-0.3-1c-0.2-0.3-0.6-0.5-1.1-0.7
					c-0.3-0.1-1.1-0.3-2.2-0.6c-1.1-0.3-1.9-0.5-2.4-0.8c-0.6-0.3-1-0.7-1.3-1.2c-0.3-0.5-0.4-1-0.4-1.5c0-0.6,0.2-1.2,0.5-1.8
					c0.4-0.5,0.9-1,1.6-1.2c0.7-0.3,1.4-0.4,2.3-0.4c0.9,0,1.7,0.1,2.4,0.4c0.7,0.3,1.2,0.7,1.6,1.3c0.4,0.6,0.6,1.2,0.6,2l-1.6,0.1
					c-0.1-0.8-0.4-1.4-0.9-1.8c-0.5-0.4-1.2-0.6-2.2-0.6c-1,0-1.7,0.2-2.2,0.5c-0.5,0.4-0.7,0.8-0.7,1.3c0,0.4,0.2,0.8,0.5,1.1
					c0.3,0.3,1.1,0.6,2.5,0.9c1.3,0.3,2.2,0.6,2.7,0.8c0.7,0.3,1.3,0.8,1.6,1.3s0.5,1.1,0.5,1.8c0,0.7-0.2,1.3-0.6,1.9
					s-0.9,1-1.6,1.4c-0.7,0.3-1.5,0.5-2.4,0.5c-1.1,0-2.1-0.2-2.8-0.5c-0.8-0.3-1.4-0.8-1.8-1.5
					C171.4,415.8,171.2,415.1,171.2,414.2z"/>
				<path class="st17" d="M183.3,418.2v-12.4h9v1.5H185v3.8h6.9v1.5H185v4.2h7.6v1.5L183.3,418.2L183.3,418.2z"/>
				<path class="st17" d="M194.8,418.2v-12.4h2.5l2.9,8.8c0.3,0.8,0.5,1.4,0.6,1.8c0.1-0.5,0.4-1.1,0.7-2l3-8.6h2.2v12.4H205v-10.4
					l-3.6,10.4h-1.5l-3.6-10.5v10.5L194.8,418.2L194.8,418.2z"/>
				<path class="st17" d="M207.9,418.2l4.8-12.4h1.8l5.1,12.4h-1.9l-1.4-3.8H211l-1.4,3.8H207.9z M211.4,413.1h4.2l-1.3-3.4
					c-0.4-1-0.7-1.9-0.9-2.6c-0.2,0.8-0.4,1.6-0.7,2.4L211.4,413.1z"/>
				<path class="st17" d="M220.8,418.2v-12.4h1.7l6.5,9.7v-9.7h1.6v12.4h-1.7l-6.5-9.7v9.7H220.8z"/>
				<path class="st17" d="M242.1,413.9l1.6,0.4c-0.3,1.3-1,2.4-1.9,3.1c-0.9,0.7-2,1.1-3.3,1.1c-1.3,0-2.4-0.3-3.3-0.8
					c-0.8-0.5-1.5-1.3-1.9-2.4s-0.7-2.1-0.7-3.3c0-1.3,0.2-2.4,0.7-3.4c0.5-1,1.2-1.7,2.1-2.2c0.9-0.5,1.9-0.7,3-0.7
					c1.2,0,2.3,0.3,3.1,0.9s1.4,1.5,1.8,2.7l-1.6,0.4c-0.3-0.9-0.7-1.6-1.3-2s-1.2-0.6-2.1-0.6c-1,0-1.7,0.2-2.4,0.7
					c-0.6,0.5-1.1,1.1-1.3,1.8s-0.4,1.6-0.4,2.4c0,1.1,0.2,2,0.5,2.8s0.8,1.4,1.4,1.8c0.6,0.4,1.3,0.6,2.1,0.6
					c0.9,0,1.7-0.3,2.3-0.8C241.5,415.7,241.9,414.9,242.1,413.9z M238.6,404.2l0.9-1.4h1.7l-1.9,2.4h-1.6l-1.8-2.4h1.7L238.6,404.2
					z"/>
				<path class="st17" d="M245.6,405.1l1.1-2.4h2l-1.9,2.4H245.6z M246.1,418.2v-12.4h1.6v12.4H246.1z"/>
				<path class="st17" d="M250.5,418.2v-12.4h1.6v6.1l6.2-6.1h2.2l-5.2,5l5.4,7.4h-2.2l-4.4-6.3l-2,2v4.3H250.5z"/>
				<path class="st17" d="M267,418.2v-12.4h9v1.5h-7.3v3.8h6.9v1.5h-6.9v4.2h7.6v1.5L267,418.2L267,418.2z"/>
				<path class="st17" d="M281.6,418.2v-10.9h-4.1v-1.5h9.8v1.5h-4.1v10.9H281.6z"/>
				<path class="st17" d="M291.2,418.2l4.8-12.4h1.8l5.1,12.4H301l-1.4-3.8h-5.2l-1.4,3.8H291.2z M294.8,413.1h4.2l-1.3-3.4
					c-0.4-1-0.7-1.9-0.9-2.6c-0.2,0.8-0.4,1.6-0.7,2.4L294.8,413.1z"/>
				<path class="st17" d="M304.1,418.2v-12.4h1.6v10.9h6.1v1.5H304.1z"/>
				<path class="st17" d="M314,418.2v-1.7h1.7v1.7H314z"/>
			</g>
		</g>
		<g>
			<g>
				<path class="st17" d="M461.3,786.8l4.1-10.7h1.5l4.4,10.7h-1.6l-1.3-3.3H464l-1.2,3.3H461.3z M464.4,782.3h3.6l-1.1-3
					c-0.3-0.9-0.6-1.6-0.8-2.2c-0.1,0.7-0.3,1.4-0.6,2.1L464.4,782.3z"/>
				<path class="st17" d="M472.5,786.8V776h4.1c0.7,0,1.3,0,1.6,0.1c0.5,0.1,1,0.3,1.3,0.5c0.4,0.2,0.6,0.6,0.9,1
					c0.2,0.4,0.3,0.9,0.3,1.5c0,0.9-0.3,1.7-0.9,2.3c-0.6,0.6-1.6,0.9-3.1,0.9h-2.8v4.4H472.5z M473.9,781.1h2.8
					c0.9,0,1.6-0.2,2-0.5s0.6-0.8,0.6-1.4c0-0.4-0.1-0.8-0.3-1.2c-0.2-0.3-0.5-0.5-0.9-0.6c-0.2-0.1-0.7-0.1-1.3-0.1h-2.7V781.1z"/>
				<path class="st17" d="M482.5,786.8V776h4.8c1,0,1.7,0.1,2.2,0.3c0.5,0.2,0.9,0.5,1.2,1s0.4,1,0.4,1.6c0,0.8-0.2,1.4-0.7,1.9
					s-1.3,0.9-2.3,1c0.4,0.2,0.7,0.4,0.9,0.5c0.4,0.4,0.8,0.9,1.2,1.4l1.9,2.9h-1.8l-1.4-2.2c-0.4-0.6-0.8-1.1-1-1.5
					s-0.5-0.6-0.7-0.7c-0.2-0.1-0.4-0.2-0.6-0.3c-0.2,0-0.4-0.1-0.8-0.1h-1.6v4.8H482.5z M483.9,780.8h3.1c0.6,0,1.2-0.1,1.5-0.2
					c0.4-0.1,0.6-0.3,0.8-0.6c0.2-0.3,0.3-0.6,0.3-1c0-0.5-0.2-0.9-0.6-1.3c-0.4-0.3-1-0.5-1.7-0.5h-3.4V780.8z"/>
				<path class="st17" d="M493.6,786.8V776h1.4v10.7H493.6z"/>
				<path class="st17" d="M497.4,786.8V776h1.4v9.5h5.3v1.3H497.4z"/>
				<path class="st17" d="M515.8,785.5v1.3h-7.1c0-0.3,0-0.6,0.2-0.9c0.2-0.5,0.5-1,0.9-1.4c0.4-0.5,1-1,1.7-1.6
					c1.2-1,2-1.7,2.4-2.3c0.4-0.6,0.6-1.1,0.6-1.6c0-0.5-0.2-1-0.6-1.3c-0.4-0.4-0.9-0.5-1.5-0.5c-0.6,0-1.1,0.2-1.5,0.6
					s-0.6,0.9-0.6,1.6l-1.4-0.1c0.1-1,0.4-1.8,1-2.3c0.6-0.5,1.4-0.8,2.4-0.8c1,0,1.8,0.3,2.4,0.9c0.6,0.6,0.9,1.3,0.9,2.1
					c0,0.4-0.1,0.9-0.3,1.3s-0.5,0.9-0.9,1.3c-0.4,0.5-1.1,1.1-2,1.9c-0.8,0.7-1.3,1.1-1.5,1.4c-0.2,0.2-0.4,0.5-0.6,0.7H515.8z"/>
				<path class="st17" d="M517.3,781.5c0-1.3,0.1-2.3,0.4-3.1c0.3-0.8,0.6-1.4,1.2-1.8c0.5-0.4,1.2-0.6,1.9-0.6
					c0.6,0,1.1,0.1,1.5,0.3c0.4,0.2,0.8,0.6,1.1,1c0.3,0.4,0.5,1,0.7,1.6c0.2,0.6,0.2,1.5,0.2,2.5c0,1.3-0.1,2.3-0.4,3
					c-0.3,0.8-0.6,1.4-1.2,1.8c-0.5,0.4-1.2,0.6-2,0.6c-1,0-1.8-0.4-2.4-1.1C517.6,784.9,517.3,783.5,517.3,781.5z M518.6,781.5
					c0,1.8,0.2,2.9,0.6,3.5c0.4,0.6,0.9,0.9,1.5,0.9s1.1-0.3,1.5-0.9c0.4-0.6,0.6-1.8,0.6-3.5c0-1.8-0.2-2.9-0.6-3.5
					c-0.4-0.6-0.9-0.9-1.5-0.9c-0.6,0-1.1,0.3-1.5,0.8C518.8,778.5,518.6,779.7,518.6,781.5z"/>
				<path class="st17" d="M532.5,785.5v1.3h-7.1c0-0.3,0-0.6,0.2-0.9c0.2-0.5,0.5-1,0.9-1.4c0.4-0.5,1-1,1.7-1.6
					c1.2-1,2-1.7,2.4-2.3c0.4-0.6,0.6-1.1,0.6-1.6c0-0.5-0.2-1-0.6-1.3c-0.4-0.4-0.9-0.5-1.5-0.5c-0.6,0-1.1,0.2-1.5,0.6
					s-0.6,0.9-0.6,1.6l-1.4-0.1c0.1-1,0.4-1.8,1-2.3c0.6-0.5,1.4-0.8,2.4-0.8c1,0,1.8,0.3,2.4,0.9c0.6,0.6,0.9,1.3,0.9,2.1
					c0,0.4-0.1,0.9-0.3,1.3s-0.5,0.9-0.9,1.3c-0.4,0.5-1.1,1.1-2,1.9c-0.8,0.7-1.3,1.1-1.5,1.4c-0.2,0.2-0.4,0.5-0.6,0.7H532.5z"/>
				<path class="st17" d="M540.9,785.5v1.3h-7.1c0-0.3,0-0.6,0.2-0.9c0.2-0.5,0.5-1,0.9-1.4c0.4-0.5,1-1,1.7-1.6
					c1.2-1,2-1.7,2.4-2.3c0.4-0.6,0.6-1.1,0.6-1.6c0-0.5-0.2-1-0.6-1.3c-0.4-0.4-0.9-0.5-1.5-0.5c-0.6,0-1.1,0.2-1.5,0.6
					s-0.6,0.9-0.6,1.6l-1.4-0.1c0.1-1,0.4-1.8,1-2.3c0.6-0.5,1.4-0.8,2.4-0.8c1,0,1.8,0.3,2.4,0.9c0.6,0.6,0.9,1.3,0.9,2.1
					c0,0.4-0.1,0.9-0.3,1.3s-0.5,0.9-0.9,1.3c-0.4,0.5-1.1,1.1-2,1.9c-0.8,0.7-1.3,1.1-1.5,1.4c-0.2,0.2-0.4,0.5-0.6,0.7H540.9z"/>
			</g>
		</g>
		<g>
			<g>
				<path class="st17" d="M453.4,767.5l-4.2-10.7h1.5l2.8,7.8c0.2,0.6,0.4,1.2,0.6,1.8c0.2-0.6,0.4-1.2,0.6-1.8l2.9-7.8h1.5
					l-4.2,10.7H453.4z"/>
				<path class="st17" d="M460.3,767.5v-10.7h7.8v1.3h-6.3v3.3h5.9v1.3h-5.9v3.7h6.6v1.3H460.3z"/>
				<path class="st17" d="M470.3,767.5v-10.7h4.8c1,0,1.7,0.1,2.2,0.3c0.5,0.2,0.9,0.5,1.2,1s0.4,1,0.4,1.6c0,0.8-0.2,1.4-0.7,1.9
					s-1.3,0.9-2.3,1c0.4,0.2,0.7,0.4,0.9,0.5c0.4,0.4,0.8,0.9,1.2,1.4l1.9,2.9H478l-1.4-2.2c-0.4-0.6-0.8-1.1-1-1.5
					s-0.5-0.6-0.7-0.7c-0.2-0.1-0.4-0.2-0.6-0.3c-0.2,0-0.4-0.1-0.8-0.1h-1.6v4.8H470.3z M471.7,761.5h3.1c0.6,0,1.2-0.1,1.5-0.2
					c0.4-0.1,0.6-0.3,0.8-0.6c0.2-0.3,0.3-0.6,0.3-1c0-0.5-0.2-0.9-0.6-1.3c-0.4-0.3-1-0.5-1.7-0.5h-3.4V761.5z"/>
				<path class="st17" d="M480.6,764.1l1.3-0.1c0.1,0.5,0.2,1,0.4,1.3c0.2,0.3,0.6,0.6,1.1,0.8c0.5,0.2,1,0.3,1.6,0.3
					c0.5,0,1-0.1,1.4-0.2s0.7-0.4,0.9-0.7c0.2-0.3,0.3-0.6,0.3-0.9c0-0.3-0.1-0.6-0.3-0.9c-0.2-0.3-0.5-0.5-1-0.6
					c-0.3-0.1-0.9-0.3-1.9-0.5c-1-0.2-1.7-0.5-2.1-0.7c-0.5-0.3-0.9-0.6-1.1-1c-0.3-0.4-0.4-0.8-0.4-1.3c0-0.5,0.2-1,0.5-1.5
					c0.3-0.5,0.8-0.8,1.3-1.1c0.6-0.2,1.2-0.4,2-0.4c0.8,0,1.5,0.1,2.1,0.4c0.6,0.3,1.1,0.6,1.4,1.1s0.5,1.1,0.5,1.7l-1.4,0.1
					c-0.1-0.7-0.3-1.2-0.7-1.5c-0.4-0.3-1-0.5-1.9-0.5c-0.9,0-1.5,0.2-1.9,0.5c-0.4,0.3-0.6,0.7-0.6,1.1c0,0.4,0.1,0.7,0.4,1
					c0.3,0.2,1,0.5,2.1,0.8c1.2,0.3,1.9,0.5,2.4,0.7c0.6,0.3,1.1,0.7,1.4,1.1c0.3,0.4,0.4,1,0.4,1.5c0,0.6-0.2,1.1-0.5,1.6
					c-0.3,0.5-0.8,0.9-1.4,1.2c-0.6,0.3-1.3,0.4-2.1,0.4c-1,0-1.8-0.1-2.4-0.4c-0.7-0.3-1.2-0.7-1.5-1.3
					C480.9,765.5,480.7,764.8,480.6,764.1z"/>
				<path class="st17" d="M491.4,767.5v-10.7h1.4v10.7H491.4z"/>
				<path class="st17" d="M494.9,762.3c0-1.8,0.5-3.2,1.4-4.2c1-1,2.2-1.5,3.7-1.5c1,0,1.9,0.2,2.7,0.7s1.4,1.1,1.8,2
					c0.4,0.8,0.6,1.8,0.6,2.9c0,1.1-0.2,2.1-0.7,2.9s-1.1,1.5-1.9,2c-0.8,0.4-1.7,0.7-2.6,0.7c-1,0-1.9-0.2-2.7-0.7s-1.4-1.2-1.8-2
					S494.9,763.3,494.9,762.3z M496.3,762.3c0,1.3,0.3,2.3,1,3.1c0.7,0.7,1.6,1.1,2.6,1.1c1.1,0,1.9-0.4,2.6-1.1
					c0.7-0.8,1-1.8,1-3.2c0-0.9-0.1-1.6-0.4-2.3c-0.3-0.7-0.7-1.2-1.3-1.5c-0.6-0.4-1.2-0.5-1.9-0.5c-1,0-1.9,0.3-2.6,1
					C496.7,759.6,496.3,760.7,496.3,762.3z"/>
				<path class="st17" d="M507,767.5v-10.7h1.5l5.6,8.4v-8.4h1.4v10.7H514l-5.6-8.4v8.4H507z"/>
				<path class="st17" d="M528.4,766.3v1.3h-7.1c0-0.3,0-0.6,0.2-0.9c0.2-0.5,0.5-1,0.9-1.4c0.4-0.5,1-1,1.7-1.6
					c1.2-1,2-1.7,2.4-2.3c0.4-0.6,0.6-1.1,0.6-1.6c0-0.5-0.2-1-0.6-1.3c-0.4-0.4-0.9-0.5-1.5-0.5c-0.6,0-1.1,0.2-1.5,0.6
					s-0.6,0.9-0.6,1.6l-1.4-0.1c0.1-1,0.4-1.8,1-2.3c0.6-0.5,1.4-0.8,2.4-0.8c1,0,1.8,0.3,2.4,0.9c0.6,0.6,0.9,1.3,0.9,2.1
					c0,0.4-0.1,0.9-0.3,1.3s-0.5,0.9-0.9,1.3c-0.4,0.5-1.1,1.1-2,1.9c-0.8,0.7-1.3,1.1-1.5,1.4c-0.2,0.2-0.4,0.5-0.6,0.7H528.4z"/>
				<path class="st17" d="M530.5,767.5V766h1.5v1.5H530.5z"/>
				<path class="st17" d="M540.9,766.3v1.3h-7.1c0-0.3,0-0.6,0.2-0.9c0.2-0.5,0.5-1,0.9-1.4c0.4-0.5,1-1,1.7-1.6
					c1.2-1,2-1.7,2.4-2.3c0.4-0.6,0.6-1.1,0.6-1.6c0-0.5-0.2-1-0.6-1.3c-0.4-0.4-0.9-0.5-1.5-0.5c-0.6,0-1.1,0.2-1.5,0.6
					s-0.6,0.9-0.6,1.6l-1.4-0.1c0.1-1,0.4-1.8,1-2.3c0.6-0.5,1.4-0.8,2.4-0.8c1,0,1.8,0.3,2.4,0.9c0.6,0.6,0.9,1.3,0.9,2.1
					c0,0.4-0.1,0.9-0.3,1.3s-0.5,0.9-0.9,1.3c-0.4,0.5-1.1,1.1-2,1.9c-0.8,0.7-1.3,1.1-1.5,1.4c-0.2,0.2-0.4,0.5-0.6,0.7H540.9z"/>
			</g>
		</g>
	</g>
	<g id="lines" style="clip-path:url(#SVGID_00000137093196103411055940000008471693480510866605_);">
	</g>
</g>
</svg>
