<?xml version="1.0" encoding="utf-8"?>
<!-- Generator: Adobe Illustrator 16.0.0, SVG Export Plug-In . SVG Version: 6.00 Build 0)  -->
<!DOCTYPE svg PUBLIC "-//W3C//DTD SVG 1.1//EN" "http://www.w3.org/Graphics/SVG/1.1/DTD/svg11.dtd">
<svg version="1.1" xmlns="http://www.w3.org/2000/svg" xmlns:xlink="http://www.w3.org/1999/xlink" x="0px" y="0px" width="595px"
	 height="842px" viewBox="0 0 595 842" enable-background="new 0 0 595 842" xml:space="preserve">
<g id="Layer_2" display="none">
	<linearGradient id="rect4233_1_" gradientUnits="userSpaceOnUse" x1="-59.9702" y1="834.999" x2="678.1882" y2="-18.3664">
		<stop  offset="0" style="stop-color:#1C1A4E"/>
		<stop  offset="0.3914" style="stop-color:#144172;stop-opacity:0.69"/>
		<stop  offset="0.9951" style="stop-color:#0685AF;stop-opacity:0.212"/>
	</linearGradient>
	<rect id="rect4233" display="inline" fill="url(#rect4233_1_)" width="596.275" height="842"/>
</g>
<g id="Layer_3">
	<linearGradient id="SVGID_1_" gradientUnits="userSpaceOnUse" x1="362.501" y1="1093.3789" x2="1000.1068" y2="371.0521">
		<stop  offset="0" style="stop-color:#1C1A4E"/>
		<stop  offset="0.3914" style="stop-color:#144172;stop-opacity:0.69"/>
		<stop  offset="0.9951" style="stop-color:#0685AF;stop-opacity:0.212"/>
	</linearGradient>
	<path fill="url(#SVGID_1_)" d="M643.461,409.5c-0.104,0.35-0.563,0.493-1.16,0.493c-0.953,0-2.43-0.282-3.981-0.282
		c-2.676,0-5.771,0.845-7.004,6.162c-3.558,6.302-7.924,13.625-7.572,13.625h0.069c0,0.494,0.18,0.67,0.283,0.67
		c0.706,0,3.203-7.254,4.013-7.254c0,0,0.143,0.105,0.143,0.35c-5.95,11.974-3.134,13.594-10.845,25.178
		c0.739-2.146,0.527-2.817,0-2.817c-0.773,0-2.43,1.584-2.991,1.584c-0.319,0-0.354-0.175-0.319-0.669
		c-3.661,5.141,1.058,2.815-4.084,10.071l-0.526-1.27c-4.121,7.571-2.924,6.127-6.585,6.445c-1.761-0.247-4.507-0.318-7.534-0.318
		c-7.113,0-15.705,0.493-16.9,0.847c-0.212,0.282-0.492,0.423-0.774,0.423c-3.592,0-13.944-20.846-21.902-29.506
		c0-2.043-2.745-8.028-6.478-15.844c-1.269-1.62-1.688-5.001-3.662-5.565l-6.937,0.707l-16.653,1.548
		c1.269-0.107,2.254-0.178,3.028-0.178c4.964,0-3.802,2.292-6.55,2.994l-8.414-0.702c-5.177,0.137-10.668,1.936-16.125,3.591
		l-19.753,7.007c-0.494,0-0.985,0-1.408,0c-1.619,0-2.605-0.25-3.522-0.354c-6.196,9.894-1.336,14.398-2.181,18.626
		c-0.847,3.311-1.585,4.225-2.255,6.407l1.408,1.269c0,8.239-1.408,18.803-3.66,18.803c-0.212,0-0.282-0.037-0.423-0.143
		c0.071,2.359,0.141,4.577,0.494,4.577c0.208,0,0.49-0.494,0.842-1.725c0-0.037,0-0.141,0.071-0.21
		c-0.071,0.069-0.071,0.173-0.071,0.21c-0.599,2.148-1.195,5.352-1.725,8.379c-0.669,1.268-0.035,3.347-1.339,4.261
		c-0.631,0.282-12.709,4.541-19.434,8.311c3.203-1.059,4.859-1.552,5.88-1.552c1.302,0,1.514,0.706,2.146,1.338
		c-0.986,3.31-3.484,1.06-8.557,5c-0.176-0.175-0.809-0.315-1.407-0.315c-0.28,0-0.527,0-0.774,0c-1.55,0-2.605-0.106,1.373-2.36
		c-3.276,0.776-4.963,1.268-6.303,1.268c-2.534,0-3.45-2.181-12.745-9.296l-15.843-12.182l-10.352-8.17l-6.127-4.894
		c-1.057-0.81-2.113-1.863-3.063-2.394l-3.134,1.867c-6.655,4.295-4.508,3.593-7.535,6.337
		c-22.533,10.282-28.872,17.957-54.292,35.915c1.054-0.564,1.76-0.775,2.253-0.775c0.95,0,0.95,0.775,0.069,2.252
		c1.763,3.203,4.225,8.416,6.056,14.646c5.424,10.776-1.831,5.213-0.14,15.214c2.253,4.291,5.141,13.026,6.021,16.76l-0.39-0.214
		l3.522,7.677l0.985,3.17c-0.811,0.843-1.796,1.336-2.676,1.9l0.211-0.494c-1.338,0.952-7.852,5.177-12.183,9.788
		c-0.14,1.62-3.38,5.353-6.056,8.451c-1.479,1.831-3.063,3.662-3.521,5.423c-0.456-0.353,0.071-0.353-0.844-1.127l0.142,1.935
		l-8.029-3.345c0.352,0,0.563,0,0.845,0c2.218,0,2.749-0.632,4.085-0.703c-2.394-1.021-3.662-1.407-4.436-1.407
		c-1.479,0-0.917,1.479-3.626,1.479c-0.459,0-0.742,0-1.304-0.071c-8.944-1.339-7.957-2.817-11.971-4.717
		c3.874,0.104,6.232,2.287,8.521,2.534c0.14,0,0.352,0,0.423,0c4.224,0-5.425-2.042-5.354-3.099
		c-0.351-0.176-0.563-0.176-0.808-0.176c-0.775,0-1.656,0.387-3.064,0.387c-1.269,0-3.063-0.282-5.528-1.196l-11.864-3.662
		c-5.283-1.723-9.472-3.238-8.452-3.943c-1.373-0.739-2.535-1.091-3.661-1.091c-5.565,0-7.817,8.311-10.387,11.408l7.182-8.168
		c0.563-0.389,1.162-0.603,1.832-0.603c1.444,0,2.993,0.917,4.084,1.691c0.387,0.213,0.738,0.388,1.232,0.774
		c-0.142,0-0.565-0.423-1.232-0.774c-0.669-0.423-1.374-0.527-1.938-0.527c-4.93,0-7.886,9.083-9.578,9.083c-0.069,0-0.14,0-0.14,0
		l2.358-3.977c-2.287,3.449-8.942,11.83-7.746,11.83c0.176,0,0.81-0.388,1.901-1.126l-7.288,5.914
		c-0.773,3.556-5.879,10.913-9.365,17.111c-1.127-0.071-1.056-2.466-2.113-2.466c-0.915,0-2.677,1.799-6.972,8.24l-6.196,14.436
		c2.111,5.987,4.93,8.169,3.802,8.169c-0.211,0-0.492,0-0.81-0.142l6.585,8.379l3.731,3.944c2.465,2.361,4.506,3.873,6.48,5.213
		c4.084,3.024,7.604,5.525,12.042,12.462c-1.691-1.054-2.537-1.478-3.03-1.478c-1.408,0,1.551,4.013,4.084,7.747
		c0,0,0.176,0,0.387,0c0.458,0,1.129,0.173,1.938,1.054c-0.071-1.796-2.149-0.071-4.79-5.879c0.071-0.316,0.071-0.456,0.247-0.456
		c1.164,0,5.037,5.21,5.952,5.844c0,1.091,0.738,2.182,0.494,3.343l-2.711,3.804c-1.373,2.43-5.389,10.176-7.288,15.952
		c-3.451,7.461-2.289,9.997-5.636,11.122l-15.069,0.813c1.973,2.604-10.316,2.073-15.07,3.556c0.354-0.705-0.211-0.951-1.477-0.951
		c-1.268,0-3.311,0.279-5.492,0.667c-3.945,0.704-11.551,1.974-16.621,1.974c-0.563,0-1.09,0-1.548-0.069l6.725,2.111l-7.183,0.563
		c-1.232,1.268-1.161,3.803-1.795,5.632l-1.479,10.917c-0.881,6.761-0.81,10.422-3.662,14.786c-0.669,1.972-1.125,2.817-1.337,2.817
		c-0.741,0-0.071-6.937,0.14-9.506c-5.915,10.917-2.958,28.486-8.52,43.378c0.069,0.071,0.28,0.071,0.28,0.071
		c0.53,0,0.988-0.423,1.551-0.423c0.069,0,0.14,0.036,0.211,0.07c0.491,0.281,0.845,0.668,0.95,1.936l0.176,2.358l4.015,1.587
		c9.083,6.582,21.229,14.822,19.928,14.822l0,0c5.88,2.536,7.886,2.536,13.59,6.9c-0.21,0.071-0.246,0.071-0.493,0.071
		c-1.09,0-3.486-1.197-5.422-1.902c4.4,2.712,10.211,5.809,12.852,6.973c2.007,0.984,6.374,0.984,5.669,4.296
		c-0.774,0.917-1.268,2.321-1.409,3.802l-0.845,10.493l0.283,11.83c0,1.549-0.107,3.52-0.354,4.787
		c0.529,1.972-2.394,2.781-4.929,4.014c-3.872,1.971-7.042,3.662-6.795,5.424c0.106,0.07,0.106,0.07,0.106,0.14
		c0,0,0-0.069-0.106-0.14c0-0.071-0.247-0.071-0.458-0.071c-0.563,0-1.337,0.142-1.866,0.211c-3.837,3.204-6.02,7.006-11.301,10.107
		l0.563-2.925c0-0.457-0.28-0.6-0.774-0.6c-1.268,0-4.12,1.481-7.252,3.239c-3.417,1.937-9.648,5.6-12.253,6.513
		c0.703-0.137,0.986-0.28,1.162-0.28c1.443,0-11.69,5.353-5.669,8.521l2.043,9.578c2.676,14.434,1.373,2.534,4.295,16.971
		c0.563,3.238,0.423,4.436-0.107,4.436c-0.81,0-2.217-2.287-2.323-3.907c0.246,7.569,2.076,12.921,4.329,20.314
		c-0.422-1.55-0.598-2.393-0.422-2.393c0.071,0,0.282,0.353,0.776,1.302c-0.354,0-0.211,0.949-0.143,1.973
		c0.881,2.71,1.762,5.949,2.712,9.539v-0.068c-0.071,0,0,0.283-0.071,0.283l0,0c-1.055-3.805-2.075-7.255-2.641-9.509
		c0.283,2.465,1.339,6.407,2.396,10.704c0.104,0.141,0.104,0.424,0.14,0.704c0.846,3.381,1.62,6.76,1.902,8.941l-2.114-1.196
		c-1.057,4.508,4.261,5.211,9.648,5.211c1.408,0,2.64,0,3.906-0.141c0.987,0.141,1.938,0.141,2.888,0.141
		c4.754,0,7.148-0.28,6.725-0.632c9.648,1.899,27.57,3.87,36.054,4.363c0.458-0.071,0.881-0.141,1.269-0.141
		c3.485,0,3.309,4.226,5.21,6.833c1.199,2.603,2.184,5.068,3.17,6.969c0.458,0.951,1.126,2.112,1.794,3.663
		c-0.457-0.846-1.021-2.146-1.794-3.663c-0.598-0.984-1.058-1.617-1.197-1.617c-0.142,0,0.069,0.633,0.845,1.617
		c2.746,6.06,7.747,12.925,6.619,13.028c1.127,1.973,1.196,2.888,1.268,4.016c0.458,1.232-0.141,2.322-2.465,4.365l0,0
		c-0.211,0,0.351,0.703,1.021,0.703c0.037,0,0.037,0,0.037,0c0.352-0.282,0.703-0.528,0.985-0.703
		c-0.283,0.528-0.634,0.633-0.985,0.703c-3.522,2.887-9.719,11.021-14.225,17.569c-5.212,7.147-10.916,15.353-20.142,26.091
		l2.465,4.364c0.354,0.494,0.565,0.917,0.635,1.198l-0.635-1.198c-0.914-1.233-2.465-3.026-4.083-4.505
		c0.178-0.777,0.493-1.408,0.705-1.902l-1.337,1.902c12.182,18.943,19.152,28.836,29.151,38.942c-1.548-0.773-1.899,0-4.437-2.747
		c4.225,4.93,10.775,15.844,16.267,19.999c-1.196-2.219-1.409-3.206-0.845-3.206c0.423,0,1.48,0.81,2.607,1.938
		c0.599,0.846,1.336,1.199,2.254,1.199c2.92,0,7.252-3.065,9.928-3.065c0.141,0,0.212,0,0.387,0l0.177,0.178l21.194-7.186
		c0.635-0.104,1.125-0.173,1.479-0.173c2.677,0-6.477,2.287-4.015,2.569c0.495,0.282,1.163,0.351,2.149,0.351
		c6.127,0,21.232-5.141,21.899-5.141c0.106,0,0.106,0.071,0.106,0.071c1.058-1.091,2.043-1.339,2.854-1.339
		c0.422,0,0.773,0.034,0.913,0.034c0.246,0,0.423-0.034,0.423-0.173c5.177,4.364,0.952,3.627,4.331,6.829
		c6.479,4.579,13.099,8.45,20.034,12.43c0.177,0.317,0.387,0.457,0.563,0.599c-0.036,0-0.036,0-0.036,0
		c-0.773,0,1.129,3.311-0.315,3.311c-0.143,0-0.458-0.071-0.775-0.248c5.881,4.048,2.851,9.542,2.64,15.07l-0.351,4.683
		l-10.702,36.652c-0.108-0.315-0.283-0.458-0.424-0.458c-0.774,0-2.183,2.394-2.923,2.394c-0.316,0-0.387-0.458-0.387-1.725
		l-0.985,4.472l4.61,3.38l10.741,8.204l19.892,14.682c-1.442-1.689-1.583-2.322-0.916-2.322c2.325,0,14.646,8.027,17.642,8.027
		c0.387,0,0.526-0.071,0.634-0.142c1.408,0.81,2.676,1.725,4.084,2.5l3.801-2.993c0.636-0.317,1.27-0.527,1.585-0.527h0.106
		c0.563,0.141,0.704,0.667,1.337,0.667c0.388,0,1.058-0.28,2.29-0.984c12.921-11.795,26.794-21.97,37.075-30.667
		c0,0,0.176,0.387-0.283,1.162c0.212-0.071,0.459-0.071,0.563-0.071c5.037,0,12.922,5.072,21.479,7.817l12.744,4.296
		c1.831,0.705,4.155,1.021,5.775,1.759l1.126,4.227l0.211,0.951c-0.105,0-0.211,0-0.211,0c-0.141,0-0.209,0-0.352,0
		c-0.281,0-0.703-0.248-1.269-2.111c0.247,7.567,1.411,7.567,2.396,8.729l1.056,9.086l-1.198-2.358
		c2.535,10.562,1.198,20.843,4.507,32.777l0.071,0.67c-0.071,0.14-0.141,0.14-0.211,0.14c-0.563,0-1.094-2.322-1.691-3.941
		l1.375,9.329c0.387,2.995,5.42,1.9,7.85,3.204c3.662,0.845,6.725,1.023,10.001,1.479c2.182,0.354,4.26,1.021,6.479,1.48
		c-0.141,0.494-0.812,0.881-2.678,0.881c-0.633,0-1.268-0.107-2.109-0.179c4.646,1.549,7.604,1.763,10.208,1.763
		c1.338,0,2.464,0,3.839,0c2.287,0,4.823,0.209,8.414,1.196c2.676,0.563,7.111,2.323,6.796,2.537
		c0.669-0.071,1.513-0.071,2.395-0.071c2.851,0,6.688,0.279,10.457,0.81c0.176,0,0.281-0.282,0.492-0.282
		c0.635,0.068,1.198,0.282,1.762,0.387l2.042-3.803c0.211-0.422,0.563-0.773,0.702-1.231l3.521-6.27
		c1.41-1.405,3.45-3.978,6.551-8.167l10.279-18.697c3.521-4.364,4.259-12.182,9.577-12.182c0.81,0,1.762,0.143,2.816,0.529
		c4.263,0.244,9.684,0.598,14.929,0.598c2.114,0,4.225-0.071,6.198-0.211l10.14-0.494l4.931-0.279l2.393,4.119l20.563,36.617
		l5.527,9.753c0.387,0,0.737,0,1.021,0c3.029,0,6.618-0.917,9.825-1.516c5.666-0.878,11.089-2.146,16.512-3.449
		c1.654-0.28,3.379-0.528,4.929-0.667c7.854,1.125-12.956,4.116-6.902,4.894c-0.773-2.36,9.086-2.22,26.128-7.219l0.984,0.317
		c6.62-3.205,16.126,0.245,14.156-11.479l-0.635,0.104c-0.705-9.788,5.353-18.521,2.465-23.521l2.605-6.159
		c-1.762-8.66,1.83-12.5,1.125-20.81c-0.069-0.352-0.279-0.705-0.069-0.774c0.069,0.319,0.069,0.492,0.069,0.774
		c0.071,0.212,0.071,0.247,0.107,0.387c9.047-3.378,23.836-12.851,28.767-13.202c2.604-2.676,5.138-3.627,7.604-3.627
		c4.93,0,9.508,4.05,12.535,5.635l2.533,2.004c-0.423,0.285-0.845,0.495-1.477,0.495c-0.354,0-0.776-0.107-1.057-0.21
		c9.434,6.021,19.646,17.357,30.314,22.074l5.246,4.154c1.269-0.703,2.43-1.584,3.662-2.217c5.492-0.07,10.984-2.467,16.62-9.226
		c8.237-5.423,16.123-11.408,23.589-17.394c2.993-2.324,6.127-4.365,9.19-6.689l-16.585-56.404c0.985-1.305,2.078-2.535,3.1-3.805
		c9.752-8.8,19.259-17.956,27.989-27.92l56.829,16.619c13.205-16.725,25.104-34.4,35.526-52.989l-1.269-1.62l-13.307-17.533
		l-13.944-17.783l-6.62-8.201c-2.112-2.644,1.586-6.092,2.253-9.157c2.607-6.267,5.424-12.604,7.078-18.695l0.388-1.232
		c1.688-4.364,3.873-8.378,5.351-12.816l11.55-1.266c0.141,0.387,0.424,0.703,1.338,0.703c0.352,0,0.773-0.107,1.127-0.211
		c6.794-1.302,14.049-2.147,21.16-3.063l23.626-2.572c3.731-13.236,6.619-26.898,9.014-40.665c0.844-4.329,1.584-8.414,1.972-12.357
		c0.423-3.207,1.092-6.339,1.479-9.648l-52.004-28.449c0.387-7.358,1.021-14.506,1.021-21.969c0-7.572-0.634-14.755-1.021-22.183
		l17.569-9.612l-2.324,1.866c2.712-1.866,6.126-3.311,7.57-3.311c0.703,0,0.88,0.319,0.563,0.914l8.205-5.562l0.423,1.76
		c6.653-4.049,13.166-7.322,20.985-11.372c2.604-0.669,3.063-2.254,2.322-4.507l-0.951-6.195c-0.598-4.191-1.232-8.907-2.394-12.783
		l-0.741,6.691c-1.688-9.966-5.879-19.153-5.879-28.519c0.565,1.549,1.021,2.041,1.339,2.041c0.492,0,0.667-1.231,1.303-1.515
		c-0.811-2.183-1.972-4.331-2.323-7.323l3.099,2.992c-2.078-2.43-4.016-8.942-5.67-15.527c0.318-4.964-4.647-4.364-7.923-4.895
		c-3.099-0.491-5.809-0.774-7.252-0.774l1.971-0.423c-3.731-0.667-5.492-0.984-6.196-0.984c-2.04,0,3.979,2.112,0.353,2.112
		c-0.529,0-1.128-0.071-2.148-0.139c-8.485-1.412-2.854-3.594-10.528-5.706l-25.067-1.761c-4.226-2.781-6.339-14.858-9.366-22.956
		l-4.085-7.781c-0.845-2.042-3.378-4.189-1.056-6.092l9.437-14.542c2.394-3.204,3.521-3.941,3.979-3.941
		c0.456,0,0.599,0.599,0.879,0.599c0.351,0,1.127-0.777,3.449-4.507c0.071,0.984,0.565,1.195,1.376,1.195
		c0.598,0,1.407-0.14,2.075-0.282c-0.14-0.738,2.43-3.87,4.649-6.901c2.395-3.132,5.634-7.395,4.859-7.395
		c-0.355,0-1.197,0.672-2.96,2.221l5.601-6.865c2.218-2.396,4.611-4.507,1.865-7.186l-8.802-15.35
		c-4.826-7.781-10.071-15.6-15.564-22.708c-0.247-0.248-0.352-0.353-0.491-0.602c0.14,0.143,0.244,0.354,0.491,0.602
		c1.691,2.11,3.1,3.167,3.802,3.167c0.776,0,0.812-1.091-0.208-3.52c-2.712-2.432-8.101-8.275-13.805-15.036l-4.225-5.069
		l-7.252,2.184l-13.38,3.769c0.704,1.794,5.563,0.455,4.471,2.711c-2.007,1.019-5.387,2.887-8.979,3.766
		c-1.796-0.845-2.534-2.499-6.479-2.499c-2.183,0-5.174,0.492-9.788,1.794c2.606-4.189,22.711-6.301,15.775-7.497
		c1.196-0.986,3.731-2.256,6.759-3.594l16.758-5.563c0.989-0.141,2.466-0.985,3.559-0.985c0.351,0,0.527,0.068,0.81,0.211
		l2.604,3.59l4.79,6.55c2.886,4.085,5.07,7.395,5.949,9.295c2.009,1.868,2.994,2.606,3.311,2.606c0.387,0-0.738-1.548-2.008-3.486
		c-3.239-4.471-7.817-10.528-6.126-10.528h0.071l-7.499-9.188c-0.565-0.315-1.021-0.458-1.798-0.458
		c-2.674,0-6.337,2.394-9.33,3.098l-22.428,7.499c0.211,1.513,5.774,0-1.478,3.348c-7.044,3.66-12.218,4.507-15.774,4.507
		c-3.136,0-4.931-0.637-5.422-0.637l0,0c-0.211-0.316,3.838-1.548,5.633-2.43c-6.056,1.162-6.127,1.62-7.184,2.22
		c-0.388,0.492-0.846,0.704-1.302,0.704c-0.809,0-1.551-0.459-2.289-1.514c0.387-0.809,0.738-1.092,1.197-1.092
		c0.458,0,0.985,0.423,1.408,0.95c1.831-0.387,1.408-0.106,4.436-2.183c-0.28,0-0.527,0-0.773,0c-2.712,0-1.62-1.195-2.395-1.867
		c-0.492,0.212-0.67,0.387-1.128,1.127c-0.28,0.143-0.456,0.387-0.703,0.387h-0.139c0,0,0,0-0.071,0c0,0-0.635-0.597-3.699-4.118
		l2.36,0.635c-2.818-2.429-5.352-5.002-8.274-7.289c-0.951,0.88-0.81,3.698,5.879,10.6c-6.194-1.479-7.675-7.538-16.193-14.332
		c-0.144-0.035-0.424-0.035-0.495-0.035c-2.043,0,2.712,1.971,2.712,4.506c-0.107,0.142-0.352,0.213-0.563,0.213
		c-1.866,0-6.867-3.838-8.311-6.374c2.078-7.217,2.994-2.992,5.316-5.774c-0.211,2.147-0.773,4.753-1.971,4.858
		c0.986,0.81,1.76,1.094,2.394,1.094c1.479,0,1.831-2.185,3.135-2.185c0.176,0,0.491,0.071,0.811,0.315
		c1.407-2.007-1.445,0.143-0.635-5.21c-0.353,0.565-0.494,0.671-0.706,0.671c-0.562,0-0.773-1.479-1.477-1.479
		c-0.21,0-0.354,0.211-0.634,0.564c0.211-20.177,7.288-10.917,11.654-28.942c-0.247,0.069-0.457,0.173-0.598,0.173
		c-0.74,0-1.057-1.054-1.128-2.92l1.338-11.126c0.388-4.297,0.388-7.287-0.6-7.287c-0.738,0-1.725,1.513-3.662,5.174
		c0-1.196,0.953-2.745,0.458-3.907l-4.224-2.57c-2.605-1.798-5.069-3.453-7.147-5.141c0.738,0.14,1.196,0.282,1.514,0.282
		c2.111,0-3.449-4.436-1.9-4.436c0.562,0,1.69,0.524,4.012,1.618l-7.04-5.212c3.379,1.057,8.592,3.945,13.343,6.338
		c-9.541-9.365-17.711-16.796-20.738-20.313c-2.289-1.162-3.238-1.517-3.766-1.517c-0.882,0,0.315,1.374-0.459,1.374
		c-0.423,0-1.689-0.528-4.612-2.147c0.422,0.141,0.812,0.141,1.02,0.141c2.043,0-2.885-4.085-6.865-6.586
		c3.204,2.572,3.806,3.696,2.466,3.696c-1.656,0-6.796-2.111-12.569-4.997c-4.471-4.826-8.592-6.304-12.113-6.304
		c-5.527,0-9.329,3.521-9.893,3.521c-0.175,0-0.105-0.105,0.036-0.492c3.132-2.009,6.267-7.921,9.717-8.731
		c-2.183,0.071-3.028,2.007-3.979,2.007c-0.035,0-0.035-0.035-0.106-0.071c-1.303,0.67-2.676,1.125-8.028,5.846l-5.069,7.183
		c-1.091,1.97-1.62,3.66-2.183,5.209c-4.543,4.507-9.19,5.918-10.739,7.395l7.006-7.323c-3.872,3.452-5.457,4.048-6.514,4.048
		c-0.598,0-0.95-0.244-1.443-0.244c-0.986,0-2.604,0.632-6.689,4.365l-1.585,3.589c-1.092,0.707-1.934,1.13-2.5,1.13
		c-0.279,0-0.423-0.176-0.351-0.563c-0.738,1.021-2.008,2.254-3.45,3.591c-0.916,0.916-0.916,0.988-1.162,1.583l-0.565-1.09
		c-0.175,0.846-0.562,1.62-1.441,1.796c0,0.068-0.143,0.068-0.246,0.068c-0.6,0-2.184-0.842-5.178-3.308
		c4.966,5.457,4.437,2.289,6.973,4.472c1.126,1.337,0.458,1.759-0.846,1.759c-1.093,0-2.676-0.351-3.239-0.773
		c2.078-2.536-13.554-6.514-20.278-8.872c-1.479-1.69-1.763-2.324-1.938-3.029c-0.81,0.387-1.725,0.846-2.253,0.987
		c1.795-1.97,1.443-2.465,0.74-3.661c-0.74-2.185-2.396-8.098-2.148-11.691c0.738,1.62,1.408,2.43,1.937,2.43
		c0.774,0,1.267-1.652,1.267-4.822c-0.352,1.337-0.773,1.902-1.126,1.902c-1.865,0-3.944-11.129-5.422-11.129
		c-0.106,0-0.21,0-0.281,0.143c-0.141-4.298,0.175-5.704,0.737-5.704c1.093,0,3.064,4.928,4.367,4.928
		c0.247,0,0.527-0.282,0.67-0.774c-1.479-3.238-1.479-7.218-1.621-10.843c-0.315-5.776-0.916-12.606-2.745-15.529
		c0.282,5.423,0.176,7.359-0.141,7.359c-0.634,0-2.396-9.998-3.521-11.195c-8.311-2.465-7.887-2.643-6.338-2.643
		c0.283,0,0.774,0,1.127,0c1.477,0,2.464-0.244-2.782-2.146c-3.767-0.776-7.781-1.268-10.247-1.268
		c-3.308,0-3.871,0.845,2.325,3.027c-10.985-3.662-17.112-1.864-25.809-5.527c-0.704-0.527-0.247-0.739,0.563-0.739
		c2.5,0,8.979,1.479,10.739,1.479c0.633,0,0.704-0.177-0.28-0.739c-4.155-0.987-6.867-1.267-8.874-1.267
		c-4.999,0-4.999,2.216-11.197,2.216c-1.62,0-3.73-0.139-6.407-0.56c7.815,2.393-0.565,4.153-8.133,4.436
		c-18.839-3.627,7.779-0.108,0.315-3.627l-8.169-0.669c-2.816-0.282-2.568,0.352-2.394-2.465c0.985-1.128,4.364-0.915,7.676-1.2
		c6.83-0.351,15.14-0.351,8.098-2.674l-11.229-0.493C645.082,412.387,648.742,411.083,643.461,409.5L643.461,409.5z
		 M596.139,1064.497c-121.964,0-221.184-99.183-221.184-221.079c0-122.034,99.22-221.29,221.184-221.29
		c121.967,0,221.256,99.256,221.256,221.29C817.395,965.314,718.105,1064.497,596.139,1064.497L596.139,1064.497z M992.489,727.578
		l-3.202-0.387c0.317-0.104,0.562-0.104,0.773-0.173C991.257,727.088,991.68,727.405,992.489,727.578L992.489,727.578z
		 M1006.681,791.941c-1.197,2.465-14.578,10.282-17.957,10.563c-0.071,0-0.175,0-0.175,0c-0.458,0-0.177-0.28-0.354-0.492
		l9.824-5.35c0.071,0.245-0.141,0.561,0.211,0.773c2.149-1.69,3.381-2.535,4.719-3.452L1006.681,791.941L1006.681,791.941z
		 M185.74,961.336c-0.915,0-1.831-0.177-2.816-0.389c0.563,0,1.057,0.069,1.55,0.176C185.037,961.159,185.213,961.23,185.74,961.336
		L185.74,961.336z M755.569,488.228c-0.319,0.423-0.566,0.774-0.6,0.987C755.25,488.858,755.427,488.579,755.569,488.228
		L755.569,488.228z M852.815,552.132c-0.738,2.219-1.125,3.837-1.302,5.105C851.83,556.323,852.252,554.772,852.815,552.132
		L852.815,552.132z M249.365,582.659l-0.211,0.142C249.257,582.801,249.365,582.659,249.365,582.659L249.365,582.659z
		 M1005.765,744.762c0.282,0.353,0.563,0.67,0.844,0.811L1005.765,744.762L1005.765,744.762z M972.246,811.378
		c-0.986,0.634-1.974,1.373-2.676,2.146L972.246,811.378L972.246,811.378z M170.179,883.203c-0.282,0.071-0.705,0.215-1.092,0.352
		l0,0C169.333,883.486,169.756,883.418,170.179,883.203L170.179,883.203z M339.288,1111.539c0.809,0.455,1.302,0.737,1.726,0.947
		C340.519,1112.205,340.028,1111.818,339.288,1111.539L339.288,1111.539z M525.582,1258.395c0,0-0.178,0-0.32,0
		c0.108,0,0.143,0,0.143,0C525.582,1258.395,525.582,1258.395,525.582,1258.395L525.582,1258.395z"/>
	<linearGradient id="SVGID_2_" gradientUnits="userSpaceOnUse" x1="-139.9756" y1="189.6553" x2="167.3708" y2="-241.7714">
		<stop  offset="0" style="stop-color:#1C1A4E"/>
		<stop  offset="0.3914" style="stop-color:#144172;stop-opacity:0.69"/>
		<stop  offset="0.9951" style="stop-color:#0685AF;stop-opacity:0.212"/>
	</linearGradient>
	<path fill="url(#SVGID_2_)" d="M24.315-233.722c-0.058,0.192-0.31,0.271-0.638,0.271c-0.524,0-1.335-0.155-2.189-0.155
		c-1.471,0-3.173,0.465-3.851,3.388c-1.956,3.465-4.356,7.491-4.163,7.491h0.038c0,0.271,0.099,0.368,0.156,0.368
		c0.388,0,1.761-3.988,2.206-3.988c0,0,0.079,0.058,0.079,0.192c-3.271,6.583-1.723,7.474-5.962,13.842
		c0.407-1.18,0.29-1.549,0-1.549c-0.425,0-1.336,0.871-1.645,0.871c-0.175,0-0.194-0.096-0.175-0.368
		c-2.013,2.826,0.581,1.548-2.246,5.537l-0.289-0.698c-2.266,4.163-1.607,3.369-3.621,3.544c-0.968-0.136-2.478-0.175-4.142-0.175
		c-3.911,0-8.634,0.271-9.292,0.465c-0.117,0.155-0.271,0.233-0.426,0.233c-1.975,0-7.667-11.461-12.042-16.222
		c0-1.123-1.509-4.414-3.561-8.71c-0.698-0.891-0.929-2.75-2.014-3.06l-3.813,0.389l-9.156,0.851
		c0.697-0.059,1.239-0.098,1.665-0.098c2.729,0-2.09,1.26-3.601,1.646l-4.626-0.386c-2.846,0.075-5.865,1.064-8.865,1.975
		l-10.86,3.852c-0.271,0-0.542,0-0.774,0c-0.89,0-1.433-0.137-1.937-0.194c-3.406,5.439-0.734,7.916-1.199,10.24
		c-0.465,1.82-0.871,2.323-1.24,3.523l0.774,0.697c0,4.53-0.774,10.337-2.012,10.337c-0.117,0-0.155-0.021-0.232-0.079
		c0.039,1.297,0.077,2.517,0.271,2.517c0.114,0,0.27-0.271,0.463-0.948c0-0.02,0-0.077,0.039-0.115
		c-0.039,0.038-0.039,0.095-0.039,0.115c-0.329,1.181-0.657,2.942-0.948,4.607c-0.368,0.697-0.02,1.84-0.736,2.342
		c-0.347,0.155-6.987,2.497-10.684,4.569c1.761-0.582,2.671-0.853,3.233-0.853c0.715,0,0.832,0.388,1.18,0.735
		c-0.542,1.82-1.916,0.583-4.704,2.749c-0.097-0.096-0.444-0.173-0.774-0.173c-0.154,0-0.29,0-0.425,0
		c-0.852,0-1.433-0.059,0.755-1.297c-1.802,0.427-2.729,0.697-3.465,0.697c-1.393,0-1.897-1.199-7.007-5.111l-8.71-6.697
		l-5.691-4.492l-3.369-2.69c-0.581-0.445-1.162-1.024-1.684-1.316l-1.723,1.026c-3.659,2.361-2.478,1.976-4.143,3.484
		c-12.388,5.653-15.874,9.872-29.849,19.745c0.579-0.31,0.967-0.426,1.238-0.426c0.522,0,0.522,0.426,0.038,1.238
		c0.969,1.761,2.323,4.627,3.33,8.052c2.982,5.925-1.007,2.866-0.077,8.364c1.238,2.359,2.826,7.162,3.311,9.214l-0.214-0.118
		l1.937,4.221l0.542,1.743c-0.445,0.463-0.987,0.734-1.471,1.045l0.116-0.272c-0.735,0.523-4.316,2.846-6.698,5.381
		c-0.077,0.891-1.858,2.943-3.329,4.646c-0.813,1.007-1.684,2.013-1.937,2.981c-0.25-0.193,0.04-0.193-0.464-0.619l0.078,1.063
		l-4.415-1.839c0.193,0,0.31,0,0.464,0c1.22,0,1.512-0.347,2.246-0.386c-1.316-0.561-2.014-0.774-2.438-0.774
		c-0.813,0-0.504,0.813-1.994,0.813c-0.252,0-0.408,0-0.717-0.039c-4.917-0.736-4.375-1.549-6.582-2.593
		c2.129,0.057,3.426,1.257,4.685,1.393c0.077,0,0.193,0,0.232,0c2.322,0-2.982-1.123-2.943-1.704
		c-0.193-0.097-0.31-0.097-0.444-0.097c-0.426,0-0.911,0.213-1.685,0.213c-0.698,0-1.685-0.155-3.04-0.658l-6.522-2.014
		c-2.905-0.947-5.208-1.78-4.647-2.168c-0.754-0.406-1.394-0.6-2.012-0.6c-3.06,0-4.298,4.569-5.71,6.272l3.948-4.491
		c0.31-0.213,0.639-0.331,1.007-0.331c0.793,0,1.645,0.504,2.246,0.93c0.212,0.117,0.406,0.213,0.677,0.426
		c-0.078,0-0.311-0.232-0.677-0.426c-0.368-0.232-0.756-0.29-1.065-0.29c-2.71,0-4.336,4.994-5.266,4.994c-0.038,0-0.077,0-0.077,0
		l1.297-2.187c-1.257,1.896-4.917,6.504-4.259,6.504c0.097,0,0.445-0.214,1.045-0.619l-4.007,3.251
		c-0.425,1.955-3.232,6-5.149,9.408c-0.62-0.04-0.581-1.356-1.162-1.356c-0.503,0-1.472,0.989-3.833,4.53l-3.406,7.937
		c1.161,3.292,2.71,4.491,2.09,4.491c-0.117,0-0.271,0-0.446-0.077l3.621,4.606l2.051,2.168c1.355,1.299,2.478,2.13,3.563,2.866
		c2.246,1.663,4.181,3.038,6.621,6.852c-0.93-0.579-1.395-0.813-1.666-0.813c-0.774,0,0.853,2.206,2.246,4.259c0,0,0.097,0,0.213,0
		c0.251,0,0.621,0.096,1.065,0.58c-0.039-0.987-1.182-0.04-2.633-3.232c0.039-0.174,0.039-0.251,0.135-0.251
		c0.64,0,2.77,2.864,3.272,3.213c0,0.6,0.406,1.199,0.271,1.838l-1.491,2.091c-0.755,1.336-2.963,5.595-4.007,8.771
		c-1.897,4.102-1.259,5.496-3.099,6.115l-8.285,0.447c1.085,1.432-5.672,1.14-8.285,1.954c0.195-0.388-0.116-0.522-0.812-0.522
		c-0.697,0-1.82,0.153-3.02,0.366c-2.169,0.388-6.35,1.085-9.138,1.085c-0.31,0-0.6,0-0.851-0.038l3.697,1.161l-3.949,0.31
		c-0.678,0.696-0.639,2.091-0.987,3.096l-0.813,6.002c-0.484,3.718-0.445,5.73-2.014,8.13c-0.368,1.084-0.619,1.549-0.735,1.549
		c-0.407,0-0.039-3.813,0.077-5.227c-3.252,6.002-1.626,15.661-4.684,23.849c0.038,0.039,0.154,0.039,0.154,0.039
		c0.292,0,0.543-0.232,0.853-0.232c0.038,0,0.077,0.02,0.116,0.039c0.27,0.154,0.465,0.367,0.522,1.063l0.097,1.297l2.207,0.872
		c4.994,3.619,11.672,8.149,10.957,8.149l0,0c3.232,1.395,4.335,1.395,7.471,3.794c-0.116,0.039-0.135,0.039-0.271,0.039
		c-0.599,0-1.917-0.658-2.981-1.046c2.419,1.491,5.614,3.193,7.066,3.833c1.104,0.542,3.504,0.542,3.117,2.362
		c-0.426,0.504-0.697,1.276-0.775,2.09l-0.464,5.77l0.155,6.504c0,0.852-0.059,1.935-0.194,2.632
		c0.291,1.084-1.316,1.528-2.71,2.206c-2.128,1.084-3.872,2.014-3.736,2.982c0.059,0.038,0.059,0.038,0.059,0.076
		c0,0,0-0.038-0.059-0.076c0-0.039-0.136-0.039-0.252-0.039c-0.31,0-0.735,0.077-1.026,0.115c-2.11,1.762-3.31,3.853-6.213,5.558
		l0.309-1.608c0-0.251-0.154-0.329-0.426-0.329c-0.697,0-2.265,0.814-3.987,1.78c-1.879,1.064-5.305,3.079-6.737,3.581
		c0.386-0.075,0.542-0.154,0.639-0.154c0.793,0-6.427,2.942-3.117,4.685l1.123,5.267c1.471,7.935,0.754,1.393,2.361,9.33
		c0.31,1.78,0.232,2.438-0.059,2.438c-0.445,0-1.219-1.258-1.277-2.148c0.135,4.162,1.141,7.104,2.38,11.169
		c-0.232-0.853-0.329-1.315-0.232-1.315c0.039,0,0.155,0.193,0.427,0.716c-0.195,0-0.116,0.521-0.079,1.084
		c0.484,1.49,0.969,3.271,1.491,5.245v-0.038c-0.039,0,0,0.155-0.039,0.155l0,0c-0.58-2.092-1.141-3.988-1.452-5.228
		c0.156,1.355,0.736,3.522,1.317,5.885c0.057,0.077,0.057,0.233,0.077,0.388c0.465,1.858,0.891,3.716,1.046,4.916l-1.162-0.658
		c-0.581,2.479,2.342,2.865,5.304,2.865c0.774,0,1.452,0,2.148-0.077c0.542,0.077,1.065,0.077,1.587,0.077
		c2.614,0,3.93-0.154,3.697-0.348c5.305,1.044,15.158,2.128,19.822,2.398c0.252-0.039,0.484-0.077,0.697-0.077
		c1.916,0,1.819,2.323,2.864,3.757c0.659,1.431,1.201,2.787,1.743,3.831c0.252,0.523,0.62,1.161,0.987,2.015
		c-0.251-0.465-0.561-1.181-0.987-2.015c-0.329-0.541-0.582-0.889-0.658-0.889c-0.078,0,0.038,0.348,0.465,0.889
		c1.509,3.332,4.259,7.106,3.639,7.163c0.62,1.085,0.658,1.588,0.697,2.208c0.251,0.678-0.078,1.276-1.355,2.399l0,0
		c-0.116,0,0.193,0.387,0.561,0.387c0.02,0,0.02,0,0.02,0c0.193-0.155,0.386-0.29,0.542-0.387c-0.155,0.291-0.348,0.348-0.542,0.387
		c-1.937,1.587-5.343,6.059-7.82,9.659c-2.866,3.93-6.001,8.44-11.074,14.345l1.355,2.399c0.194,0.271,0.311,0.504,0.349,0.658
		l-0.349-0.658c-0.502-0.679-1.355-1.664-2.245-2.477c0.098-0.428,0.271-0.774,0.387-1.046l-0.735,1.046
		c6.697,10.414,10.529,15.854,16.027,21.409c-0.851-0.425-1.044,0-2.439-1.51c2.323,2.71,5.924,8.711,8.943,10.995
		c-0.658-1.22-0.774-1.763-0.464-1.763c0.232,0,0.814,0.445,1.434,1.065c0.329,0.465,0.734,0.659,1.239,0.659
		c1.606,0,3.987-1.686,5.458-1.686c0.077,0,0.116,0,0.213,0l0.097,0.098l11.652-3.95c0.349-0.058,0.619-0.096,0.813-0.096
		c1.472,0-3.561,1.258-2.208,1.413c0.272,0.155,0.64,0.192,1.182,0.192c3.368,0,11.673-2.826,12.04-2.826
		c0.059,0,0.059,0.039,0.059,0.039c0.582-0.6,1.124-0.735,1.569-0.735c0.232,0,0.425,0.019,0.502,0.019
		c0.135,0,0.232-0.019,0.232-0.095c2.846,2.398,0.523,1.993,2.381,3.754c3.562,2.518,7.201,4.646,11.015,6.834
		c0.097,0.174,0.212,0.251,0.31,0.329c-0.02,0-0.02,0-0.02,0c-0.425,0,0.621,1.82-0.173,1.82c-0.078,0-0.252-0.04-0.426-0.137
		c3.233,2.226,1.567,5.246,1.451,8.285l-0.193,2.574l-5.884,20.151c-0.06-0.174-0.156-0.252-0.233-0.252
		c-0.426,0-1.2,1.316-1.607,1.316c-0.174,0-0.212-0.252-0.212-0.948l-0.542,2.458l2.535,1.858l5.905,4.511l10.936,8.071
		c-0.793-0.929-0.87-1.276-0.503-1.276c1.278,0,8.052,4.413,9.699,4.413c0.212,0,0.289-0.039,0.348-0.078
		c0.774,0.445,1.471,0.948,2.246,1.375l2.089-1.646c0.35-0.175,0.698-0.29,0.872-0.29h0.059c0.31,0.077,0.387,0.366,0.735,0.366
		c0.213,0,0.582-0.154,1.259-0.541c7.104-6.484,14.731-12.078,20.384-16.86c0,0,0.096,0.213-0.156,0.639
		c0.116-0.039,0.252-0.039,0.31-0.039c2.77,0,7.104,2.789,11.809,4.298l7.006,2.362c1.007,0.388,2.285,0.561,3.175,0.967
		l0.619,2.323l0.116,0.523c-0.058,0-0.116,0-0.116,0c-0.077,0-0.115,0-0.193,0c-0.154,0-0.386-0.137-0.697-1.161
		c0.136,4.161,0.776,4.161,1.317,4.799l0.581,4.995l-0.659-1.296c1.394,5.807,0.659,11.459,2.478,18.021l0.039,0.368
		c-0.039,0.076-0.077,0.076-0.116,0.076c-0.31,0-0.602-1.276-0.93-2.167l0.756,5.129c0.212,1.647,2.979,1.045,4.315,1.762
		c2.013,0.465,3.697,0.563,5.499,0.813c1.199,0.194,2.342,0.562,3.562,0.813c-0.077,0.271-0.446,0.484-1.472,0.484
		c-0.348,0-0.697-0.059-1.16-0.098c2.555,0.851,4.18,0.969,5.612,0.969c0.735,0,1.354,0,2.11,0c1.257,0,2.652,0.115,4.626,0.657
		c1.471,0.311,3.91,1.277,3.736,1.396c0.368-0.039,0.832-0.039,1.316-0.039c1.567,0,3.677,0.153,5.749,0.444
		c0.097,0,0.155-0.155,0.271-0.155c0.349,0.038,0.659,0.155,0.969,0.213l1.123-2.091c0.116-0.231,0.31-0.425,0.386-0.677
		l1.936-3.447c0.775-0.772,1.897-2.187,3.602-4.489l5.651-10.28c1.936-2.399,2.341-6.697,5.265-6.697
		c0.445,0,0.969,0.079,1.548,0.291c2.344,0.135,5.324,0.329,8.208,0.329c1.163,0,2.323-0.039,3.408-0.116l5.575-0.271l2.711-0.153
		l1.315,2.265L19.94,228.36l3.039,5.362c0.212,0,0.405,0,0.561,0c1.666,0,3.639-0.504,5.402-0.833
		c3.115-0.482,6.096-1.181,9.078-1.896c0.91-0.154,1.858-0.291,2.71-0.367c4.317,0.619-7.123,2.264-3.795,2.69
		c-0.425-1.297,4.995-1.22,14.365-3.969l0.541,0.175c3.64-1.762,8.866,0.135,7.783-6.311l-0.349,0.058
		c-0.388-5.382,2.943-10.183,1.355-12.932l1.433-3.387c-0.969-4.761,1.006-6.872,0.619-11.44c-0.039-0.193-0.154-0.388-0.039-0.426
		c0.039,0.176,0.039,0.271,0.039,0.426c0.039,0.116,0.039,0.136,0.059,0.213c4.974-1.857,13.105-7.065,15.815-7.259
		c1.432-1.471,2.825-1.994,4.181-1.994c2.71,0,5.227,2.227,6.892,3.098l1.393,1.103c-0.232,0.156-0.464,0.271-0.812,0.271
		c-0.194,0-0.427-0.059-0.581-0.115c5.186,3.311,10.801,9.543,16.666,12.136l2.884,2.284c0.698-0.387,1.336-0.871,2.014-1.219
		c3.02-0.038,6.039-1.356,9.137-5.072c4.529-2.981,8.864-6.271,12.969-9.563c1.646-1.277,3.369-2.399,5.053-3.678l-9.118-31.01
		c0.542-0.718,1.143-1.395,1.704-2.092c5.362-4.838,10.588-9.872,15.388-15.35l31.244,9.137c7.26-9.195,13.802-18.913,19.532-29.133
		l-0.697-0.891l-7.316-9.64l-7.667-9.776l-3.64-4.51c-1.161-1.453,0.872-3.349,1.239-5.034c1.434-3.445,2.982-6.93,3.892-10.278
		l0.213-0.678c0.929-2.399,2.129-4.605,2.942-7.046l6.35-0.696c0.078,0.213,0.233,0.387,0.736,0.387c0.193,0,0.425-0.059,0.62-0.116
		c3.735-0.715,7.724-1.181,11.633-1.684l12.989-1.414c2.051-7.277,3.639-14.789,4.956-22.357c0.464-2.38,0.871-4.626,1.084-6.794
		c0.232-1.763,0.6-3.484,0.813-5.305l-28.591-15.641c0.212-4.046,0.561-7.975,0.561-12.078c0-4.163-0.349-8.112-0.561-12.195
		l9.659-5.285l-1.278,1.026c1.491-1.026,3.368-1.82,4.162-1.82c0.386,0,0.484,0.176,0.309,0.503l4.511-3.058l0.232,0.967
		c3.658-2.226,7.238-4.025,11.537-6.252c1.432-0.367,1.684-1.239,1.277-2.478l-0.523-3.406c-0.329-2.305-0.677-4.896-1.316-7.027
		l-0.407,3.679c-0.928-5.479-3.232-10.53-3.232-15.68c0.311,0.852,0.562,1.122,0.736,1.122c0.271,0,0.367-0.677,0.716-0.832
		c-0.445-1.2-1.084-2.382-1.277-4.026l1.704,1.645c-1.143-1.336-2.208-4.916-3.117-8.536c0.175-2.729-2.555-2.399-4.356-2.691
		c-1.704-0.27-3.194-0.426-3.987-0.426l1.083-0.232c-2.051-0.366-3.02-0.541-3.406-0.541c-1.122,0,2.187,1.161,0.193,1.161
		c-0.291,0-0.62-0.039-1.181-0.076c-4.665-0.776-1.569-1.976-5.788-3.137l-13.782-0.968c-2.323-1.529-3.485-8.169-5.149-12.621
		l-2.246-4.278c-0.464-1.123-1.857-2.304-0.581-3.349l5.188-7.995c1.316-1.762,1.936-2.167,2.188-2.167
		c0.251,0,0.329,0.329,0.483,0.329c0.192,0,0.619-0.428,1.896-2.478c0.04,0.541,0.311,0.656,0.757,0.656
		c0.329,0,0.773-0.076,1.141-0.154c-0.077-0.406,1.336-2.128,2.556-3.795c1.316-1.722,3.098-4.065,2.672-4.065
		c-0.196,0-0.658,0.37-1.627,1.222l3.079-3.774c1.219-1.317,2.535-2.479,1.025-3.951l-4.839-8.438
		c-2.653-4.278-5.537-8.576-8.557-12.484c-0.136-0.137-0.193-0.194-0.27-0.331c0.077,0.078,0.134,0.194,0.27,0.331
		c0.93,1.16,1.704,1.741,2.09,1.741c0.427,0,0.446-0.601-0.114-1.936c-1.491-1.337-4.454-4.549-7.589-8.267l-2.323-2.787
		l-3.987,1.201l-7.356,2.072c0.387,0.986,3.059,0.25,2.458,1.491c-1.103,0.56-2.961,1.587-4.936,2.07
		c-0.987-0.464-1.394-1.374-3.562-1.374c-1.2,0-2.844,0.271-5.381,0.986c1.433-2.303,12.486-3.464,8.673-4.122
		c0.658-0.542,2.051-1.24,3.716-1.976l9.213-3.058c0.544-0.077,1.356-0.542,1.957-0.542c0.193,0,0.29,0.038,0.445,0.116l1.432,1.974
		l2.634,3.601c1.586,2.246,2.788,4.065,3.271,5.11c1.104,1.027,1.646,1.434,1.82,1.434c0.212,0-0.406-0.852-1.104-1.917
		c-1.781-2.458-4.298-5.789-3.368-5.789h0.04l-4.123-5.051c-0.311-0.173-0.562-0.251-0.988-0.251c-1.47,0-3.484,1.316-5.129,1.703
		l-12.331,4.123c0.116,0.832,3.175,0-0.813,1.841c-3.873,2.012-6.717,2.478-8.672,2.478c-1.724,0-2.711-0.35-2.981-0.35l0,0
		c-0.116-0.174,2.11-0.851,3.097-1.336c-3.33,0.639-3.369,0.891-3.95,1.221c-0.213,0.271-0.465,0.387-0.716,0.387
		c-0.444,0-0.853-0.252-1.258-0.833c0.212-0.444,0.406-0.6,0.658-0.6c0.252,0,0.542,0.232,0.774,0.522
		c1.006-0.213,0.774-0.059,2.438-1.2c-0.154,0-0.29,0-0.425,0c-1.491,0-0.891-0.657-1.316-1.026c-0.271,0.116-0.368,0.212-0.62,0.62
		c-0.154,0.078-0.251,0.212-0.387,0.212h-0.076c0,0,0,0-0.039,0c0,0-0.349-0.328-2.034-2.264l1.297,0.349
		c-1.549-1.335-2.942-2.75-4.549-4.007c-0.523,0.484-0.445,2.033,3.232,5.828c-3.406-0.813-4.219-4.145-8.903-7.88
		c-0.079-0.019-0.233-0.019-0.272-0.019c-1.124,0,1.491,1.083,1.491,2.477c-0.059,0.078-0.193,0.117-0.31,0.117
		c-1.026,0-3.776-2.11-4.569-3.504c1.143-3.968,1.646-1.645,2.923-3.175c-0.116,1.181-0.425,2.613-1.083,2.671
		c0.542,0.445,0.968,0.601,1.316,0.601c0.813,0,1.007-1.201,1.724-1.201c0.097,0,0.27,0.04,0.446,0.173
		c0.773-1.103-0.795,0.079-0.349-2.864c-0.194,0.311-0.271,0.369-0.388,0.369c-0.309,0-0.425-0.813-0.812-0.813
		c-0.115,0-0.194,0.116-0.348,0.31c0.116-11.093,4.007-6.002,6.407-15.912c-0.136,0.038-0.251,0.095-0.329,0.095
		c-0.407,0-0.581-0.579-0.62-1.605l0.736-6.117c0.213-2.362,0.213-4.006-0.33-4.006c-0.406,0-0.948,0.832-2.013,2.845
		c0-0.658,0.524-1.509,0.252-2.148l-2.322-1.413c-1.433-0.988-2.787-1.898-3.93-2.826c0.406,0.077,0.658,0.155,0.833,0.155
		c1.161,0-1.896-2.438-1.045-2.438c0.309,0,0.929,0.288,2.206,0.89l-3.871-2.866c1.858,0.581,4.724,2.169,7.336,3.484
		c-5.246-5.148-9.737-9.234-11.402-11.168c-1.258-0.639-1.78-0.833-2.07-0.833c-0.485,0,0.173,0.755-0.252,0.755
		c-0.232,0-0.929-0.291-2.536-1.181c0.232,0.077,0.446,0.077,0.561,0.077c1.123,0-1.586-2.246-3.774-3.621
		c1.762,1.414,2.092,2.032,1.356,2.032c-0.911,0-3.736-1.161-6.911-2.748c-2.458-2.653-4.724-3.466-6.66-3.466
		c-3.039,0-5.129,1.936-5.439,1.936c-0.096,0-0.058-0.058,0.02-0.271c1.722-1.104,3.445-4.354,5.342-4.8
		c-1.2,0.039-1.665,1.104-2.188,1.104c-0.019,0-0.019-0.02-0.059-0.04c-0.716,0.369-1.471,0.619-4.414,3.214l-2.787,3.949
		c-0.6,1.083-0.891,2.012-1.2,2.864c-2.498,2.478-5.053,3.253-5.904,4.065l3.852-4.026c-2.129,1.898-3,2.226-3.581,2.226
		c-0.329,0-0.522-0.134-0.794-0.134c-0.542,0-1.432,0.347-3.678,2.4l-0.871,1.973c-0.6,0.389-1.063,0.621-1.375,0.621
		c-0.153,0-0.232-0.097-0.193-0.31c-0.406,0.562-1.104,1.239-1.897,1.975c-0.503,0.503-0.503,0.543-0.639,0.87l-0.311-0.599
		c-0.096,0.465-0.309,0.891-0.792,0.987c0,0.038-0.078,0.038-0.135,0.038c-0.33,0-1.2-0.463-2.847-1.818
		c2.73,3,2.439,1.258,3.833,2.458c0.619,0.735,0.252,0.967-0.465,0.967c-0.601,0-1.471-0.193-1.781-0.425
		c1.143-1.395-7.452-3.581-11.149-4.877c-0.813-0.93-0.969-1.278-1.065-1.666c-0.445,0.212-0.948,0.465-1.239,0.542
		c0.987-1.083,0.793-1.355,0.407-2.013c-0.407-1.201-1.317-4.452-1.181-6.428c0.406,0.891,0.774,1.336,1.065,1.336
		c0.426,0,0.696-0.909,0.696-2.651c-0.193,0.735-0.425,1.046-0.619,1.046c-1.025,0-2.168-6.119-2.981-6.119
		c-0.058,0-0.115,0-0.154,0.079c-0.078-2.363,0.096-3.136,0.405-3.136c0.601,0,1.685,2.709,2.401,2.709
		c0.136,0,0.29-0.155,0.368-0.426c-0.813-1.78-0.813-3.968-0.891-5.961c-0.173-3.176-0.503-6.931-1.509-8.538
		c0.155,2.981,0.097,4.046-0.077,4.046c-0.349,0-1.317-5.497-1.936-6.155c-4.569-1.355-4.336-1.453-3.484-1.453
		c0.156,0,0.426,0,0.62,0c0.812,0,1.354-0.134-1.53-1.18c-2.071-0.427-4.278-0.697-5.634-0.697c-1.818,0-2.128,0.465,1.278,1.665
		c-6.04-2.013-9.408-1.025-14.189-3.039c-0.387-0.29-0.136-0.407,0.31-0.407c1.375,0,4.937,0.813,5.904,0.813
		c0.348,0,0.387-0.098-0.154-0.406c-2.285-0.543-3.775-0.697-4.879-0.697c-2.749,0-2.749,1.218-6.156,1.218
		c-0.891,0-2.051-0.076-3.522-0.308c4.297,1.315-0.311,2.283-4.471,2.438c-10.357-1.994,4.277-0.06,0.173-1.994l-4.491-0.368
		c-1.548-0.155-1.412,0.193-1.316-1.355c0.542-0.62,2.399-0.503,4.22-0.66c3.755-0.192,8.323-0.192,4.452-1.47l-6.174-0.271
		C25.206-232.135,27.218-232.851,24.315-233.722L24.315-233.722z M-1.702,126.384c-67.054,0-121.603-54.528-121.603-121.545
		c0-67.093,54.549-121.662,121.603-121.662c67.055,0,121.643,54.569,121.643,121.662C119.94,71.856,65.353,126.384-1.702,126.384
		L-1.702,126.384z M216.205-58.848l-1.76-0.212c0.174-0.058,0.309-0.058,0.425-0.096C215.527-59.118,215.76-58.943,216.205-58.848
		L216.205-58.848z M224.007-23.462c-0.658,1.355-8.015,5.653-9.873,5.808c-0.039,0-0.096,0-0.096,0
		c-0.251,0-0.097-0.154-0.195-0.271l5.401-2.941c0.039,0.135-0.077,0.309,0.116,0.426c1.182-0.93,1.859-1.395,2.594-1.898
		L224.007-23.462L224.007-23.462z M-227.333,69.668c-0.503,0-1.006-0.098-1.548-0.214c0.309,0,0.581,0.038,0.853,0.097
		C-227.719,69.571-227.622,69.61-227.333,69.668L-227.333,69.668z M85.95-190.439c-0.176,0.233-0.312,0.426-0.33,0.543
		C85.774-190.092,85.872-190.246,85.95-190.439L85.95-190.439z M139.415-155.305c-0.406,1.22-0.619,2.109-0.716,2.807
		C138.873-153.001,139.104-153.854,139.415-155.305L139.415-155.305z M-192.353-138.522l-0.116,0.078
		C-192.412-138.444-192.353-138.522-192.353-138.522L-192.353-138.522z M223.503-49.401c0.155,0.194,0.309,0.368,0.464,0.446
		L223.503-49.401L223.503-49.401z M205.075-12.776c-0.542,0.349-1.085,0.755-1.471,1.18L205.075-12.776L205.075-12.776z
		 M-235.888,26.712c-0.155,0.039-0.388,0.118-0.601,0.193l0,0C-236.353,26.868-236.12,26.831-235.888,26.712L-235.888,26.712z
		 M-142.915,152.248c0.445,0.25,0.716,0.405,0.949,0.521C-142.238,152.614-142.507,152.401-142.915,152.248L-142.915,152.248z
		 M-40.493,232.986c0,0-0.098,0-0.176,0c0.06,0,0.078,0,0.078,0C-40.493,232.986-40.493,232.986-40.493,232.986L-40.493,232.986z"/>
</g>
<g id="Layer_5">
	<g opacity="0.5">
		<polygon opacity="0" fill="#FFFFFF" points="-23.77,270.601 31.942,202.665 87.657,270.601 		"/>
		<polygon opacity="0.2" fill="#FFFFFF" points="87.657,77.604 31.942,202.665 -23.77,77.604 		"/>
		<polygon opacity="0.1" fill="#FFFFFF" points="87.658,270.601 31.942,202.665 152.497,186 		"/>
		<polygon opacity="0" fill="#FFFFFF" points="-23.769,77.604 31.942,202.665 -79.481,174.102 		"/>
		<polygon opacity="0.3" fill="#FFFFFF" points="152.497,186.001 31.942,202.667 87.66,77.604 		"/>
		<polygon opacity="0.1" fill="#FFFFFF" points="-79.481,174.104 31.942,202.667 -23.769,270.601 		"/>
		<polygon fill="#FFFFFF" points="254.797,-18.895 231.333,85.333 143.37,-18.895 		"/>
		<polygon opacity="0.7" fill="#FFFFFF" points="143.371,-18.895 231.333,85.333 87.658,77.604 		"/>
		<polygon opacity="0.5" fill="#FFFFFF" points="87.658,77.605 231.333,85.333 152.495,186 		"/>
		<polygon opacity="0.8" fill="#FFFFFF" points="87.657,77.604 31.942,-18.895 143.371,-18.895 		"/>
	</g>
	<g opacity="0.5">
		<polygon opacity="0.8" fill="#FFFFFF" points="476,665.331 518,517.997 589.912,649.328 		"/>
		<polygon opacity="0.9" fill="#FFFFFF" points="605.33,392.665 518,517.997 457.334,421.5 		"/>
		<polygon opacity="0.9" fill="#FFFFFF" points="589.912,649.328 518,517.997 651.111,543.331 		"/>
		<polygon opacity="0.8" fill="#FFFFFF" points="457.334,421.5 518,517.997 414.003,578.664 		"/>
		<polygon fill="#FFFFFF" points="651.111,543.332 518,517.998 605.333,392.665 		"/>
		<polygon opacity="0.6" fill="#FFFFFF" points="414.003,578.665 518,517.998 476,665.331 		"/>
		<polygon opacity="0.1" fill="#FFFFFF" points="272.002,787.001 341.949,671.329 406.32,755.325 		"/>
		<polygon opacity="0.5" fill="#FFFFFF" points="414.001,578.665 341.949,671.329 269.896,543.332 		"/>
		<polygon opacity="0.2" fill="#FFFFFF" points="406.32,755.325 341.949,671.329 476,665.331 		"/>
		<polygon opacity="0.4" fill="#FFFFFF" points="269.896,543.332 341.949,671.329 194.668,631.997 		"/>
		<polygon opacity="0.3" fill="#FFFFFF" points="476,665.332 341.949,671.33 414.004,578.665 		"/>
		<polygon opacity="0.3" fill="#FFFFFF" points="194.668,631.998 341.949,671.33 272.002,787.001 		"/>
		<polygon opacity="0.6" fill="#FFFFFF" points="269.896,543.332 345.124,459.998 414,578.665 		"/>
		<polygon opacity="0.7" fill="#FFFFFF" points="414,578.665 345.124,459.998 457.333,421.5 		"/>
		<polygon opacity="0" fill="#FFFFFF" points="406.318,755.325 381.535,858.246 272,787.001 		"/>
		<polygon opacity="0.1" fill="#FFFFFF" points="272,787.001 381.535,858.246 222.729,861.32 		"/>
		<polygon opacity="0" fill="#FFFFFF" points="222.726,861.321 134.667,767.786 272,786.999 		"/>
		<polygon opacity="0.2" fill="#FFFFFF" points="272,787.001 134.667,767.788 194.667,631.997 		"/>
	</g>
</g>
<g id="text">
	<g>
		<path fill="#152259" d="M56.604,303.918v-25.624h8.302c3.146,0,5.197,0.128,6.152,0.384c1.468,0.385,2.698,1.221,3.688,2.508
			s1.486,2.951,1.486,4.99c0,1.573-0.286,2.896-0.856,3.968c-0.571,1.072-1.296,1.914-2.176,2.525s-1.774,1.017-2.683,1.215
			c-1.235,0.245-3.023,0.367-5.366,0.367h-3.374v9.666H56.604z M61.778,282.629v7.271h2.832c2.039,0,3.402-0.134,4.09-0.402
			c0.687-0.268,1.226-0.688,1.617-1.258c0.39-0.571,0.585-1.235,0.585-1.993c0-0.932-0.274-1.701-0.821-2.307
			c-0.548-0.606-1.241-0.984-2.08-1.136c-0.618-0.116-1.859-0.175-3.723-0.175H61.778z"/>
		<path fill="#152259" d="M80.498,303.918v-25.624h10.89c2.738,0,4.728,0.23,5.969,0.69c1.241,0.46,2.234,1.279,2.98,2.456
			c0.746,1.177,1.119,2.523,1.119,4.038c0,1.923-0.565,3.51-1.695,4.763c-1.13,1.253-2.82,2.042-5.069,2.369
			c1.119,0.653,2.042,1.369,2.771,2.15c0.728,0.781,1.71,2.167,2.945,4.16l3.129,4.999h-6.188l-3.74-5.576
			c-1.329-1.993-2.237-3.248-2.727-3.767c-0.489-0.519-1.008-0.874-1.555-1.066c-0.548-0.192-1.416-0.288-2.604-0.288h-1.049v10.697
			H80.498z M85.671,289.131H89.5c2.482,0,4.031-0.104,4.649-0.314s1.101-0.571,1.451-1.083s0.524-1.154,0.524-1.923
			c0-0.862-0.23-1.558-0.69-2.089c-0.46-0.53-1.11-0.865-1.949-1.005c-0.419-0.058-1.678-0.087-3.775-0.087h-4.038V289.131z"/>
		<path fill="#152259" d="M129.438,303.918h-5.628l-2.237-5.82H111.33l-2.115,5.82h-5.488l9.98-25.624h5.471L129.438,303.918z
			 M119.912,293.78l-3.531-9.508l-3.46,9.508H119.912z"/>
		<path fill="#152259" d="M148.578,294.497l5.016,1.59c-0.769,2.797-2.048,4.874-3.836,6.231c-1.789,1.357-4.058,2.036-6.808,2.036
			c-3.402,0-6.199-1.163-8.39-3.487c-2.191-2.325-3.286-5.503-3.286-9.535c0-4.265,1.101-7.577,3.304-9.937
			c2.202-2.36,5.098-3.54,8.687-3.54c3.135,0,5.681,0.926,7.638,2.779c1.165,1.096,2.039,2.668,2.622,4.719l-5.121,1.224
			c-0.303-1.328-0.936-2.377-1.896-3.146c-0.961-0.769-2.13-1.154-3.504-1.154c-1.9,0-3.441,0.682-4.624,2.045
			s-1.774,3.572-1.774,6.625c0,3.24,0.583,5.547,1.748,6.921c1.165,1.375,2.68,2.063,4.544,2.063c1.375,0,2.558-0.437,3.548-1.311
			S148.146,296.373,148.578,294.497z"/>
		<path fill="#152259" d="M163.801,303.918v-21.289h-7.603v-4.334h20.363v4.334h-7.586v21.289H163.801z"/>
		<path fill="#152259" d="M179.742,303.918v-25.624h5.174v25.624H179.742z"/>
		<path fill="#152259" d="M206.24,294.497l5.016,1.59c-0.769,2.797-2.048,4.874-3.836,6.231c-1.789,1.357-4.058,2.036-6.808,2.036
			c-3.402,0-6.199-1.163-8.39-3.487c-2.191-2.325-3.286-5.503-3.286-9.535c0-4.265,1.101-7.577,3.304-9.937
			c2.202-2.36,5.098-3.54,8.687-3.54c3.135,0,5.681,0.926,7.638,2.779c1.165,1.096,2.039,2.668,2.622,4.719l-5.121,1.224
			c-0.303-1.328-0.936-2.377-1.896-3.146c-0.961-0.769-2.13-1.154-3.504-1.154c-1.9,0-3.441,0.682-4.624,2.045
			s-1.774,3.572-1.774,6.625c0,3.24,0.583,5.547,1.748,6.921c1.165,1.375,2.68,2.063,4.544,2.063c1.375,0,2.558-0.437,3.548-1.311
			S205.808,296.373,206.24,294.497z"/>
		<path fill="#152259" d="M238.802,303.918h-5.628l-2.237-5.82h-10.243l-2.115,5.82h-5.488l9.98-25.624h5.471L238.802,303.918z
			 M229.276,293.78l-3.531-9.508l-3.46,9.508H229.276z"/>
		<path fill="#152259" d="M241.687,303.918v-25.414h5.174v21.097h12.864v4.317H241.687z"/>
		<path fill="#152259" d="M56.447,346.874V321.25h5.174v25.624H56.447z"/>
		<path fill="#152259" d="M66.532,321.25h9.456c2.132,0,3.758,0.163,4.876,0.489c1.503,0.443,2.791,1.229,3.863,2.359
			c1.072,1.13,1.888,2.515,2.447,4.151c0.56,1.637,0.839,3.656,0.839,6.056c0,2.109-0.262,3.927-0.786,5.454
			c-0.641,1.864-1.556,3.374-2.744,4.527c-0.897,0.874-2.109,1.556-3.636,2.045c-1.142,0.361-2.668,0.542-4.58,0.542h-9.735V321.25z
			 M71.706,325.584v16.972h3.863c1.444,0,2.487-0.081,3.128-0.245c0.839-0.209,1.535-0.565,2.089-1.066
			c0.553-0.501,1.005-1.326,1.354-2.474c0.35-1.147,0.524-2.712,0.524-4.693s-0.175-3.501-0.524-4.562
			c-0.35-1.06-0.839-1.888-1.468-2.482s-1.428-0.996-2.395-1.206c-0.723-0.163-2.139-0.245-4.248-0.245H71.706z"/>
		<path fill="#152259" d="M92.401,346.874V321.25H111.4v4.334H97.574v5.681h12.864v4.317H97.574v6.974h14.315v4.317H92.401z"/>
		<path fill="#152259" d="M116.329,346.874V321.25h5.034l10.487,17.111V321.25h4.807v25.624h-5.191l-10.33-16.709v16.709H116.329z"
			/>
		<path fill="#152259" d="M147.896,346.874v-21.289h-7.603v-4.334h20.363v4.334h-7.586v21.289H147.896z"/>
		<path fill="#152259" d="M163.836,346.874V321.25h5.174v25.624H163.836z"/>
		<path fill="#152259" d="M179.707,346.874v-21.289h-7.603v-4.334h20.363v4.334h-7.586v21.289H179.707z"/>
		<path fill="#152259" d="M202.534,346.874v-10.784l-9.386-14.839h6.065l6.03,10.138l5.908-10.138h5.96l-9.421,14.874v10.75H202.534
			z"/>
		<path fill="#152259" d="M228.909,346.874V321.25h7.743l4.649,17.479l4.597-17.479h7.761v25.624h-4.807v-20.17l-5.086,20.17h-4.981
			l-5.069-20.17v20.17H228.909z"/>
		<path fill="#152259" d="M281.904,346.874h-5.628l-2.237-5.82h-10.243l-2.115,5.82h-5.488l9.98-25.624h5.471L281.904,346.874z
			 M272.378,336.736l-3.531-9.508l-3.46,9.508H272.378z"/>
		<path fill="#152259" d="M284.701,346.874V321.25h5.034l10.488,17.111V321.25h4.807v25.624h-5.191l-10.33-16.709v16.709H284.701z"
			/>
		<path fill="#152259" d="M333.606,346.874h-5.628l-2.237-5.82h-10.242l-2.115,5.82h-5.488l9.98-25.624h5.471L333.606,346.874z
			 M324.081,336.736l-3.531-9.508l-3.461,9.508H324.081z"/>
		<path fill="#152259" d="M348.271,337.453v-4.317h11.151v10.208c-1.083,1.049-2.653,1.973-4.71,2.771s-4.14,1.197-6.249,1.197
			c-2.68,0-5.017-0.562-7.009-1.687s-3.49-2.732-4.492-4.824c-1.002-2.091-1.503-4.367-1.503-6.826c0-2.668,0.56-5.04,1.678-7.114
			c1.119-2.074,2.756-3.665,4.912-4.771c1.643-0.851,3.688-1.276,6.135-1.276c3.181,0,5.666,0.667,7.454,2.001
			c1.789,1.334,2.939,3.179,3.452,5.532l-5.139,0.961c-0.361-1.259-1.04-2.252-2.036-2.98c-0.996-0.728-2.24-1.092-3.731-1.092
			c-2.261,0-4.059,0.717-5.393,2.15s-2.001,3.56-2.001,6.38c0,3.041,0.676,5.322,2.027,6.843s3.123,2.281,5.313,2.281
			c1.084,0,2.17-0.212,3.26-0.638s2.024-0.941,2.806-1.547v-3.251H348.271z"/>
		<path fill="#152259" d="M364.194,346.874V321.25h18.999v4.334h-13.825v5.681h12.864v4.317h-12.864v6.974h14.314v4.317H364.194z"/>
		<path fill="#152259" d="M388,346.874V321.25h7.743l4.649,17.479l4.597-17.479h7.761v25.624h-4.807v-20.17l-5.086,20.17h-4.981
			l-5.069-20.17v20.17H388z"/>
		<path fill="#152259" d="M417.889,346.874V321.25h18.999v4.334h-13.825v5.681h12.864v4.317h-12.864v6.974h14.314v4.317H417.889z"/>
		<path fill="#152259" d="M441.817,346.874V321.25h5.033l10.487,17.111V321.25h4.807v25.624h-5.191l-10.329-16.709v16.709H441.817z"
			/>
		<path fill="#152259" d="M473.383,346.874v-21.289h-7.603v-4.334h20.362v4.334h-7.586v21.289H473.383z"/>
		<path fill="#152259" d="M60.24,389.829l-6.117-25.624h5.296l3.863,17.601l4.684-17.601h6.153l4.492,17.898l3.933-17.898h5.209
			l-6.223,25.624h-5.488l-5.104-19.157l-5.086,19.157H60.24z"/>
		<path fill="#152259" d="M90.233,389.829v-25.624h5.174v25.624H90.233z"/>
		<path fill="#152259" d="M106.104,389.829V368.54H98.5v-4.334h20.363v4.334h-7.586v21.289H106.104z"/>
		<path fill="#152259" d="M122.219,389.829v-25.624h5.174v10.085h10.138v-10.085h5.174v25.624h-5.174v-11.204h-10.138v11.204
			H122.219z"/>
		<path fill="#152259" d="M157.928,389.829v-25.624h7.743l4.649,17.479l4.597-17.479h7.761v25.624h-4.807v-20.17l-5.086,20.17
			h-4.981l-5.069-20.17v20.17H157.928z"/>
		<path fill="#152259" d="M187.659,389.829v-25.624h5.174v25.624H187.659z"/>
		<path fill="#152259" d="M197.744,364.206h9.456c2.132,0,3.758,0.163,4.876,0.489c1.503,0.443,2.791,1.229,3.863,2.359
			c1.072,1.13,1.888,2.515,2.447,4.151c0.56,1.637,0.839,3.656,0.839,6.056c0,2.109-0.262,3.927-0.786,5.454
			c-0.641,1.864-1.556,3.374-2.744,4.527c-0.897,0.874-2.109,1.556-3.636,2.045c-1.142,0.361-2.668,0.542-4.58,0.542h-9.735V364.206
			z M202.918,368.54v16.972h3.863c1.444,0,2.487-0.081,3.128-0.245c0.839-0.209,1.535-0.565,2.089-1.066
			c0.553-0.501,1.005-1.326,1.354-2.474c0.35-1.147,0.524-2.712,0.524-4.693s-0.175-3.501-0.524-4.562
			c-0.35-1.06-0.839-1.888-1.468-2.482s-1.428-0.996-2.395-1.206c-0.723-0.163-2.139-0.245-4.248-0.245H202.918z"/>
		<path fill="#152259" d="M223.613,389.829v-25.624h8.302c3.146,0,5.197,0.128,6.152,0.384c1.468,0.385,2.698,1.221,3.688,2.508
			s1.486,2.951,1.486,4.99c0,1.573-0.286,2.896-0.856,3.968c-0.571,1.072-1.296,1.914-2.176,2.525s-1.774,1.017-2.683,1.215
			c-1.235,0.245-3.023,0.367-5.366,0.367h-3.374v9.666H223.613z M228.786,368.54v7.271h2.832c2.039,0,3.402-0.134,4.09-0.402
			c0.687-0.268,1.226-0.688,1.617-1.258c0.39-0.571,0.585-1.235,0.585-1.993c0-0.932-0.274-1.701-0.821-2.307
			c-0.548-0.606-1.241-0.984-2.08-1.136c-0.618-0.116-1.859-0.175-3.723-0.175H228.786z"/>
		<path fill="#152259" d="M246.44,377.175c0-2.61,0.39-4.801,1.171-6.572c0.583-1.305,1.378-2.476,2.386-3.513
			s2.112-1.806,3.313-2.307c1.596-0.676,3.437-1.014,5.523-1.014c3.775,0,6.796,1.171,9.063,3.513
			c2.266,2.342,3.399,5.599,3.399,9.771c0,4.137-1.125,7.373-3.374,9.709c-2.249,2.336-5.255,3.504-9.019,3.504
			c-3.811,0-6.84-1.163-9.089-3.487C247.564,384.455,246.44,381.253,246.44,377.175z M251.771,377c0,2.901,0.67,5.101,2.01,6.598
			c1.34,1.497,3.042,2.246,5.104,2.246s3.755-0.743,5.078-2.229c1.322-1.485,1.984-3.714,1.984-6.686
			c0-2.936-0.644-5.127-1.932-6.572s-2.998-2.167-5.13-2.167s-3.852,0.731-5.156,2.194C252.423,371.847,251.771,374.052,251.771,377
			z"/>
		<path fill="#152259" d="M275.174,389.829v-25.624h5.174v25.624H275.174z"/>
		<path fill="#152259" d="M285.33,389.829v-25.624h5.034l10.487,17.111v-17.111h4.807v25.624h-5.191l-10.33-16.709v16.709H285.33z"
			/>
		<path fill="#152259" d="M316.896,389.829V368.54h-7.603v-4.334h20.362v4.334h-7.586v21.289H316.896z"/>
	</g>
	<g>
		<g>
			<path fill="#152259" d="M54.983,418.224v-12.388h4.647c0.946,0,1.706,0.126,2.277,0.376c0.571,0.251,1.02,0.637,1.343,1.158
				c0.324,0.521,0.486,1.065,0.486,1.635c0,0.529-0.144,1.028-0.431,1.495c-0.288,0.468-0.721,0.846-1.301,1.133
				c0.749,0.22,1.325,0.595,1.728,1.124c0.402,0.529,0.604,1.154,0.604,1.876c0,0.58-0.123,1.119-0.368,1.618
				c-0.245,0.498-0.548,0.883-0.908,1.153c-0.361,0.271-0.813,0.475-1.356,0.612c-0.543,0.138-1.209,0.207-1.998,0.207H54.983z
				 M56.622,411.042h2.679c0.727,0,1.248-0.048,1.563-0.144c0.417-0.124,0.731-0.329,0.942-0.617
				c0.211-0.287,0.317-0.647,0.317-1.081c0-0.411-0.099-0.773-0.296-1.086s-0.479-0.526-0.845-0.643
				c-0.366-0.115-0.995-0.173-1.884-0.173h-2.476V411.042z M56.622,416.762h3.084c0.529,0,0.901-0.02,1.115-0.059
				c0.377-0.068,0.693-0.181,0.946-0.339c0.253-0.157,0.462-0.387,0.625-0.688c0.163-0.301,0.245-0.649,0.245-1.043
				c0-0.462-0.119-0.863-0.355-1.204c-0.237-0.341-0.565-0.58-0.984-0.719c-0.42-0.138-1.024-0.207-1.813-0.207h-2.865V416.762z"/>
			<path fill="#152259" d="M70.083,418.224v-5.247l-4.774-7.141h1.994l2.442,3.735c0.451,0.698,0.871,1.396,1.259,2.095
				c0.372-0.647,0.822-1.377,1.352-2.188l2.399-3.642h1.91l-4.943,7.141v5.247H70.083z"/>
			<path fill="#152259" d="M82.656,418.224v-12.388h5.493c1.104,0,1.943,0.111,2.518,0.334s1.034,0.615,1.377,1.179
				c0.343,0.563,0.515,1.186,0.515,1.867c0,0.879-0.285,1.62-0.854,2.223s-1.448,0.985-2.636,1.149
				c0.434,0.208,0.763,0.414,0.989,0.616c0.479,0.439,0.932,0.989,1.36,1.648l2.155,3.371h-2.062l-1.639-2.577
				c-0.479-0.744-0.873-1.313-1.183-1.707c-0.31-0.395-0.587-0.67-0.832-0.828c-0.245-0.157-0.495-0.268-0.748-0.329
				c-0.186-0.04-0.49-0.06-0.913-0.06h-1.901v5.501H82.656z M84.295,411.303h3.524c0.749,0,1.335-0.077,1.757-0.232
				c0.423-0.154,0.744-0.402,0.963-0.743s0.33-0.711,0.33-1.111c0-0.586-0.213-1.067-0.638-1.444
				c-0.426-0.378-1.097-0.566-2.016-0.566h-3.921V411.303z"/>
			<path fill="#152259" d="M93.768,418.224l4.757-12.388h1.766l5.07,12.388h-1.867l-1.445-3.752h-5.18l-1.36,3.752H93.768z
				 M97.342,413.137h4.2l-1.293-3.431c-0.394-1.042-0.687-1.898-0.878-2.568c-0.158,0.794-0.38,1.583-0.668,2.365L97.342,413.137z"
				/>
			<path fill="#152259" d="M106.671,418.224v-12.388h4.268c0.963,0,1.698,0.06,2.205,0.178c0.71,0.163,1.315,0.459,1.817,0.887
				c0.653,0.553,1.142,1.258,1.466,2.117c0.324,0.859,0.486,1.841,0.486,2.944c0,0.941-0.11,1.774-0.33,2.502
				c-0.22,0.727-0.501,1.327-0.845,1.804c-0.344,0.476-0.72,0.851-1.128,1.124c-0.409,0.273-0.901,0.48-1.479,0.621
				c-0.577,0.141-1.241,0.211-1.99,0.211H106.671z M108.311,416.762h2.645c0.817,0,1.458-0.076,1.922-0.229
				c0.465-0.151,0.835-0.365,1.111-0.642c0.389-0.389,0.691-0.911,0.908-1.567s0.325-1.452,0.325-2.388
				c0-1.295-0.212-2.291-0.638-2.986c-0.425-0.696-0.942-1.162-1.551-1.398c-0.439-0.169-1.146-0.254-2.121-0.254h-2.603V416.762z"
				/>
			<path fill="#152259" d="M118.67,412.191c0-2.057,0.552-3.666,1.656-4.829s2.529-1.745,4.276-1.745
				c1.144,0,2.174,0.273,3.092,0.819c0.918,0.547,1.618,1.309,2.1,2.286c0.481,0.978,0.723,2.086,0.723,3.325
				c0,1.256-0.254,2.38-0.761,3.371c-0.507,0.992-1.225,1.742-2.155,2.252c-0.929,0.51-1.932,0.765-3.008,0.765
				c-1.166,0-2.208-0.281-3.126-0.845c-0.918-0.563-1.614-1.332-2.087-2.307S118.67,413.278,118.67,412.191z M120.36,412.216
				c0,1.493,0.401,2.669,1.204,3.527c0.803,0.859,1.81,1.289,3.021,1.289c1.234,0,2.249-0.434,3.046-1.302
				c0.797-0.867,1.195-2.098,1.195-3.692c0-1.008-0.17-1.889-0.511-2.641s-0.839-1.335-1.496-1.749s-1.393-0.621-2.209-0.621
				c-1.161,0-2.159,0.398-2.996,1.195C120.778,409.021,120.36,410.352,120.36,412.216z"/>
			<path fill="#152259" d="M136.17,418.224l-4.799-12.388h1.774l3.219,8.999c0.259,0.722,0.476,1.397,0.651,2.028
				c0.191-0.676,0.414-1.353,0.667-2.028l3.346-8.999h1.673l-4.85,12.388H136.17z"/>
			<path fill="#152259" d="M141.527,418.224l4.757-12.388h1.766l5.07,12.388h-1.867l-1.445-3.752h-5.18l-1.36,3.752H141.527z
				 M145.101,413.137h4.2l-1.293-3.431c-0.394-1.042-0.687-1.898-0.878-2.568c-0.158,0.794-0.38,1.583-0.668,2.365L145.101,413.137z
				"/>
			<path fill="#152259" d="M154.413,418.224v-12.388h1.681l6.507,9.726v-9.726h1.571v12.388h-1.681l-6.507-9.734v9.734H154.413z"/>
			<path fill="#152259" d="M171.178,414.245l1.546-0.136c0.073,0.62,0.244,1.128,0.511,1.525s0.683,0.718,1.247,0.963
				c0.563,0.245,1.197,0.368,1.901,0.368c0.625,0,1.177-0.093,1.656-0.279c0.479-0.186,0.835-0.44,1.069-0.765
				s0.351-0.677,0.351-1.061c0-0.389-0.112-0.728-0.338-1.018c-0.225-0.29-0.597-0.534-1.115-0.731
				c-0.333-0.13-1.068-0.331-2.206-0.604c-1.138-0.272-1.935-0.53-2.391-0.772c-0.592-0.31-1.032-0.694-1.323-1.153
				c-0.29-0.459-0.435-0.974-0.435-1.543c0-0.625,0.178-1.209,0.532-1.753c0.355-0.544,0.874-0.956,1.555-1.238
				c0.681-0.281,1.439-0.422,2.273-0.422c0.918,0,1.728,0.147,2.429,0.443c0.702,0.296,1.241,0.73,1.618,1.306
				c0.377,0.574,0.58,1.226,0.608,1.952l-1.572,0.118c-0.084-0.783-0.37-1.375-0.857-1.774c-0.487-0.4-1.207-0.601-2.159-0.601
				c-0.991,0-1.714,0.182-2.167,0.545c-0.453,0.364-0.68,0.802-0.68,1.314c0,0.445,0.161,0.812,0.482,1.099
				c0.315,0.287,1.139,0.582,2.472,0.883c1.332,0.302,2.246,0.564,2.742,0.79c0.721,0.333,1.253,0.754,1.597,1.264
				s0.516,1.097,0.516,1.762c0,0.659-0.189,1.28-0.566,1.863s-0.919,1.036-1.626,1.36c-0.707,0.323-1.503,0.485-2.387,0.485
				c-1.121,0-2.061-0.163-2.818-0.49c-0.758-0.326-1.352-0.817-1.783-1.474C171.427,415.815,171.2,415.073,171.178,414.245z"/>
			<path fill="#152259" d="M183.312,418.224v-12.388h8.957v1.462h-7.317v3.794h6.853v1.453h-6.853v4.217h7.605v1.462H183.312z"/>
			<path fill="#152259" d="M194.77,418.224v-12.388h2.468l2.932,8.771c0.27,0.816,0.467,1.428,0.591,1.833
				c0.141-0.45,0.36-1.112,0.659-1.985l2.966-8.619h2.206v12.388h-1.58v-10.368l-3.6,10.368h-1.479l-3.583-10.546v10.546H194.77z"/>
			<path fill="#152259" d="M207.875,418.224l4.757-12.388h1.766l5.07,12.388h-1.867l-1.445-3.752h-5.18l-1.36,3.752H207.875z
				 M211.45,413.137h4.2l-1.293-3.431c-0.394-1.042-0.687-1.898-0.878-2.568c-0.158,0.794-0.38,1.583-0.668,2.365L211.45,413.137z"
				/>
			<path fill="#152259" d="M220.762,418.224v-12.388h1.681l6.507,9.726v-9.726h1.571v12.388h-1.681l-6.507-9.734v9.734H220.762z"/>
			<path fill="#152259" d="M242.115,413.88l1.639,0.414c-0.344,1.347-0.962,2.374-1.854,3.08c-0.893,0.707-1.985,1.061-3.274,1.061
				c-1.335,0-2.421-0.271-3.258-0.815c-0.836-0.543-1.473-1.33-1.91-2.361s-0.655-2.138-0.655-3.321c0-1.29,0.247-2.415,0.739-3.375
				c0.493-0.961,1.194-1.69,2.104-2.188c0.91-0.499,1.911-0.748,3.004-0.748c1.239,0,2.281,0.315,3.126,0.946
				c0.845,0.631,1.434,1.519,1.766,2.661l-1.614,0.381c-0.287-0.901-0.704-1.558-1.25-1.969s-1.234-0.617-2.062-0.617
				c-0.952,0-1.748,0.229-2.387,0.685c-0.64,0.456-1.089,1.069-1.348,1.838c-0.259,0.769-0.389,1.562-0.389,2.379
				c0,1.053,0.153,1.973,0.46,2.759s0.785,1.373,1.433,1.762c0.647,0.389,1.349,0.583,2.104,0.583c0.918,0,1.695-0.265,2.332-0.794
				C241.458,415.708,241.889,414.923,242.115,413.88z M238.625,404.197l0.929-1.437h1.724l-1.901,2.366h-1.623l-1.825-2.366h1.741
				L238.625,404.197z"/>
			<path fill="#152259" d="M245.63,405.076l1.124-2.365h1.994l-1.859,2.365H245.63z M246.052,418.224v-12.388h1.64v12.388H246.052z"
				/>
			<path fill="#152259" d="M250.514,418.224v-12.388h1.639v6.144l6.151-6.144h2.223l-5.197,5.02l5.425,7.368h-2.163l-4.411-6.27
				l-2.028,1.977v4.293H250.514z"/>
			<path fill="#152259" d="M266.966,418.224v-12.388h8.957v1.462h-7.317v3.794h6.853v1.453h-6.853v4.217h7.605v1.462H266.966z"/>
			<path fill="#152259" d="M281.626,418.224v-10.926h-4.081v-1.462h9.819v1.462h-4.099v10.926H281.626z"/>
			<path fill="#152259" d="M291.226,418.224l4.757-12.388h1.766l5.07,12.388h-1.867l-1.445-3.752h-5.18l-1.36,3.752H291.226z
				 M294.8,413.137h4.2l-1.293-3.431c-0.394-1.042-0.687-1.898-0.878-2.568c-0.158,0.794-0.38,1.583-0.668,2.365L294.8,413.137z"/>
			<path fill="#152259" d="M304.062,418.224v-12.388h1.64v10.926h6.101v1.462H304.062z"/>
			<path fill="#152259" d="M313.99,418.224v-1.732h1.732v1.732H313.99z"/>
		</g>
	</g>
	<g>
		<g>
			<path fill="#152259" d="M453.273,767.787l-4.16-10.738h1.538l2.79,7.801c0.225,0.625,0.413,1.211,0.564,1.758
				c0.166-0.586,0.359-1.172,0.578-1.758l2.9-7.801h1.451l-4.205,10.738H453.273z"/>
			<path fill="#152259" d="M460.238,767.787v-10.738h7.764v1.268h-6.342v3.289h5.939v1.26h-5.939v3.654h6.592v1.268H460.238z"/>
			<path fill="#152259" d="M470.236,767.787v-10.738h4.761c0.957,0,1.685,0.098,2.183,0.289c0.498,0.193,0.896,0.535,1.193,1.023
				c0.299,0.488,0.447,1.027,0.447,1.617c0,0.762-0.246,1.404-0.74,1.928c-0.492,0.521-1.254,0.854-2.285,0.996
				c0.377,0.18,0.662,0.357,0.857,0.533c0.415,0.381,0.809,0.857,1.18,1.43l1.867,2.922h-1.787l-1.421-2.234
				c-0.415-0.645-0.757-1.137-1.025-1.479s-0.509-0.582-0.722-0.719s-0.428-0.232-0.648-0.285c-0.16-0.035-0.424-0.051-0.791-0.051
				h-1.647v4.768H470.236z M471.657,761.789h3.054c0.65,0,1.158-0.068,1.523-0.203c0.367-0.133,0.645-0.348,0.836-0.645
				c0.189-0.295,0.285-0.615,0.285-0.963c0-0.508-0.185-0.924-0.553-1.252c-0.369-0.326-0.951-0.49-1.747-0.49h-3.398V761.789z"/>
			<path fill="#152259" d="M480.563,764.338l1.341-0.117c0.063,0.537,0.211,0.977,0.442,1.32c0.231,0.346,0.593,0.623,1.081,0.836
				s1.037,0.318,1.647,0.318c0.542,0,1.021-0.08,1.436-0.242c0.415-0.16,0.724-0.381,0.927-0.662
				c0.202-0.281,0.304-0.588,0.304-0.92c0-0.336-0.098-0.631-0.293-0.883c-0.195-0.25-0.518-0.461-0.967-0.633
				c-0.288-0.111-0.925-0.287-1.911-0.523s-1.678-0.461-2.073-0.67c-0.513-0.27-0.896-0.602-1.146-1s-0.377-0.844-0.377-1.336
				c0-0.543,0.153-1.049,0.462-1.521c0.307-0.471,0.756-0.828,1.348-1.072c0.59-0.244,1.247-0.365,1.97-0.365
				c0.796,0,1.498,0.127,2.105,0.383c0.608,0.258,1.075,0.635,1.403,1.133c0.326,0.498,0.502,1.063,0.527,1.691l-1.363,0.104
				c-0.072-0.68-0.32-1.191-0.743-1.539c-0.423-0.346-1.046-0.52-1.871-0.52c-0.859,0-1.485,0.156-1.879,0.473
				c-0.394,0.314-0.589,0.693-0.589,1.139c0,0.385,0.139,0.703,0.417,0.951c0.273,0.25,0.987,0.504,2.143,0.766
				c1.154,0.262,1.946,0.49,2.376,0.686c0.625,0.287,1.087,0.652,1.385,1.094c0.298,0.443,0.447,0.951,0.447,1.527
				c0,0.572-0.164,1.109-0.491,1.615s-0.798,0.898-1.41,1.18s-1.302,0.422-2.069,0.422c-0.971,0-1.785-0.143-2.442-0.426
				s-1.172-0.709-1.545-1.277C480.779,765.697,480.583,765.055,480.563,764.338z"/>
			<path fill="#152259" d="M491.293,767.787v-10.738h1.422v10.738H491.293z"/>
			<path fill="#152259" d="M494.787,762.557c0-1.781,0.479-3.178,1.436-4.186s2.192-1.512,3.706-1.512
				c0.991,0,1.885,0.236,2.681,0.711c0.796,0.473,1.402,1.133,1.82,1.98s0.626,1.809,0.626,2.883c0,1.088-0.22,2.063-0.659,2.922
				s-1.063,1.51-1.867,1.951c-0.807,0.441-1.676,0.664-2.607,0.664c-1.012,0-1.914-0.244-2.711-0.732
				c-0.795-0.488-1.398-1.156-1.809-2C494.992,764.393,494.787,763.5,494.787,762.557z M496.252,762.58
				c0,1.293,0.348,2.313,1.043,3.057c0.697,0.744,1.569,1.117,2.619,1.117c1.069,0,1.949-0.375,2.641-1.127
				c0.69-0.752,1.036-1.82,1.036-3.201c0-0.875-0.147-1.637-0.442-2.289c-0.297-0.652-0.729-1.158-1.297-1.516
				c-0.569-0.359-1.207-0.539-1.916-0.539c-1.006,0-1.871,0.346-2.596,1.037C496.615,759.809,496.252,760.963,496.252,762.58z"/>
			<path fill="#152259" d="M506.872,767.787v-10.738h1.458l5.639,8.432v-8.432h1.363v10.738h-1.458l-5.64-8.438v8.438H506.872z"/>
			<path fill="#152259" d="M528.281,766.52v1.268h-7.098c-0.01-0.318,0.041-0.623,0.154-0.916c0.18-0.482,0.469-0.959,0.867-1.428
				s0.973-1.012,1.725-1.627c1.168-0.957,1.956-1.715,2.366-2.273s0.615-1.088,0.615-1.586c0-0.521-0.187-0.963-0.561-1.322
				c-0.373-0.359-0.86-0.537-1.461-0.537c-0.635,0-1.143,0.189-1.523,0.57s-0.573,0.908-0.579,1.582l-1.354-0.139
				c0.093-1.012,0.442-1.781,1.048-2.311c0.605-0.531,1.418-0.795,2.438-0.795c1.03,0,1.846,0.285,2.446,0.857
				c0.601,0.57,0.9,1.279,0.9,2.123c0,0.43-0.088,0.852-0.264,1.268c-0.176,0.414-0.467,0.852-0.875,1.311s-1.085,1.09-2.032,1.891
				c-0.791,0.664-1.299,1.113-1.523,1.35c-0.225,0.238-0.41,0.477-0.557,0.715H528.281z"/>
			<path fill="#152259" d="M530.434,767.787v-1.502h1.502v1.502H530.434z"/>
			<path fill="#152259" d="M533.861,762.492c0-1.27,0.131-2.293,0.393-3.066c0.261-0.773,0.648-1.371,1.164-1.791
				s1.164-0.629,1.945-0.629c0.576,0,1.081,0.115,1.516,0.348s0.793,0.566,1.076,1.004c0.283,0.436,0.506,0.969,0.667,1.596
				s0.241,1.475,0.241,2.539c0,1.26-0.129,2.275-0.388,3.049c-0.259,0.775-0.646,1.373-1.161,1.795s-1.166,0.635-1.951,0.635
				c-1.035,0-1.849-0.371-2.439-1.113C534.216,765.963,533.861,764.508,533.861,762.492z M535.217,762.492
				c0,1.762,0.206,2.936,0.619,3.518c0.412,0.584,0.922,0.877,1.527,0.877s1.113-0.293,1.526-0.879s0.619-1.758,0.619-3.516
				c0-1.768-0.206-2.943-0.619-3.523c-0.413-0.582-0.927-0.871-1.542-0.871c-0.605,0-1.088,0.256-1.449,0.768
				C535.443,759.52,535.217,760.729,535.217,762.492z"/>
		</g>
	</g>
	<g>
		<g>
			<path fill="#152259" d="M423.901,787v-10.738h7.243v1.268h-5.822v3.326h5.039v1.266h-5.039V787H423.901z"/>
			<path fill="#152259" d="M433.02,787v-10.738h7.764v1.268h-6.343v3.289h5.94v1.26h-5.94v3.654h6.592V787H433.02z"/>
			<path fill="#152259" d="M442.937,787v-10.738h4.028c0.82,0,1.479,0.109,1.974,0.326c0.496,0.217,0.884,0.553,1.165,1.004
				c0.28,0.451,0.421,0.924,0.421,1.418c0,0.459-0.124,0.891-0.373,1.295c-0.249,0.406-0.625,0.732-1.128,0.982
				c0.649,0.189,1.148,0.516,1.497,0.975c0.35,0.459,0.524,1,0.524,1.625c0,0.504-0.106,0.971-0.319,1.402
				c-0.212,0.432-0.475,0.766-0.787,1s-0.704,0.412-1.176,0.531c-0.471,0.119-1.048,0.18-1.731,0.18H442.937z M444.357,780.773
				h2.322c0.63,0,1.081-0.041,1.354-0.123c0.361-0.107,0.634-0.287,0.816-0.535c0.184-0.25,0.275-0.563,0.275-0.938
				c0-0.357-0.086-0.67-0.257-0.941s-0.415-0.457-0.732-0.557s-0.861-0.15-1.633-0.15h-2.146V780.773z M444.357,785.732h2.674
				c0.459,0,0.781-0.018,0.967-0.051c0.327-0.059,0.601-0.156,0.82-0.293s0.4-0.336,0.542-0.598s0.212-0.563,0.212-0.904
				c0-0.4-0.103-0.748-0.308-1.043c-0.205-0.297-0.489-0.504-0.854-0.623c-0.363-0.119-0.887-0.18-1.57-0.18h-2.483V785.732z"/>
			<path fill="#152259" d="M453.022,787v-10.738h4.761c0.957,0,1.685,0.098,2.183,0.289c0.498,0.193,0.896,0.535,1.193,1.023
				s0.447,1.027,0.447,1.617c0,0.762-0.247,1.404-0.74,1.928c-0.493,0.521-1.255,0.854-2.285,0.996
				c0.376,0.18,0.662,0.357,0.857,0.533c0.415,0.381,0.808,0.857,1.179,1.43l1.868,2.922h-1.787l-1.421-2.234
				c-0.415-0.645-0.757-1.137-1.025-1.479s-0.51-0.582-0.722-0.719c-0.213-0.137-0.429-0.232-0.648-0.285
				c-0.161-0.035-0.425-0.051-0.791-0.051h-1.647V787H453.022z M454.443,781.002h3.054c0.649,0,1.157-0.068,1.523-0.203
				c0.366-0.133,0.645-0.348,0.835-0.645c0.19-0.295,0.286-0.615,0.286-0.963c0-0.508-0.185-0.924-0.554-1.252
				c-0.368-0.326-0.95-0.49-1.746-0.49h-3.398V781.002z"/>
			<path fill="#152259" d="M470.879,776.262h1.421v6.205c0,1.078-0.122,1.936-0.366,2.57s-0.685,1.15-1.322,1.549
				c-0.637,0.398-1.474,0.598-2.509,0.598c-1.006,0-1.828-0.174-2.468-0.521c-0.64-0.346-1.097-0.848-1.37-1.504
				c-0.273-0.658-0.41-1.555-0.41-2.691v-6.205h1.421v6.197c0,0.932,0.087,1.619,0.261,2.061c0.173,0.443,0.471,0.783,0.894,1.023
				c0.422,0.238,0.938,0.357,1.549,0.357c1.045,0,1.789-0.236,2.233-0.709c0.444-0.475,0.667-1.385,0.667-2.732V776.262z"/>
			<path fill="#152259" d="M473.486,787l4.123-10.738h1.531L483.535,787h-1.619l-1.252-3.252h-4.49L474.995,787H473.486z
				 M476.584,782.59h3.641l-1.121-2.973c-0.342-0.904-0.596-1.646-0.762-2.227c-0.137,0.688-0.329,1.371-0.578,2.051L476.584,782.59
				z"/>
			<path fill="#152259" d="M484.692,787v-10.738h4.761c0.957,0,1.685,0.098,2.183,0.289c0.498,0.193,0.896,0.535,1.193,1.023
				s0.447,1.027,0.447,1.617c0,0.762-0.247,1.404-0.74,1.928c-0.493,0.521-1.255,0.854-2.285,0.996
				c0.376,0.18,0.662,0.357,0.857,0.533c0.415,0.381,0.808,0.857,1.179,1.43l1.868,2.922h-1.787l-1.421-2.234
				c-0.415-0.645-0.757-1.137-1.025-1.479s-0.51-0.582-0.722-0.719c-0.213-0.137-0.429-0.232-0.648-0.285
				c-0.161-0.035-0.425-0.051-0.791-0.051h-1.647V787H484.692z M486.113,781.002h3.054c0.649,0,1.157-0.068,1.523-0.203
				c0.366-0.133,0.645-0.348,0.835-0.645c0.19-0.295,0.286-0.615,0.286-0.963c0-0.508-0.185-0.924-0.554-1.252
				c-0.368-0.326-0.95-0.49-1.746-0.49h-3.398V781.002z"/>
			<path fill="#152259" d="M498.257,787v-4.549l-4.139-6.189h1.729l2.117,3.238c0.391,0.605,0.754,1.211,1.091,1.816
				c0.322-0.563,0.713-1.193,1.172-1.896l2.08-3.158h1.655l-4.284,6.189V787H498.257z"/>
			<path fill="#152259" d="M515.527,785.732V787h-7.098c-0.01-0.318,0.042-0.623,0.154-0.916c0.181-0.482,0.47-0.959,0.867-1.428
				c0.398-0.469,0.974-1.012,1.726-1.627c1.167-0.957,1.955-1.715,2.365-2.273s0.615-1.088,0.615-1.586
				c0-0.521-0.187-0.963-0.561-1.322c-0.373-0.359-0.86-0.537-1.461-0.537c-0.635,0-1.143,0.189-1.523,0.57
				s-0.573,0.908-0.578,1.582l-1.355-0.139c0.093-1.012,0.442-1.781,1.048-2.311c0.605-0.531,1.418-0.795,2.438-0.795
				c1.03,0,1.846,0.285,2.446,0.857c0.601,0.57,0.901,1.279,0.901,2.123c0,0.43-0.088,0.852-0.264,1.268
				c-0.176,0.414-0.468,0.852-0.876,1.311c-0.407,0.459-1.085,1.09-2.032,1.891c-0.791,0.664-1.299,1.113-1.523,1.35
				c-0.225,0.238-0.41,0.477-0.557,0.715H515.527z"/>
			<path fill="#152259" d="M516.94,781.705c0-1.27,0.131-2.293,0.393-3.066c0.261-0.773,0.648-1.371,1.164-1.791
				c0.515-0.42,1.163-0.629,1.944-0.629c0.576,0,1.082,0.115,1.517,0.348s0.793,0.566,1.076,1.004
				c0.283,0.436,0.506,0.969,0.667,1.596s0.241,1.475,0.241,2.539c0,1.26-0.129,2.275-0.388,3.049
				c-0.259,0.775-0.646,1.373-1.161,1.795c-0.516,0.422-1.166,0.635-1.952,0.635c-1.035,0-1.848-0.371-2.438-1.113
				C517.295,785.176,516.94,783.721,516.94,781.705z M518.296,781.705c0,1.762,0.206,2.936,0.619,3.518
				c0.412,0.584,0.921,0.877,1.526,0.877s1.114-0.293,1.527-0.879c0.412-0.586,0.619-1.758,0.619-3.516
				c0-1.768-0.207-2.943-0.619-3.523c-0.413-0.582-0.927-0.871-1.542-0.871c-0.605,0-1.089,0.256-1.45,0.768
				C518.522,778.732,518.296,779.941,518.296,781.705z"/>
			<path fill="#152259" d="M532.212,785.732V787h-7.098c-0.01-0.318,0.042-0.623,0.154-0.916c0.181-0.482,0.47-0.959,0.867-1.428
				c0.398-0.469,0.974-1.012,1.726-1.627c1.167-0.957,1.955-1.715,2.365-2.273s0.615-1.088,0.615-1.586
				c0-0.521-0.187-0.963-0.561-1.322c-0.373-0.359-0.86-0.537-1.461-0.537c-0.635,0-1.143,0.189-1.523,0.57
				s-0.573,0.908-0.578,1.582l-1.355-0.139c0.093-1.012,0.442-1.781,1.048-2.311c0.605-0.531,1.418-0.795,2.438-0.795
				c1.03,0,1.846,0.285,2.446,0.857c0.601,0.57,0.901,1.279,0.901,2.123c0,0.43-0.088,0.852-0.264,1.268
				c-0.176,0.414-0.468,0.852-0.876,1.311c-0.407,0.459-1.085,1.09-2.032,1.891c-0.791,0.664-1.299,1.113-1.523,1.35
				c-0.225,0.238-0.41,0.477-0.557,0.715H532.212z"/>
			<path fill="#152259" d="M533.625,781.705c0-1.27,0.131-2.293,0.393-3.066c0.261-0.773,0.648-1.371,1.164-1.791
				c0.515-0.42,1.163-0.629,1.944-0.629c0.576,0,1.082,0.115,1.517,0.348s0.793,0.566,1.076,1.004
				c0.283,0.436,0.506,0.969,0.667,1.596s0.241,1.475,0.241,2.539c0,1.26-0.129,2.275-0.388,3.049
				c-0.259,0.775-0.646,1.373-1.161,1.795c-0.516,0.422-1.166,0.635-1.952,0.635c-1.035,0-1.848-0.371-2.438-1.113
				C533.979,785.176,533.625,783.721,533.625,781.705z M534.98,781.705c0,1.762,0.206,2.936,0.619,3.518
				c0.412,0.584,0.921,0.877,1.526,0.877s1.114-0.293,1.527-0.879c0.412-0.586,0.619-1.758,0.619-3.516
				c0-1.768-0.207-2.943-0.619-3.523c-0.413-0.582-0.927-0.871-1.542-0.871c-0.605,0-1.089,0.256-1.45,0.768
				C535.207,778.732,534.98,779.941,534.98,781.705z"/>
		</g>
	</g>
</g>
<g id="lines">
</g>
</svg>
